<?xml version="1.0" standalone="no"?>
<!DOCTYPE svg PUBLIC "-//W3C//DTD SVG 1.1//EN" "http://www.w3.org/Graphics/SVG/1.1/DTD/svg11.dtd" >
<svg xmlns="http://www.w3.org/2000/svg">
<metadata></metadata>
<defs>
<font id="optimademibolditalic" horiz-adv-x="572" >
<font-face units-per-em="2048" ascent="1638" descent="-410" />
<missing-glyph horiz-adv-x="574" />
<glyph horiz-adv-x="2048" />
<glyph horiz-adv-x="2048" />
<glyph unicode="&#xd;" horiz-adv-x="2048" />
<glyph unicode=" "  horiz-adv-x="574" />
<glyph unicode="&#x09;" horiz-adv-x="574" />
<glyph unicode="&#xa0;" horiz-adv-x="574" />
<glyph unicode="!" horiz-adv-x="654" d="M93 141.5q0 61.5 45.5 108t106.5 46.5q62 0 109 -46.5t47 -108.5q0 -60 -46.5 -106t-109.5 -46q-61 0 -106.5 45.5t-45.5 107zM276 475l56 755q2 33 4 52.5t7 53.5t12 55t19 47t28 41t39.5 25.5t52.5 10.5q73 0 111.5 -37.5t38.5 -92.5q0 -46 -60 -213l-265 -697h-43z " />
<glyph unicode="&#x22;" horiz-adv-x="981" d="M319 885l55 641h221l-188 -641h-88zM705 885l56 641h221l-188 -641h-89z" />
<glyph unicode="#" horiz-adv-x="1146" d="M40 443v154h249l53 294h-232v156h262l79 433h166l-79 -433h272l79 433h166l-80 -433h222v-156h-250l-54 -294h232v-154h-260l-82 -443h-166l82 443h-272l-82 -443h-166l82 443h-221zM456 597h272l53 294h-272z" />
<glyph unicode="$" horiz-adv-x="1146" d="M17 110q24 44 37 70t24.5 55.5t18.5 57t15 70.5h47q27 -107 98 -178t181 -92l126 595q-16 9 -46.5 25.5t-46.5 25.5q-216 123 -216 347q0 39 7 79.5t24 84t41.5 82t62.5 74.5t85 61q120 63 270 68q3 12 8 46.5t9.5 68t5.5 47.5q39 -5 57 -5t57 5q-33 -140 -37 -164 q105 -13 188.5 -41t184.5 -80q-33 -56 -53.5 -105t-27 -73t-12.5 -57h-34q-34 112 -93.5 168t-174.5 80l-111 -530q15 -9 56.5 -31.5t66 -36.5t58.5 -36.5t60 -45.5t45 -48q43 -57 60 -110.5t17 -128.5q0 -108 -44 -200.5t-118.5 -155.5t-175.5 -98t-213 -35h-7v-5 q-19 -96 -32 -198q-15 4 -50 4q-14 0 -68 -4l44 207q-74 6 -136.5 20.5t-114 38t-76.5 37.5t-67 41zM475 1150q0 -46 18.5 -83t48 -63.5t77.5 -56.5l102 480q-35 -6 -68 -18t-66 -34.5t-57 -52.5t-39.5 -74.5t-15.5 -97.5zM542 82q67 1 121 24t87 56.5t55 75t31 77t9 65.5 q0 49 -16 90t-46.5 72t-58 51.5t-67.5 43.5z" />
<glyph unicode="%" horiz-adv-x="1923" d="M181 1075q0 122 52 221t144.5 156t206.5 57q154 0 242 -88.5t88 -241.5q0 -56 -16.5 -114t-51 -113t-82.5 -97t-117 -68t-149 -26q-65 0 -118.5 18.5t-89.5 49.5t-61 71.5t-36.5 84.5t-11.5 90zM372 994q0 -43 11.5 -77.5t40.5 -58.5t72 -24q48 0 88.5 32t65.5 80 t42.5 107.5t24.5 111t7 93.5q0 177 -127 177q-48 0 -88.5 -34.5t-65 -85.5t-41.5 -113.5t-23.5 -115t-6.5 -92.5zM456 -51l953 1586h113l-954 -1586h-112zM1095 296q0 91 30.5 171.5t83.5 138.5t127.5 91t160.5 33q154 0 242 -88.5t88 -240.5q0 -57 -16 -115t-50.5 -112.5 t-82.5 -97t-117.5 -68t-148.5 -25.5q-65 0 -119 18.5t-90 49t-61 71.5t-36 84.5t-11 89.5zM1285 215q0 -67 30.5 -113.5t93.5 -46.5q49 0 89.5 32t65.5 80t42 107.5t24 111.5t7 94q0 177 -126 177q-49 0 -89 -34.5t-64.5 -86t-41.5 -113.5t-24 -115t-7 -93z" />
<glyph unicode="&#x26;" horiz-adv-x="1596" d="M82 336q0 71 22 132.5t59.5 109.5t97.5 93t124 79.5t151 72.5q-24 36 -38.5 59t-30.5 54t-24.5 57.5t-14.5 60t-6 69.5q0 88 31.5 158.5t86.5 116.5t129 70.5t160 24.5q79 0 142.5 -21t101.5 -52.5t63.5 -72t35.5 -76t10 -68.5q0 -37 -10.5 -71t-25.5 -61t-41 -53.5 t-48 -44.5t-57 -38t-57.5 -31t-59.5 -25.5t-53 -20t-47 -16.5q17 -22 83.5 -108.5t96 -124t80.5 -102t94 -116.5q28 30 45 49t40 48.5t42 61.5t36 69q16 32 24.5 56t14.5 50t8 58l22 11q31 -44 54 -66.5t74 -56.5q-30 -46 -51.5 -75.5t-85 -102.5t-161.5 -174 q78 -102 130 -162q63 -71 66 -75l69 -82q-79 13 -145 13q-24 0 -50.5 -2t-59.5 -6t-50 -5q-78 81 -139 164q-53 -34 -73.5 -47t-65.5 -39.5t-69 -37t-65.5 -27t-75 -23t-77 -12t-90.5 -5.5q-86 0 -161.5 23.5t-134 67.5t-92.5 114t-34 158zM319 429q0 -67 25.5 -126.5 t69.5 -102t104.5 -67.5t127.5 -25q29 0 52.5 3.5t62 14.5t89.5 38.5t114 69.5q-54 78 -124 170t-143 187.5t-125 166.5q-28 -16 -43.5 -25.5t-46.5 -30t-49.5 -38t-42.5 -44.5t-38 -54t-23.5 -63t-9.5 -74zM639 1165q0 -111 104 -253q65 29 114.5 64t78.5 68t47 67.5t24 61 t6 51.5q0 77 -54.5 125.5t-120.5 48.5q-49 0 -88.5 -20.5t-62.5 -54t-35.5 -74t-12.5 -84.5z" />
<glyph unicode="'" d="M308 885l55 641h221l-188 -641h-88z" />
<glyph unicode="(" horiz-adv-x="696" d="M141 473q0 380 215 694q26 39 55.5 74.5t55 63.5t60 57t58.5 48.5t62 44t58.5 37.5t61.5 35t57.5 30.5t57.5 30.5l36 -55q-156 -104 -258.5 -226.5t-184.5 -293.5q-143 -300 -143 -631q0 -370 157 -627l-51 -40q-55 66 -103 141.5t-94 172t-73 212t-27 232.5z" />
<glyph unicode=")" horiz-adv-x="696" d="M-177 -230q155 103 258 225.5t185 293.5q143 301 143 631q0 372 -157 629l51 39q56 -66 104 -142t93.5 -172.5t72 -212t26.5 -232.5q0 -379 -215 -694q-33 -49 -71.5 -93t-71 -77t-78.5 -67.5t-75 -54.5t-80.5 -48.5t-74 -40.5t-74.5 -39z" />
<glyph unicode="*" horiz-adv-x="899" d="M181 1086q232 32 336 64q-105 78 -146.5 107t-121.5 79q23 23 34.5 36.5t22.5 28.5t30 43l58 -66q73 -84 161 -175q2 15 8 52t7 45t5 34.5t4.5 33t3 26.5t3 29t2 28t2 35t1.5 38q69 -16 137 -22q-21 -53 -35.5 -94t-27.5 -82t-19.5 -63.5t-21.5 -74.5q30 10 45.5 15.5 t49 19t82.5 36t121 58.5q11 -47 18 -69t24 -60q-198 -37 -325 -69q69 -51 104 -76.5t66 -46t103 -67.5q-22 -20 -36 -35t-22.5 -26.5t-30.5 -42.5q-73 91 -224 245q-31 -176 -35 -323q-71 16 -137 21q2 5 10.5 25.5t10.5 26.5t9.5 24.5t11 28.5t10 29.5t11.5 36.5t12 40.5 t14 50t15 56.5q-214 -84 -299 -130q-11 37 -16 51t-12.5 31.5t-22.5 47.5z" />
<glyph unicode="+" horiz-adv-x="1475" d="M164 604v143h501v503h145v-503h501v-143h-501v-502h-145v502h-501z" />
<glyph unicode="," d="M-131 -329l283 523q31 58 59.5 81t73.5 23q26 0 50 -12.5t40 -36t16 -50.5q0 -43 -38.5 -93.5t-141.5 -156.5l-300 -308z" />
<glyph unicode="-" horiz-adv-x="899" d="M126 441q18 41 27.5 74t13.5 58.5t10 80.5q279 -6 281 -6q47 0 99.5 1t117 3t99.5 2q-25 -64 -34.5 -104.5t-15.5 -108.5q-34 0 -134.5 4t-154.5 4q-101 0 -309 -8z" />
<glyph unicode="." d="M78 141.5q0 61.5 45.5 108t107 46.5t107.5 -46.5t46 -108.5q0 -60 -45.5 -106t-108.5 -46q-62 0 -107 45.5t-45 107z" />
<glyph unicode="/" horiz-adv-x="859" d="M55 -64l677 1630h148l-677 -1630h-148z" />
<glyph unicode="0" horiz-adv-x="1146" d="M110 498q0 80 11 170t35.5 187t59.5 188t86 173t112 143.5t141.5 97.5t170.5 36q184 0 290.5 -133.5t106.5 -377.5q0 -73 -15 -181.5t-54 -247.5t-92 -239q-19 -36 -44 -73.5t-69 -87.5t-92.5 -87.5t-115.5 -64t-137 -26.5q-55 0 -107.5 15.5t-99.5 46t-82 73.5 q-105 130 -105 388zM338 308q0 -50 8 -91t26 -76.5t51.5 -55t80.5 -19.5q140 0 208 193q69 197 126 463t57 439q0 241 -165 241q-141 0 -208 -192q-44 -124 -85 -283.5t-70 -331t-29 -287.5z" />
<glyph unicode="1" horiz-adv-x="1146" d="M215 1230l6 20q71 14 123.5 27.5t106.5 30.5t142 47q45 16 183 74.5t218 96.5l30 -9q-42 -116 -115 -424.5t-107 -488.5q-5 -32 -12.5 -70t-14.5 -72t-14 -69t-14 -71.5t-13 -69.5q-7 -48 -33 -252q-13 1 -40 5t-49.5 6t-43.5 2q-15 0 -37 -2t-41 -4t-40.5 -4t-33.5 -3 l35 146q89 367 168 766l54 265q3 13 6 29.5t5.5 29.5t6 29t6.5 29q-157 -72 -391 -169q-25 34 -40 51.5t-51 53.5z" />
<glyph unicode="2" horiz-adv-x="1146" d="M6 0v97q156 136 224 197q3 2 9 8q50 45 78.5 71t83 78t88 88t82.5 91t80 98t66.5 98t56 103t34 101.5t13.5 102.5q0 78 -30.5 137.5t-82 91t-115.5 31.5q-133 0 -213 -108q-26 -35 -36 -66.5t-21 -97.5h-17q-22 26 -40 43t-80 71q-4 2 -5.5 3.5t-4.5 4t-5 4.5 q144 248 448 248q64 0 126 -11.5t125 -39.5t110 -70.5t76.5 -110t29.5 -151.5q0 -42 -8.5 -83.5t-27 -81t-39.5 -75t-53.5 -73.5t-60 -68t-68.5 -68t-70 -63t-73 -62q-123 -98 -167 -129l-139 -111q-12 -10 -32 -25.5t-37.5 -29t-31.5 -26.5h396q153 0 309 13 q-24 -60 -32.5 -100t-16.5 -130q-243 13 -508 13q-168 0 -421 -13z" />
<glyph unicode="3" horiz-adv-x="1146" d="M-19 144l70 97q4 6 10.5 15.5t11.5 18t11.5 18t10.5 15.5l23 -12q52 -220 293 -220q75 0 139.5 33.5t107.5 88t67.5 124t24.5 140.5q0 128 -66 193.5t-193 65.5q-34 0 -95 -9q18 70 24 128q51 -15 99 -15q59 0 109 17t84.5 45.5t60.5 63.5t40.5 74t21.5 73.5t7 64.5 q0 101 -51 166.5t-147 65.5q-32 0 -59.5 -4.5t-48.5 -11.5t-40.5 -20.5t-32.5 -24.5t-27 -30.5t-21.5 -32t-17.5 -36t-14.5 -34.5t-13.5 -36l-15 -4q-11 18 -20.5 32t-22.5 28.5t-20 22.5t-25.5 26.5t-26.5 27.5q23 27 39 44t55.5 48.5t79 50.5t101 34t130.5 15 q93 0 168.5 -18t127 -49t86.5 -74.5t51 -93t16 -105.5q0 -89 -45.5 -164t-120.5 -125q-98 -65 -246 -91q23 -4 35.5 -7t41.5 -10.5t48.5 -15.5t48.5 -22t48.5 -29.5t41.5 -38.5t35 -49t22 -61t9 -75q0 -93 -33 -172.5t-90 -135.5t-133.5 -96t-163.5 -58.5t-180 -18.5 q-66 0 -126.5 11t-102.5 26.5t-84 40t-65.5 42.5t-51.5 43z" />
<glyph unicode="4" horiz-adv-x="1146" d="M17 372l32 166l833 952q11 -1 34.5 -4.5t42.5 -6t35 -2.5q47 0 97 13q-22 -70 -29 -105l-186 -836h201q-24 -50 -24 -98q0 -60 2 -79q-204 6 -208 6q-17 -74 -26 -131.5t-34 -246.5q-93 13 -126 13q-37 0 -130 -13q26 93 49 184q2 7 12.5 61.5t13.5 64.5l15 68 q-78 4 -210 4q-37 0 -198 -5t-196 -5zM186 549q246 6 259 6q67 0 209 -4l125 559q22 108 46 180z" />
<glyph unicode="5" horiz-adv-x="1146" d="M-19 133q26 48 37.5 70t22 45.5t30.5 72.5l22 -11q14 -46 35 -84.5t54.5 -74t85.5 -55.5t116 -20q56 0 105 17t84.5 45.5t65 65.5t49 76.5t33 80.5t19 74.5t5.5 60.5q0 118 -69.5 198t-181.5 80q-101 0 -207 -73q-34 17 -44 20q46 191 93 418.5t53 333.5l25 17 q159 -13 405 -13q191 0 353 13q-1 -2 -12.5 -34t-17.5 -50.5t-12.5 -47t-6.5 -47.5q0 -42 2 -61q-286 22 -648 22l-114 -438q35 14 61 22t62.5 14t77.5 6q40 0 81 -5.5t85.5 -18.5t84.5 -32.5t76.5 -50.5t62.5 -69.5t41.5 -92t15.5 -116.5q0 -66 -25 -136.5t-76.5 -138.5 t-121.5 -121.5t-169 -86.5t-210 -33q-231 0 -428 158z" />
<glyph unicode="6" horiz-adv-x="1146" d="M114 498q0 126 25 247.5t72 231.5t119 203t162 161t206 106.5t246 38.5q20 0 109 -11q7 -38 19 -88l-8 -11q-56 11 -108 11q-50 0 -94.5 -9t-96.5 -32t-105.5 -70t-104.5 -115q-36 -49 -63 -99t-48.5 -112t-32.5 -100t-31 -118q25 29 41 46t47 42t60.5 38.5t73.5 24 t95 10.5q167 0 273.5 -101.5t106.5 -274.5q0 -236 -168 -399q-51 -49 -114.5 -81t-119 -44t-109.5 -12q-236 0 -355 158q-97 128 -97 359zM340 345q0 -36 4.5 -68t13.5 -63.5t25 -56.5t38 -44.5t53.5 -30.5t69.5 -11q60 0 109 33.5t79.5 83.5t52 112.5t30 117.5t8.5 101 q0 57 -10.5 104t-32.5 84.5t-60 58.5t-89 21q-59 0 -108 -26.5t-82.5 -70t-56.5 -101.5t-33.5 -119.5t-10.5 -124.5z" />
<glyph unicode="7" horiz-adv-x="1146" d="M73 6q175 203 500 657t409 584q-222 7 -365 7q-252 0 -391 -4q22 50 30 92t8 153q298 -20 601 -20q134 0 400 7q0 -14 5 -47q-105 -126 -493 -701q-130 -193 -390 -652l-47 -82q-19 1 -62 7t-67 6q-20 0 -41.5 -2t-48 -6t-41.5 -5z" />
<glyph unicode="8" horiz-adv-x="1146" d="M78 376q0 180 121 314q27 31 62.5 55.5t63.5 38t65.5 25t54 14.5t44.5 9v4q-17 7 -25 10.5t-26 11.5t-28.5 15l-27 18t-27 22.5t-23.5 27t-21 33.5t-15.5 39t-11 47t-3.5 55q0 68 25.5 129t70 106t101.5 77.5t122 49t130 16.5q60 -1 115.5 -12t107 -34.5t89.5 -57.5 t60.5 -85t22.5 -114q0 -144 -82 -234t-224 -131v-6q17 -7 24.5 -10.5t29.5 -14.5t35.5 -20.5t35.5 -26.5t36 -34t31 -42t27 -51.5t17 -61.5t7 -73q0 -75 -19.5 -144t-55 -124.5t-85 -101t-109 -76t-128 -47.5t-141.5 -17q-140 0 -241 49.5t-153 139.5t-52 212zM332 287 q0 -46 9.5 -84.5t30 -70t56 -49t83.5 -17.5q61 0 113 35t85 89.5t56 122t33 129.5t10 115q0 46 -10 84.5t-30.5 69.5t-56 48.5t-82.5 17.5q-52 0 -97 -24.5t-76.5 -66t-56 -92t-39 -106.5t-21.5 -106.5t-7 -94.5zM515 1055q0 -58 17.5 -98.5t50 -60.5t78.5 -20q47 0 86 23 t65 59.5t44.5 83.5t26.5 93t8 89q0 87 -38.5 132.5t-107.5 45.5q-46 0 -85.5 -23t-65.5 -59.5t-44.5 -83t-26.5 -92.5t-8 -89z" />
<glyph unicode="9" horiz-adv-x="1146" d="M66 175l20 4q52 -50 107 -74.5t139 -24.5q19 0 31 0.5t39.5 4.5t49 11.5t53.5 23t59.5 37.5t60 57t61.5 80q110 167 143 405q-29 -38 -81 -68.5t-110.5 -46.5t-111.5 -16q-72 0 -138.5 24t-120.5 68.5t-86.5 117t-32.5 162.5q0 105 38.5 204.5t105.5 175.5t164 122 t207 46q139 0 235.5 -48.5t158.5 -162.5q35 -65 45 -133t10 -164q0 -422 -236 -721q-104 -132 -242.5 -208t-297.5 -76q-66 0 -107 6.5t-121 27.5q-4 22 -7 38t-7.5 32.5t-7 26t-9.5 32.5t-11 37zM403 927q0 -118 55.5 -185t147.5 -67q35 0 71 13t73 45t65.5 79t46.5 122.5 t18 169.5q0 43 -4 80.5t-17 78t-33.5 69t-55.5 47.5t-82 19q-56 0 -103.5 -29t-80.5 -76.5t-56 -109t-34 -127t-11 -129.5z" />
<glyph unicode=":" horiz-adv-x="614" d="M78 141.5q0 61.5 45.5 108t107 46.5t107.5 -46.5t46 -108.5q0 -60 -45.5 -106t-108.5 -46q-62 0 -107 45.5t-45 107zM230 863q0 62 45.5 108t106.5 46q62 0 109 -46.5t47 -107.5q0 -30 -12.5 -58t-33.5 -49t-50 -33.5t-60 -12.5q-61 0 -106.5 45.5t-45.5 107.5z" />
<glyph unicode=";" horiz-adv-x="614" d="M-131 -329l283 523q31 58 59.5 81t73.5 23q26 0 50 -12.5t40 -36t16 -50.5q0 -43 -38.5 -93.5t-141.5 -156.5l-300 -308zM230 865q0 61 46.5 106.5t107.5 45.5q63 0 108.5 -45.5t45.5 -106.5q0 -29 -12.5 -57.5t-33 -50t-49 -34.5t-59.5 -13q-61 0 -107.5 46.5 t-46.5 108.5z" />
<glyph unicode="&#x3c;" horiz-adv-x="1475" d="M184 471v155l1108 471v-155l-933 -393l933 -395v-154z" />
<glyph unicode="=" horiz-adv-x="1475" d="M164 433v145h1147v-145h-1147zM164 777v143h1147v-143h-1147z" />
<glyph unicode="&#x3e;" horiz-adv-x="1475" d="M184 0v154l933 395l-933 393v155l1108 -471v-155z" />
<glyph unicode="?" horiz-adv-x="899" d="M179 141q0 62 45.5 108.5t107.5 46.5q61 0 108 -46.5t47 -108.5q0 -60 -46.5 -106t-108.5 -46q-41 0 -76 21t-56 56t-21 75zM232 701q0 35 6 64t22 57t33 50t51.5 51.5t64 52.5t82.5 62q34 25 46.5 34t37 28.5t32.5 29t22.5 25.5t19 29t8.5 30t4 36q0 42 -18.5 77 t-47.5 55.5t-60.5 31.5t-61.5 11q-105 0 -175 -106h-32q16 64 30 158q50 16 71.5 22.5t65 14.5t82.5 8q72 0 139.5 -24t119.5 -65.5t83.5 -103.5t31.5 -132q0 -63 -15.5 -111t-54.5 -93t-89 -83t-135 -91q-29 -19 -44.5 -29t-38.5 -26t-35 -26.5t-26.5 -25t-22 -27 t-12.5 -28t-5 -31.5q0 -38 29 -70t82 -32q37 0 97 33l16 -8q-28 -58 -40 -91q-32 -7 -73 -7q-61 0 -111.5 17t-83 43.5t-54.5 60.5t-31.5 66.5t-9.5 62.5z" />
<glyph unicode="@" horiz-adv-x="1769" d="M131 703q0 181 68 337.5t185.5 265.5t281.5 171t351 62q158 0 291 -48.5t224.5 -133.5t143 -202.5t51.5 -253.5q0 -118 -35 -227t-93.5 -188t-139.5 -126.5t-169 -47.5q-196 0 -211 175q-17 -34 -40 -63t-54.5 -55.5t-75 -41.5t-93.5 -15q-127 0 -201.5 82.5t-74.5 229.5 q0 49 11.5 100.5t34 101t53 95.5t69.5 85t82.5 68t94 45t101.5 16q75 0 132 -34t74 -103l34 112h159q-99 -318 -133 -441t-34 -171q0 -58 28.5 -82.5t72.5 -24.5q58 1 117 42.5t105 109.5t74.5 161.5t28.5 190.5q0 166 -79.5 295.5t-222 200.5t-325.5 71q-102 0 -198 -28.5 t-176 -79.5t-146.5 -122.5t-112.5 -155t-71.5 -180t-25.5 -195.5q0 -147 48.5 -270.5t135 -211t212 -137t275.5 -49.5q300 0 564 184l35 -60q-142 -102 -299.5 -151.5t-360.5 -49.5q-119 0 -229.5 28.5t-208.5 89.5t-171 147.5t-115 210.5t-42 271zM712 568q0 -54 16 -93.5 t47.5 -61.5t75.5 -22q108 0 175 137q24 49 50 125t44.5 154t18.5 120q0 58 -35.5 93t-83.5 35q-61 0 -120 -51t-99 -126t-64.5 -159t-24.5 -151z" />
<glyph unicode="A" horiz-adv-x="1433" d="M-102 0q22 27 43.5 56.5t43 61t38.5 57.5t40.5 62t38.5 59l159 242q237 360 336 515q195 309 281 471q41 -11 69 -11q43 0 68 11q5 -52 20 -146t29 -170.5t33 -174.5t22 -115q109 -582 206 -918q-113 13 -164 13q-26 0 -50.5 -2t-55 -6t-40.5 -5q-14 140 -24 201 q-42 261 -64 361q-40 0 -118.5 2t-118.5 2q-122 0 -245 -7q-43 -66 -149 -256t-161 -303q-6 1 -22.5 4t-27.5 4.5t-28.5 3t-34.5 1.5q-22 0 -43 -2t-48 -6t-33 -5zM511 677h396q-17 97 -93 495q-68 -115 -303 -495z" />
<glyph unicode="B" horiz-adv-x="1311" d="M78 0q115 462 169.5 736t139.5 779q127 -13 183 -13q47 0 148 6.5t145 6.5q81 0 150 -19t122 -56.5t82.5 -98.5t29.5 -140q0 -55 -15.5 -105t-41.5 -87t-60.5 -68.5t-71.5 -53t-76 -37.5t-72 -24.5t-61 -11.5q0 -1 -1 -2t-1 -2t1 -3.5t1 -4.5q71 -8 129 -31t95 -53.5 t62 -69t36 -77t11 -77.5q0 -42 -8.5 -85.5t-29 -93t-52.5 -93.5t-83 -85.5t-116 -71t-156.5 -47.5t-198.5 -18q-50 0 -150 6.5t-149 6.5q-55 0 -161 -13zM374 102q58 -5 84 -5q209 0 331.5 105.5t122.5 274.5q0 106 -51.5 171.5t-128.5 88.5q-14 3 -29.5 6t-34 4.5 t-44.5 2.5t-55 1.5t-71 0.5q-25 -94 -63 -292.5t-61 -357.5zM517 854q73 0 107.5 1.5t88.5 11t95 28.5q188 92 188 293q0 151 -120 201q-29 12 -58 18t-64 7.5t-108 1.5q-30 -104 -70.5 -284.5t-58.5 -277.5z" />
<glyph unicode="C" horiz-adv-x="1556" d="M168 642q0 47 5.5 95.5t16 98t27 99t39 97.5t52.5 95t66 89q44 53 88.5 95t111.5 87.5t140.5 76t174.5 50t215 19.5q128 0 270.5 -32.5t237.5 -93.5q-24 -45 -38 -76.5t-23 -60.5t-23 -82h-15q-22 29 -34.5 44.5t-39 44t-48.5 45t-57 37.5t-71 32.5t-84 20t-102 8.5 q-20 0 -32.5 -0.5t-39 -2.5t-48 -8t-52 -15t-59 -24.5t-60.5 -36t-65 -51t-64 -67.5q-100 -118 -154 -283t-54 -344q0 -246 120.5 -381.5t325.5 -135.5q49 0 95 6t88 19t77.5 27t72 35t62.5 37t57 41t47.5 39t42.5 37l21 -9q-52 -85 -82 -232q-133 -58 -252.5 -85.5 t-258.5 -27.5q-149 0 -277.5 48t-221 134.5t-145.5 213t-53 277.5z" />
<glyph unicode="D" horiz-adv-x="1678" d="M84 0l51 211q56 231 148 680q77 381 111 624q106 -13 230 -13q51 0 153.5 6.5t153.5 6.5q379 0 540 -196q39 -48 66.5 -102t41 -96t20.5 -94.5t8 -77.5t1 -64q0 -50 -5 -101.5t-23 -125t-47.5 -141t-82.5 -143t-123 -135.5q-47 -42 -92.5 -74t-108 -64.5t-130 -53.5 t-156 -34t-188.5 -13q-60 0 -180 6.5t-180 6.5q-112 0 -208 -13zM389 120q155 -8 206 -8q117 0 217.5 26t171 68t128.5 101.5t94 119t62.5 129t39.5 123t20.5 108.5t8.5 79t1 41q0 105 -35.5 207t-103.5 167q-30 29 -66 50.5t-73.5 34t-69.5 20.5t-70 11t-58.5 4t-49.5 1 q-66 0 -155 -7q-39 -132 -133 -577.5t-135 -697.5z" />
<glyph unicode="E" horiz-adv-x="1063" d="M78 0q39 163 60 252.5t78 360.5t124 624q22 116 44 278q227 -13 235 -13q266 0 538 13q-17 -31 -25 -53t-10.5 -43.5t-2.5 -57.5q-102 13 -166 17t-159 4q-83 0 -157 -4q-50 -205 -118 -517h173q186 0 330 17q-24 -43 -24 -80q0 -12 3 -41.5t3 -37.5q-38 9 -169.5 16.5 t-184.5 7.5h-152q-54 -247 -118 -614q118 0 298.5 6.5t268.5 12.5q-20 -37 -20 -80q0 -36 6 -68q-246 13 -418 13q-89 0 -235 -4.5t-202 -8.5z" />
<glyph unicode="F" horiz-adv-x="1063" d="M71 0q132 508 193 825q8 41 32.5 165t36 185t27 160t22.5 180q173 -13 388 -13q240 0 402 13q-29 -45 -35 -73q-5 -21 -5 -56q0 -12 1 -25q-254 21 -390 21q-59 0 -101 -4q-65 -257 -98 -420l-20 -97q276 0 496 15q-22 -38 -28 -68t-8 -87q-127 22 -230 22h-256l-16 -72 q-15 -65 -81 -430l-42 -241q-60 13 -135 13q-43 0 -153 -13z" />
<glyph unicode="G" horiz-adv-x="1678" d="M162 615q0 108 16 201t53.5 187.5t106 182.5t166.5 169q110 91 267.5 138.5t343.5 47.5q61 0 117.5 -6t102.5 -15t102 -26.5t98 -33t109 -42.5q-32 -37 -53.5 -80t-57.5 -141h-11q-22 32 -41.5 56.5t-60 60.5t-85.5 59t-114 40.5t-149 17.5q-105 0 -197 -35.5t-160.5 -98 t-122.5 -144t-88 -176t-51.5 -192.5t-17.5 -194q0 -111 30.5 -204t88 -161.5t147 -107t202.5 -38.5q123 0 258 44q42 128 63.5 231t45.5 282q76 -13 157 -13q84 0 137 13q-62 -185 -88.5 -305t-48.5 -279q-35 -7 -131.5 -27.5t-146 -29.5t-127 -18t-142.5 -9 q-127 0 -234 26.5t-179.5 69.5t-128.5 102t-88.5 118.5t-53 124t-27.5 113t-7 92.5z" />
<glyph unicode="H" horiz-adv-x="1678" d="M78 0q61 221 95 384l135 671q21 106 32.5 174.5t43.5 285.5q88 -13 140 -13q47 0 153 13q-35 -126 -86 -358l-63 -283q15 0 71.5 -1t84.5 -1h444q28 0 86 1t73 1l58 293q9 45 15.5 82t9.5 58.5t13 90.5t17 117q123 -13 144 -13q51 0 148 13l-24 -95q-53 -193 -77 -318 l-149 -708q-44 -201 -64 -394q-80 13 -141 13q-49 0 -146 -13q32 114 70 281l99 464q-15 0 -72.5 1t-85.5 1h-423q-32 0 -95 -1t-82 -1l-88 -449q-37 -179 -51 -296q-93 13 -142 13q-48 0 -143 -13z" />
<glyph unicode="I" horiz-adv-x="654" d="M76 0q61 221 95 384l135 671q6 29 10.5 53.5t8.5 43.5t8.5 46t7 42.5t8.5 53.5l9 57t11 75.5t13 88.5q88 -13 137.5 -13t155.5 13q-55 -200 -169 -734.5t-145 -780.5q-80 13 -142 13q-48 0 -143 -13z" />
<glyph unicode="J" horiz-adv-x="654" d="M-213 -323q16 43 21 62t8 50q38 3 63 8.5t52.5 18t47 33.5t40.5 55t40 83t38 117q34 116 97 430l63 306q61 309 119 675q101 -13 141 -13q51 0 148 13q-47 -194 -88.5 -381t-61 -286.5t-61.5 -316.5q-20 -100 -32.5 -159.5t-33.5 -155.5t-34 -136q-43 -143 -116.5 -230.5 t-183 -129t-267.5 -43.5z" />
<glyph unicode="K" horiz-adv-x="1311" d="M80 0l61 264q64 274 133 610q73 358 113 641q87 -13 139 -13t153 13q-29 -108 -85 -336t-77 -339q86 72 201 186.5t167 170.5q119 130 274 318q101 -13 150 -13t137 13v-29q-21 -14 -63 -47t-88 -71.5t-93 -78.5t-79.5 -67.5t-45.5 -39.5l-157 -144q-114 -106 -210 -202 q99 -157 146 -228l203 -305q9 -12 30.5 -46t32 -50t30.5 -45.5t34.5 -48.5t33.5 -42.5t38 -43.5l-4 -27q-92 13 -163 13q-77 0 -154 -13l-114 208q-35 63 -80 136.5t-77 122t-90 135.5t-82 124q-54 -273 -70 -367q-6 -37 -20.5 -121.5t-26.5 -153t-14 -84.5q-93 13 -146 13 t-137 -13z" />
<glyph unicode="L" horiz-adv-x="1063" d="M78 0q62 244 93 391q18 88 57.5 274t68.5 330.5t51 276.5q6 38 18 119.5t18 123.5q20 -1 53 -4.5t59.5 -6t47.5 -2.5q19 0 41.5 2t53.5 6t40 5q-27 -76 -132.5 -561.5t-159.5 -818.5q146 0 328 5.5t254 18.5q-1 -3 -7 -16.5t-8 -19.5t-5.5 -18t-5 -22.5t-1.5 -20.5 q0 -28 7 -62q-220 13 -396 13q-243 0 -475 -13z" />
<glyph unicode="M" horiz-adv-x="1923" d="M49 0l119 424q32 111 93 378l49 218q30 133 42.5 202t48.5 293q80 -13 116 -13q40 0 120 13q17 -95 29 -153t50 -201t107 -378q14 -48 38 -136t45 -160t43 -135l106 155q36 50 189.5 281t201.5 307q50 77 136 222t119 198q92 -13 122 -13q43 0 110 13q-50 -185 -133 -595 q-60 -295 -101 -529q-26 -155 -57 -391q-83 13 -152 13q-51 0 -150 -13q65 201 141 536t118 583q-6 -12 -235.5 -369.5t-238.5 -371.5q-15 -25 -28.5 -45.5t-27.5 -43t-22.5 -36.5t-23 -38.5t-21 -35t-24 -40.5t-23.5 -40.5t-28.5 -49.5t-31.5 -53q-26 8 -48 8q-19 0 -49 -8 q-23 87 -44.5 156.5t-96.5 305.5q-20 62 -55.5 180.5t-52.5 173.5q-9 29 -47.5 164.5t-41.5 144.5q-6 -37 -22 -108t-22 -108q-130 -726 -146 -905q-70 13 -113 13q-17 0 -35.5 -2t-41 -6t-31.5 -5z" />
<glyph unicode="N" horiz-adv-x="1678" d="M46 0q45 151 71 243.5t62 234t68 286.5q8 33 25.5 113t23 104t18.5 85.5t17.5 83.5t14.5 71t14 75.5t11 69t12.5 79.5t10.5 81q33 -11 62 -11q35 0 63 11q88 -167 405 -619q150 -209 387 -527l29 142q1 4 23.5 120.5t45.5 241t35 193.5q11 67 24 143t18 105.5t11 67.5 t8.5 63t5.5 59q73 -13 106 -13q36 0 103 13q-71 -227 -133 -484.5t-133 -603.5q-37 -180 -49 -246t-31 -194q-33 11 -63 11q-11 0 -59 -11l-127 199q-30 48 -112 161t-93 128q-84 120 -242.5 338.5t-221.5 307.5q-12 -42 -37 -170.5t-52.5 -278t-30.5 -165.5q-9 -46 -16 -81 t-13 -72.5t-9.5 -58t-10 -63.5t-9 -61.5t-11 -79.5t-12.5 -91q-71 13 -107 13q-39 0 -102 -13z" />
<glyph unicode="O" horiz-adv-x="1883" d="M157 637q0 40 4 84t19 112.5t39.5 134t69.5 143t105 143.5q261 287 695 287q98 0 185.5 -16t156.5 -45.5t126.5 -70t100 -89.5t74 -103t51 -113t29 -116.5t9.5 -115.5q0 -91 -18.5 -182t-58 -180t-96 -169t-136 -148.5t-175 -118t-217 -77.5t-257.5 -28q-114 0 -211.5 22 t-168.5 60t-128 91t-93.5 112t-60.5 126t-34 130t-10 127zM433 595q0 -83 13.5 -155.5t46 -140.5t82.5 -116.5t128.5 -77.5t178.5 -29q284 0 456 230q37 48 71 112t65.5 145.5t50.5 180.5t19 198q0 104 -28 192t-83 156t-144 106.5t-203 38.5q-93 0 -177.5 -28.5t-149.5 -78 t-119 -116t-92 -142.5t-64 -158.5t-38.5 -162t-12.5 -154.5z" />
<glyph unicode="P" horiz-adv-x="1186" d="M78 0q82 352 150 673q112 559 120 601q25 150 36 241q19 -1 54.5 -4.5t65 -6t55.5 -2.5q40 0 138 6.5t154 6.5q39 0 78.5 -6.5t78 -20.5t72.5 -34t63 -49t50.5 -63.5t33.5 -78.5t12 -93q0 -292 -243 -416q-88 -44 -186 -60.5t-246 -16.5h-77q-65 -303 -128 -677 q-98 13 -148 13q-49 0 -133 -13zM507 764h82q82 0 154.5 30t124.5 82.5t82 125.5t30 157q0 51 -10.5 90.5t-24.5 65t-43 43.5t-51 27t-63.5 13.5t-66 5t-73.5 0.5q-64 -247 -141 -640z" />
<glyph unicode="Q" horiz-adv-x="1883" d="M157 637q0 40 4 84t19 112.5t39.5 134t69.5 143t105 143.5q261 287 695 287q98 0 185.5 -16t156.5 -45.5t126.5 -70t100 -89.5t74 -103t51 -113t29 -116.5t9.5 -115.5q0 -114 -29 -226.5t-90.5 -220t-148.5 -195.5t-213 -152.5t-274 -90.5q336 -68 429 -84l263 -47 q-23 -27 -40.5 -55t-29 -56t-18.5 -49.5t-13 -49.5q-25 10 -138 56t-215.5 88t-133.5 53q-30 12 -178 60.5t-203 67.5q-101 7 -188 33t-151 65.5t-115 92t-83.5 109.5t-54.5 121t-31 124t-9 121zM433 595q0 -83 13.5 -155.5t46 -140.5t82.5 -116.5t128.5 -77.5t178.5 -29 q284 0 456 230q37 48 71 112t65.5 145.5t50.5 180.5t19 198q0 104 -28 192t-83 156t-144 106.5t-203 38.5q-93 0 -177.5 -28.5t-149.5 -78t-119 -116t-92 -142.5t-64 -158.5t-38.5 -162t-12.5 -154.5z" />
<glyph unicode="R" horiz-adv-x="1311" d="M78 0l57 249q66 289 143.5 685t105.5 581q143 -13 211 -13q49 0 148 6.5t137 6.5q117 0 208 -39t145 -118.5t54 -187.5q0 -80 -28 -149.5t-86.5 -128.5t-157.5 -99.5t-230 -55.5q60 -112 230 -377t230 -333l-8 -27q-89 13 -162 13q-70 0 -153 -13q-37 77 -88.5 171.5 t-81.5 145.5t-98 165q-14 23 -154 250q-51 -221 -80 -392l-61 -340q-93 13 -142 13q-51 0 -139 -13zM517 819q79 0 132 3.5t95 12t75 24.5q25 12 50 28t55 43.5t52 59t37 77.5t15 96q0 28 -6 56.5t-25.5 64.5t-50.5 63t-87.5 46t-130.5 19h-78l-19 -89q-2 -6 -27.5 -112.5 t-28.5 -126.5z" />
<glyph unicode="S" horiz-adv-x="1229" d="M19 110q32 58 47.5 91.5t26 69t21.5 92.5h48q36 -136 133.5 -208.5t240.5 -72.5q68 0 124 22.5t89.5 55.5t56.5 75t32 78t9 67t-7.5 59t-18 50t-28.5 43.5t-33.5 36t-40.5 31.5t-40.5 26.5t-41.5 23.5q-17 11 -40 23t-42 21.5t-41.5 21.5t-40.5 23q-216 125 -216 347 q0 50 12 101.5t37 103.5t69 98.5t102 77.5q47 24 92 39t89.5 20.5t70.5 7t69 1.5q186 0 422 -123q-33 -56 -53.5 -105t-27 -73t-11.5 -57h-35q-26 112 -110 182t-213 70q-38 0 -76 -8.5t-77.5 -29.5t-70 -51.5t-50 -79.5t-19.5 -110q0 -23 4 -43t14 -38.5t19 -32.5t28.5 -31 t33 -27.5t41.5 -27.5t44 -26.5t51 -28.5q17 -9 57.5 -31t66 -37t59 -36.5t60 -45t45.5 -48.5q44 -57 60.5 -110.5t16.5 -128.5q0 -108 -44 -200.5t-118.5 -155.5t-175.5 -98t-213 -35q-82 0 -155.5 10t-121 22.5t-97.5 35t-73 36t-60 37.5z" />
<glyph unicode="T" horiz-adv-x="1269" d="M188 1365q24 50 30 74.5t6 75.5q194 -13 555 -13q388 0 646 13q-40 -64 -40 -117q0 -22 2 -33q-278 17 -445 17q-21 -100 -76 -346.5t-74 -336.5q-60 -285 -127 -699q-89 13 -148 13q-57 0 -141 -13q16 50 37 132t34 140.5t35 158.5t27 120q106 471 168 831l-177 -2 q-46 0 -99 -2.5t-114 -6.5t-99 -6z" />
<glyph unicode="U" horiz-adv-x="1678" d="M184 403q0 116 97 555q34 159 95 557q93 -13 148 -13q52 0 149 13q-94 -380 -101 -407q-82 -365 -106.5 -495t-24.5 -208q0 -40 10 -79.5t31.5 -78t61 -70.5t91.5 -51q48 -18 87 -23.5t105 -5.5q123 0 212.5 32.5t153 101.5t104 164.5t68.5 233.5q40 193 70 352t47 265.5 t42 268.5q58 -13 95 -13q38 0 88 13q-29 -111 -90 -371t-100 -447v-1q-16 -78 -24 -115t-23 -99t-27 -93.5t-31.5 -79t-40.5 -76t-50 -63t-64.5 -62t-79.5 -53.5q-47 -28 -110 -47.5t-122 -27.5t-95 -10.5t-58 -2.5q-142 0 -238.5 20t-194.5 84q-175 117 -175 332z" />
<glyph unicode="V" horiz-adv-x="1393" d="M215 1515q106 -13 161 -13q57 0 146 13q80 -602 204 -1183l61 119l125 226q154 283 289 557q10 21 38 82t55 120.5t35 78.5q72 -13 111 -13q35 0 120 13q-69 -104 -201.5 -321.5t-216.5 -368.5q-203 -362 -247 -445q-95 -180 -123.5 -241t-59.5 -141q-54 13 -93 13 q-14 0 -30.5 -2t-36.5 -6t-30 -5q-48 344 -133 745q-130 599 -174 772z" />
<glyph unicode="W" horiz-adv-x="2129" d="M213 1515q126 -13 156 -13q59 0 146 13q12 -159 64 -568.5t84 -583.5q123 243 172.5 342t134.5 274.5t138 298.5t95 237q54 -13 88.5 -13t93.5 13q33 -386 77 -675l73 -479q51 81 111 195t89 174t86 182q33 69 271 603q84 -13 107 -13q37 0 112 13q-42 -58 -190.5 -323.5 t-331.5 -619t-276 -572.5q-5 1 -20.5 4.5t-33 6t-32.5 2.5q-13 0 -32 -2.5t-38.5 -6.5t-22.5 -4q-24 147 -51 372q-22 179 -111 732q-129 -236 -306 -604t-227 -500q-2 0 -13.5 2.5t-22 4.5t-25.5 4t-27 2q-17 0 -47 -6t-44 -7q-9 67 -32.5 252t-38.5 286q-16 106 -45 274 t-65 362.5t-66 340.5z" />
<glyph unicode="X" horiz-adv-x="1351" d="M-59 0q237 256 293 319q299 330 372 415q-22 53 -47.5 110t-51 111t-46 96.5t-44.5 91.5t-35 71q-26 56 -78 158t-72 143q102 -13 164 -13q42 0 140 13q16 -35 69.5 -162t105.5 -249.5t68 -156.5q205 250 245 303q92 118 196 265q67 -13 120 -13q57 0 133 13 q-58 -61 -226 -247l-143 -158q-164 -182 -259 -291q50 -126 170 -376q135 -275 182 -377l31 -66q-86 13 -149 13q-65 0 -155 -13q-46 121 -257 615q-316 -400 -479 -615q-71 13 -122 13q-56 0 -125 -13z" />
<glyph unicode="Y" horiz-adv-x="1269" d="M184 1515q110 -13 156 -13q49 0 145 13l41 -135q50 -171 84 -276q97 -286 118 -346q69 96 105.5 151.5t124.5 196.5q70 112 236 409q94 -13 117 -13q18 0 38 2.5t44.5 6t37.5 4.5q-23 -33 -94 -130t-155.5 -210t-92.5 -124q-41 -56 -150.5 -216t-161.5 -240l-36 -194 q-49 -274 -68 -401q-76 13 -139 13q-77 0 -150 -13q17 63 79.5 326.5t62.5 268.5q0 20 -130 370.5t-212 549.5z" />
<glyph unicode="Z" horiz-adv-x="1393" d="M-22 0q5 17 5 29q0 7 -5 24q144 166 224 262.5t278 345.5q99 125 231 298t220 291t95 130q-172 0 -267 -1t-242.5 -7t-267.5 -19q22 49 27 76q5 19 11 86q16 0 303 -6.5t317 -6.5q25 0 268 6t269 7q-4 -21 -4 -27q0 -15 2 -21q-90 -103 -279 -331.5t-291 -365.5 q-111 -146 -246 -316q-28 -37 -74.5 -97.5t-94 -122t-77.5 -99.5h198q324 0 680 33q-18 -40 -25.5 -68.5t-18.5 -99.5q-250 13 -541 13q-465 0 -695 -13z" />
<glyph unicode="[" horiz-adv-x="696" d="M15 -261q18 56 36.5 126.5t27 109t29.5 136.5t25 117q61 279 96.5 446t84 417t64.5 384q8 58 11 89q86 -7 223 -7q126 0 239 7q-10 -18 -13 -30t-9 -48q0 -3 -0.5 -4.5t-0.5 -4t-1 -4.5q-75 4 -154 4q-55 0 -80 -2q-63 -239 -102 -407q-7 -32 -25.5 -110.5t-31 -135 t-20.5 -110.5q-18 -99 -68 -347t-70 -376q-3 -22 -19 -164q21 0 64.5 1.5t99 4t73.5 3.5q-18 -39 -22 -53t-5 -42q-117 6 -294 6q-79 0 -158 -6z" />
<glyph unicode="\" horiz-adv-x="859" d="M184 1564h145l439 -1628h-147z" />
<glyph unicode="]" horiz-adv-x="696" d="M-110 -261q10 17 13 29t9 49q1 8 2 12q75 -4 154 -4q55 0 80 2q63 240 101 407q8 33 26.5 111t31 135t20.5 111q17 98 67.5 346.5t69.5 376.5q9 61 21 163l-238 -8q18 38 22 52t5 43q117 -7 294 -7q78 0 158 7q-18 -56 -36.5 -127t-27 -109.5t-29.5 -136.5t-25 -116 q-61 -279 -97 -446.5t-84 -417.5t-64 -384q-9 -57 -11 -88q-86 6 -223 6q-126 0 -239 -6z" />
<glyph unicode="^" horiz-adv-x="1475" d="M274 564l429 918h160l429 -918h-167l-342 743l-342 -743h-167z" />
<glyph unicode="_" horiz-adv-x="1105" d="M0 -166h1106v-110h-1106v110z" />
<glyph unicode="`" d="M175 1588q0 39 28 61.5t67 22.5q24 0 44 -10t30 -21t28 -34q4 -5 6 -8l243 -318h-85l-293 205q-42 30 -55 52t-13 50z" />
<glyph unicode="a" horiz-adv-x="1063" d="M33 234q0 158 126 255q52 40 114.5 60.5t144.5 34.5l211 40q39 8 53.5 21t18.5 36l14 73q4 34 4 56q0 148 -185 148q-29 0 -58.5 -6t-66 -21.5t-69 -49.5t-53.5 -83q-32 14 -63 16q16 45 22 76t11 92q24 14 44.5 24.5t47.5 22.5t55 20.5t60.5 15.5t71 10.5t81.5 3.5 q163 0 251 -73t88 -185q0 -19 -6 -54.5t-14.5 -74t-8.5 -42.5l-78 -347q-20 -100 -20 -132q0 -85 66 -85q31 0 74 26q7 -32 25 -61q-38 -23 -66.5 -36t-64.5 -21.5t-76 -8.5q-74 0 -115.5 37.5t-56.5 110.5q-136 -158 -303 -158q-48 0 -89 10.5t-71 28.5t-53 42.5t-37 53.5 t-21.5 60.5t-7.5 63.5zM264 249q0 -24 7.5 -48t22.5 -45.5t43.5 -34.5t65.5 -13q47 0 86.5 19t64.5 47t44.5 67.5t29 73.5t16.5 72l27 155l-118 -25q-29 -6 -46 -10t-51.5 -15t-56.5 -22.5t-50.5 -33t-45 -46.5t-28 -61t-11.5 -80z" />
<glyph unicode="b" horiz-adv-x="1311" d="M51 0q87 350 200 877t138 762q96 -14 145 -14q19 0 38.5 2t27 2.5t32 5t25.5 4.5q-20 -68 -79 -318l-91 -399q13 15 28.5 30t50 39.5t72 42.5t93 31.5t114.5 13.5q90 0 164 -33t121.5 -89.5t73.5 -131.5t26 -160q0 -239 -146 -448q-31 -44 -75.5 -85t-103.5 -78t-135 -59 t-155 -22q-126 0 -203 42.5t-129 123.5q-125 -89 -169 -139q-21 4 -30 4q-12 0 -33 -4zM372 291q0 -11 4.5 -37t11.5 -47t22.5 -47.5t37 -44t55.5 -30t77 -12.5q65 0 120.5 28.5t95 73.5t71 104.5t51 119.5t32.5 120.5t18 105.5t5 76q0 68 -18 120.5t-48.5 82t-67 44 t-78 14.5t-79 -11t-64.5 -27t-53 -43t-41.5 -48t-33 -54t-24.5 -50t-19 -45q-20 -52 -47.5 -169.5t-27.5 -200.5v-23z" />
<glyph unicode="c" horiz-adv-x="1105" d="M102 454q0 68 12 134t37.5 128t63 116.5t89.5 100t115 78t142.5 50.5t168.5 18q176 0 387 -81q-34 -58 -49.5 -101t-32.5 -110h-39q-9 22 -14.5 34.5t-18 35.5t-24.5 37.5t-32 32t-42.5 28t-54 18t-67.5 7.5q-67 0 -124.5 -25.5t-98.5 -68.5t-72.5 -98.5t-50.5 -118.5 t-28.5 -125t-9.5 -122q0 -84 22 -149.5t60 -105.5t86.5 -60.5t103.5 -20.5q17 0 33 1t54.5 8.5t73 21t79.5 41.5t83 68l34 -18q-22 -50 -55 -157q-164 -78 -336 -78q-227 0 -361 126t-134 355z" />
<glyph unicode="d" horiz-adv-x="1311" d="M95 414q0 125 32.5 233.5t88 187t129 135t157 84t171.5 27.5q112 0 183 -35t135 -126q26 106 73 365q7 44 29.5 166t31.5 188q79 -14 131 -14q70 0 139 14q-91 -334 -183 -767q-54 -246 -148 -787q-10 -56 -15 -85q-54 13 -118 13q-60 0 -126 -13q6 26 13 51.5t12 44.5 t10 43q-63 -73 -156 -118.5t-188 -45.5q-67 0 -124 16t-97 42.5t-72 63t-52 75.5t-33 83t-18 82.5t-5 76.5zM348 354q0 -16 0.5 -28.5t4.5 -41.5t11 -51.5t22 -50t35.5 -46t54 -31t75.5 -12.5q60 0 113 24t91.5 64t70.5 93t52.5 109.5t34.5 115t20.5 108.5t6.5 92t-6 79 t-21 73t-37.5 61.5t-58 41t-80.5 15.5q-66 0 -122 -25.5t-95 -67t-70 -97.5t-49.5 -113t-31 -117.5t-17 -108t-4.5 -86.5z" />
<glyph unicode="e" horiz-adv-x="1186" d="M99 456q0 259 162 435q36 39 75.5 69.5t73 50t72.5 33.5t66 20.5t61.5 10t50.5 4t41 0.5q28 0 59.5 -4.5t72.5 -17t78.5 -32.5t74.5 -54t64 -77.5t43.5 -107.5t16.5 -140q0 -55 -8 -127q-305 5 -456 5q-49 0 -146 -1t-146 -1q-6 -47 -6 -87q0 -160 84 -251t233 -91 q55 0 105 11.5t91 34t63.5 38.5t52.5 40l30 -23q-38 -48 -60 -135q-27 -24 -131 -54t-221 -30q-234 0 -365 125.5t-131 355.5zM369 619h492q9 39 12 64.5t3 82.5q0 26 -3.5 51.5t-16 58t-32.5 56t-56 40t-84 16.5q-45 0 -85 -16t-68.5 -39.5t-54 -60.5t-41 -67t-31 -72 t-21.5 -63t-14 -51z" />
<glyph unicode="f" horiz-adv-x="696" d="M95 0q31 124 76 320.5t84 377t48 239.5q-112 0 -185 -6q12 37 16 55.5t7 55.5q15 0 44.5 -1t44.5 -1h93q9 57 19 103t27.5 104.5t46 115t66.5 106.5q136 177 301 177q32 0 57.5 -2.5t41.5 -5t58 -10.5q-51 -116 -58 -208l-26 -25q-34 24 -56 38t-58 28t-67 14 q-14 0 -26 -1t-35 -11t-39 -27.5t-28.5 -54.5t-12.5 -87q0 -10 15 -161l8 -93q180 0 228 2q-13 -34 -17.5 -53.5t-9.5 -57.5q-120 6 -121 6h-88q-38 -110 -91.5 -383t-96.5 -554q-80 13 -133 13q-24 0 -46 -2t-52.5 -6t-34.5 -5z" />
<glyph unicode="g" horiz-adv-x="1146" d="M-29 -289q0 60 20 111t58.5 90.5t80.5 68t98 57.5q-50 20 -79 61.5t-29 94.5q0 41 17.5 78t47.5 65.5t63 49.5t71 37q-73 40 -115 107.5t-42 154.5q0 29 6.5 62t23 71.5t40 75t60.5 70t82.5 59t108 40.5t134.5 15q89 0 151 -15q8 -2 26.5 -7t30 -8.5t25 -6t19.5 -2.5 q80 0 159 7q106 4 160 4q-2 -14 -5 -28.5t-4 -22.5t-2.5 -16.5t-2.5 -13t-1.5 -10.5t-0.5 -11v-12l-201 12q25 -40 37 -62t25.5 -64t13.5 -84q0 -24 -4.5 -51t-18 -64t-34 -71.5t-56.5 -69t-82.5 -59.5t-115 -41t-150.5 -16q-69 0 -122 11q-48 11 -59 11t-27 -9t-31.5 -24 t-26 -37.5t-10.5 -46.5q0 -16 1.5 -28t8 -21.5t12.5 -16t21.5 -11.5t29 -7.5t41.5 -5.5t51.5 -4t66.5 -3q12 -1 39 -1.5t41 -1t38.5 -2.5t40 -3.5t37.5 -5.5t39 -8.5t36.5 -11t37.5 -15.5q43 -20 73.5 -51.5t45 -65.5t20.5 -62.5t6 -54.5q0 -65 -25 -132t-74.5 -128.5 t-116.5 -110t-159.5 -77t-196.5 -28.5q-71 0 -132.5 9.5t-107 26.5t-82 40t-61 49.5t-40.5 55.5t-23 57t-7 57zM148 -249q0 -47 18 -89t52.5 -76t91.5 -53.5t128 -19.5q41 0 81.5 7.5t79.5 22.5t72.5 38t59 52.5t40 68.5t14.5 83q0 39 -6.5 69.5t-23.5 53t-34 38t-51.5 26 t-62.5 16t-80 8.5t-89.5 3.5t-105.5 0.5q-36 0 -79.5 -39t-74 -98.5t-30.5 -111.5zM401 642q0 -199 158 -199q49 0 89 18t65.5 45.5t45.5 65t30 71.5t16 70t7.5 56t1.5 33q0 89 -40 141.5t-126 52.5q-50 0 -92.5 -22.5t-70.5 -58.5t-47.5 -83t-28 -95t-8.5 -95z" />
<glyph unicode="h" horiz-adv-x="1269" d="M44 0q26 84 51.5 185.5t41 176t40.5 193.5t38 179q71 330 95.5 460.5t62.5 370.5q7 48 11 74q86 -14 140 -14q49 0 124 14q-2 -12 -7.5 -35t-7.5 -36l-158 -677q84 91 167 138.5t192 47.5q86 0 150 -22t99.5 -60t52 -82t16.5 -94q0 -55 -7.5 -99t-40.5 -194 q-14 -63 -24.5 -110t-19.5 -90.5t-14 -67t-12 -64t-9.5 -54.5t-11.5 -66.5t-13 -73.5q-67 13 -126 13q-60 0 -146 -13q49 171 115 441.5t66 332.5q0 48 -20.5 84t-57 54.5t-84.5 18.5q-67 0 -127 -29t-99.5 -73.5t-60.5 -98.5q-33 -86 -78 -302.5t-81 -427.5q-73 13 -139 13 q-61 0 -118 -13z" />
<glyph unicode="i" d="M44 0q113 469 145.5 626t76.5 433q113 -12 135 -12q46 0 125 12q-5 -24 -22.5 -101.5t-36 -156.5t-22.5 -98q-73 -344 -142 -703q-8 1 -33.5 5t-47 6t-45.5 2q-22 0 -44.5 -2t-50 -6t-38.5 -5zM319 1431q0 60 43.5 102t99.5 42q55 0 98.5 -42t43.5 -102q0 -57 -42 -100.5 t-100 -43.5q-59 0 -101 44t-42 100z" />
<glyph unicode="j" d="M-179 -489q29 7 46.5 13t38.5 17.5t34 25.5t29 37.5t27.5 54t25.5 75.5t27 100.5t29 129.5q15 73 47 222.5t51 239.5t44 217.5t44 234.5q18 105 21 181q67 -12 126 -12q68 0 138 12q-34 -121 -66.5 -267t-47 -218.5t-51.5 -259.5q-41 -211 -69 -334t-57.5 -202.5 t-54 -117t-68.5 -82.5q-63 -65 -130.5 -97.5t-154.5 -50.5q-6 41 -29 81zM340 1431q0 60 45 102t102 42q55 0 98.5 -42t43.5 -102q0 -56 -42.5 -100t-101.5 -44q-58 0 -101.5 43.5t-43.5 100.5z" />
<glyph unicode="k" horiz-adv-x="1186" d="M46 0q8 31 19.5 76.5t19.5 79t18.5 76.5t19 79t17.5 77t17 79q23 115 75 365.5t89 441t66 365.5q91 -14 137 -14q49 0 124 14q-33 -126 -80 -343l-81 -374q-4 -19 -15.5 -69.5t-17.5 -77.5t-14 -68t-13 -76l16 -10q31 10 101.5 62.5t150.5 121.5t141 124t99 91l42 39 q102 -12 116 -12q45 0 114 12l7 -12q-65 -46 -182 -133.5t-171 -126.5l-211 -150q76 -123 262 -382q29 -42 89 -127.5t90 -127.5q-110 13 -156 13q-67 0 -150 -13q-146 246 -239 384q-39 59 -57 86t-32.5 45.5t-19.5 22.5t-10 4q-14 0 -22 -11q-4 -5 -13.5 -52t-25 -126.5 t-24.5 -122.5q-11 -57 -39 -230q-97 13 -139 13t-118 -13z" />
<glyph unicode="l" d="M46 0q8 31 19.5 76.5t19.5 79t18.5 76.5t19 79t17.5 77t17 79q15 79 38 193.5t40 198.5t38.5 192.5t39 198t36.5 193t35 196.5q96 -14 140 -14t126 14q-70 -286 -181 -810q-78 -356 -93 -445q-6 -34 -30.5 -171.5t-35.5 -212.5q-83 13 -135 13q-40 0 -129 -13z" />
<glyph unicode="m" horiz-adv-x="1923" d="M53 0q31 117 48.5 191.5t66.5 310.5q81 377 108 557q11 0 56 -6t71 -6q60 0 123 12q-20 -69 -39 -164q24 27 40 43.5t53 45.5t72 46t88 31t111 14q38 0 71 -6t58 -18t45 -24.5t35 -31t25.5 -33t18.5 -35t12 -32t9 -28.5q48 56 83 89t82 63t103 43t129 13q31 0 64 -5.5 t73.5 -23t71 -45.5t51.5 -77.5t21 -113.5q0 -96 -60 -343q-51 -215 -91 -467q-84 13 -135 13q-42 0 -135 -13q74 279 108 416q44 172 57 236t13 106q0 82 -44.5 128.5t-126.5 46.5q-37 0 -69 -9.5t-57 -24t-48 -41t-39.5 -51t-32.5 -64.5t-26.5 -71.5t-23 -81.5t-20 -84.5 t-18.5 -89.5q-3 -18 -23 -117.5t-37 -186t-22 -112.5q-71 13 -128 13q-68 0 -128 -13q168 664 168 770q0 161 -166 161q-88 0 -161.5 -68t-103.5 -173q-82 -281 -142 -690q-80 13 -128 13q-34 0 -131 -13z" />
<glyph unicode="n" horiz-adv-x="1269" d="M49 0q22 75 32 117.5t37 169.5l106 496q32 154 46 276q80 -12 117 -12q18 0 40.5 2t50.5 5.5t44 4.5q-2 -5 -21 -77t-21 -87q160 180 367 180q35 0 71 -5.5t80 -23t76.5 -44.5t55 -76t22.5 -112q0 -57 -13 -117l-46 -215q-74 -348 -91 -482q-86 13 -139 13 q-49 0 -133 -13q75 261 97 363l47 205q31 137 31 209q0 68 -45.5 111t-125.5 43q-160 0 -254 -165q-12 -22 -21.5 -44.5t-15 -37t-15 -55t-13 -56t-16.5 -82.5l-43 -199q-20 -97 -50 -292q-13 1 -38 5t-46 6t-41 2q-35 0 -132 -13z" />
<glyph unicode="o" horiz-adv-x="1311" d="M95 429q0 54 11 113.5t35 123.5t59 123.5t87 113t115 93t146.5 62.5t177.5 23q109 0 196.5 -28.5t141.5 -74t90 -107t50 -121t14 -121.5q0 -59 -11 -120.5t-36 -125.5t-61 -123t-90 -111.5t-119 -90.5t-151 -60.5t-184 -22.5q-136 0 -242.5 55.5t-167.5 159t-61 239.5z M345 327q0 -30 3.5 -58.5t12.5 -59.5t25.5 -56t40 -45.5t59.5 -32t80 -11.5q59 0 112.5 25t93 66.5t73 97.5t56 116.5t38.5 123.5t23 119t7 103q0 60 -11.5 108t-36.5 87.5t-70 61.5t-108 22q-64 0 -120 -28t-95.5 -73t-72 -105t-52.5 -123t-33.5 -127.5t-19 -116.5 t-5.5 -94z" />
<glyph unicode="p" horiz-adv-x="1311" d="M-64 -570q33 115 97.5 402t97.5 449q15 73 25 124.5t21 108t16.5 85.5t17.5 93.5t17 93t22 124.5t26 149q13 -1 38.5 -4.5t46 -5.5t38.5 -2q28 0 120 12l-34 -137q156 162 349 162q28 0 58 -4.5t64 -14t66 -27.5t63.5 -42t57 -60t45.5 -79.5t31 -102t11 -125.5 q0 -140 -46.5 -262t-125 -206t-183.5 -132t-221 -48q-59 0 -107.5 10.5t-78.5 24t-59 38.5t-42.5 41.5t-34.5 45.5q-54 -266 -133 -711q-16 1 -43 4.5t-49.5 6t-42.5 2.5q-21 0 -42.5 -2t-48.5 -6t-37 -5zM384 348q0 -123 56 -189t157 -66q53 0 100 18t82.5 50t66 73.5 t51.5 91t37 99.5t25 101.5t13.5 96t4.5 82.5q0 34 -4 64.5t-13.5 61t-25.5 55t-37.5 43.5t-52 29.5t-67.5 10.5q-58 0 -109 -22t-90 -59.5t-71.5 -88t-55 -107t-37.5 -117t-22.5 -118t-7.5 -109.5z" />
<glyph unicode="q" horiz-adv-x="1311" d="M99 451q0 85 20 165.5t56 149.5t89 127t117 99t141.5 64t161.5 23q107 0 190.5 -43t129.5 -131q14 67 24 154q89 -12 137 -12q47 0 109 12l-22 -82l-12.5 -51.5t-32.5 -137.5t-42.5 -183.5t-46 -206.5t-39.5 -190q-73 -365 -144 -778q-84 13 -127 13q-47 0 -127 -13 l155 694q-24 -23 -38 -35.5t-49.5 -38t-67.5 -39.5t-81.5 -26t-101.5 -12q-83 0 -150.5 25.5t-113 70t-76.5 106t-45 130.5t-14 146zM352 374q0 -288 214 -288q57 0 109 25t92.5 68t74 101.5t55 125.5t33.5 139.5t12 144.5q0 285 -218 285q-63 0 -118.5 -31t-95 -82.5 t-70.5 -115t-50 -131.5t-28.5 -129.5t-9.5 -111.5z" />
<glyph unicode="r" horiz-adv-x="817" d="M51 0l27 102q97 367 194 957q14 -1 40.5 -4.5t48.5 -5.5t42 -2q45 0 116 12q-39 -154 -55 -245q32 43 48.5 64.5t45 55.5t47.5 51t47.5 39t54.5 32t59.5 17.5t69.5 7.5q24 0 67 -11q-19 -71 -25 -96t-11 -59t-8 -83l-19 -5q-41 29 -93 29q-196 0 -291 -191 q-48 -96 -118 -475l-35 -190q-71 13 -119 13q-20 0 -42 -2t-49 -6t-42 -5z" />
<glyph unicode="s" horiz-adv-x="941" d="M2 68q27 41 38.5 70t45.5 143h38q4 -19 7 -30t12 -35t19 -39.5t29 -36t41 -33t55.5 -21t73.5 -8.5q44 0 82.5 8.5t72 27.5t53.5 53t20 80q0 19 -2.5 34t-10 29.5t-13.5 24.5t-22.5 23t-27.5 21.5t-37 23t-42.5 23.5t-53.5 27q-3 2 -4 3q-8 4 -23 12q-30 15 -44.5 22.5 t-38.5 21.5t-35.5 24t-28.5 25.5t-25.5 31.5t-17 36.5t-12 45t-3.5 53.5q0 80 35 147.5t92.5 110.5t130 67t149.5 24q91 0 156 -18t156 -61q-33 -66 -45.5 -96.5t-27.5 -87.5h-36q-9 25 -16 42t-24 43t-36.5 42t-52.5 28.5t-74 12.5q-50 0 -94.5 -17t-74.5 -53.5t-30 -86.5 q0 -20 4 -37t9 -30t19 -26.5t24.5 -22.5t35.5 -23.5t41.5 -23t52.5 -27.5q15 -7 44.5 -21.5t44.5 -22.5t40.5 -21.5t39.5 -24.5t32.5 -27t29 -32t20.5 -37t14.5 -45t4.5 -52q0 -73 -24 -135t-66 -105.5t-98.5 -74t-121.5 -45t-135 -14.5q-182 0 -365 90z" />
<glyph unicode="t" horiz-adv-x="735" d="M131 931q11 35 14.5 54.5t6.5 58.5q54 -4 78 -4h93q18 104 49 256q143 34 285 120q-58 -202 -93 -376h75q15 0 73 2t67 2q-15 -47 -27 -113q-40 5 -71 5.5t-141 0.5l-38 -173q-60 -271 -67 -306q-8 -40 -19 -117t-11 -100q0 -10 0.5 -17.5t3 -24.5t7 -29t14 -27.5 t22.5 -25.5t34 -17t48 -7q28 0 58.5 10t88.5 36l5 -6q-2 -5 -6 -16t-5 -13.5t-3.5 -11t-3 -13.5t-1.5 -13.5t-2 -19.5q-52 -27 -110 -43t-89.5 -19t-56.5 -3q-114 0 -184.5 58.5t-70.5 150.5q0 52 21 142l74 345q48 214 57 260q-122 0 -175 -6z" />
<glyph unicode="u" horiz-adv-x="1269" d="M120 234q0 30 6 76.5t17 103.5t20.5 102.5t22 100.5t15.5 71q43 197 69 371q96 -12 129 -12q73 0 143 12q-27 -95 -60.5 -220.5t-73 -305t-39.5 -246.5q0 -163 159 -163q51 0 94.5 15.5t73.5 37t56.5 57t41.5 63.5t29 68.5t19 60t12 49.5q72 298 115 584q80 -12 124 -12 q46 0 131 12q-54 -203 -69 -285l-104 -498q-40 -187 -47 -276q-92 13 -119 13q-39 0 -131 -13q8 26 46 164q-49 -46 -87.5 -76.5t-86.5 -58.5t-99.5 -41t-110.5 -13q-60 0 -113 17t-94 48.5t-65 81.5t-24 112z" />
<glyph unicode="v" horiz-adv-x="1063" d="M102 1059q113 -12 150 -12q46 0 128 12q2 -17 6.5 -51.5t7 -56.5t7 -55.5t8.5 -60t8.5 -57t10 -59.5t10.5 -56q15 -71 35 -196l44 -250q137 249 231.5 437.5t184.5 404.5q93 -12 111 -12q33 0 100 12q-136 -196 -479 -791q-18 -32 -44.5 -82t-54 -104t-42.5 -82 q-67 13 -99.5 13t-99.5 -13q-22 138 -101 536q-69 329 -122 523z" />
<glyph unicode="w" horiz-adv-x="1720" d="M120 1059q6 0 63 -6t81 -6q51 0 118 12l14 -112q31 -254 44.5 -354t50.5 -346q79 142 125 229.5t119 241.5t152 341q71 -12 93 -12q23 0 95 12q19 -219 73 -504l57 -306q23 48 85.5 171t85.5 171q26 53 55 118t49 112t51.5 123.5t47.5 114.5q63 -12 97 -12q15 0 35.5 2.5 t41 6t26.5 3.5l-137 -240q-167 -290 -228 -408q-10 -19 -102.5 -198.5t-110.5 -212.5q-76 13 -95 13q-36 0 -93 -13q-52 385 -133 750q-148 -269 -204.5 -382.5t-173.5 -367.5q-11 1 -31 5t-36.5 6t-31.5 2q-33 0 -100 -13q-29 244 -73 482q-8 45 -93 487z" />
<glyph unicode="x" horiz-adv-x="1063" d="M-73 0q247 235 502 500q-136 262 -298 559q3 0 65.5 -6t92.5 -6q52 0 131 12q76 -192 175 -375q78 87 113 127t86.5 105.5t106.5 142.5q79 -12 119 -12q43 0 113 12q-54 -49 -144.5 -138t-159 -158t-90.5 -92l-93 -96q224 -421 312 -575q-107 13 -150 13q-47 0 -143 -13 q-158 352 -180 394q-59 -65 -110.5 -126t-86.5 -105t-129 -163q-73 13 -115 13q-25 0 -117 -13z" />
<glyph unicode="y" horiz-adv-x="1063" d="M15 -570q17 24 55.5 76.5t60 83t52 75.5t54.5 83q7 13 40 64t59.5 92t26.5 45q0 10 -23 110.5t-44 181.5l-108 451q-16 69 -93 367q26 -1 78 -6.5t76 -5.5q57 0 127 12q6 -42 14 -92t14.5 -88.5t18.5 -102.5t18 -95t21.5 -109.5t20 -102t23 -116t22.5 -110.5 q273 479 403 816q84 -12 101 -12q16 0 33 1.5t41 6t29 4.5l-261 -435q-230 -385 -385 -662q-200 -360 -276 -532q-67 13 -95 13q-32 0 -103 -13z" />
<glyph unicode="z" horiz-adv-x="1105" d="M-27 0q5 27 5 36q0 4 -1.5 11.5t-1.5 11.5q53 51 151 158q74 82 332 382q126 146 167.5 197t102.5 131q-364 0 -566 -26q10 31 14 49.5t5.5 37t4.5 71.5q14 0 186.5 -6t313.5 -6q227 0 426 12q-6 -16 -6 -35q0 -15 2 -22q-27 -30 -105.5 -115.5t-120.5 -132.5 q-108 -123 -275.5 -320.5t-250.5 -300.5q52 0 149.5 1.5t244.5 9t217 18.5q-26 -104 -34 -162q-165 13 -387 13q-249 0 -573 -13z" />
<glyph unicode="{" horiz-adv-x="884" d="M131 617l19 100q90 4 150 23.5t99 61.5t60.5 97.5t38.5 144.5l28 153q12 66 35.5 119.5t53.5 91.5t69 66t78.5 45t88 27.5t91.5 14t93 3.5l-20 -100q-50 0 -91 -10.5t-71 -27.5t-54.5 -45t-40 -55.5t-29 -67t-21 -72t-16.5 -76.5l-29 -152q-10 -54 -29.5 -98.5t-41 -73.5 t-53 -52t-55 -35t-57.5 -21t-51 -12t-44 -6q-6 -1 -9 -1q215 -63 215 -239q0 -46 -27 -194q-29 -138 -29 -204q0 -52 18 -89.5t48.5 -57t62.5 -28.5t66 -9l-20 -99q-182 0 -269 73.5t-87 209.5q0 80 28 206q2 6 8 40t8 44.5t5.5 34.5t4.5 40.5t1 32.5q0 41 -14.5 73.5 t-36.5 53t-53.5 36t-60 22.5t-60.5 12z" />
<glyph unicode="|" horiz-adv-x="490" d="M166 -553v2212h159v-2212h-159z" />
<glyph unicode="}" horiz-adv-x="884" d="M-102 -261l20 99q44 0 81 7.5t65.5 23t51.5 34t40.5 45.5t30.5 53t23 60.5t17 63.5t14 67l29 153q10 54 29.5 98.5t41 73.5t53 51.5t55 34.5t57.5 21.5t51 12t44 6.5h3.5t3 0.5t2.5 0.5q-214 62 -214 238q0 62 28 195q27 148 27 204q0 51 -18 88.5t-48 57.5t-61.5 28.5 t-66.5 8.5l19 100q182 0 269.5 -73.5t87.5 -209.5q0 -58 -27 -206q-28 -127 -28 -193q0 -40 14.5 -73t36.5 -53.5t53 -35.5t59.5 -22.5t60.5 -11.5l-19 -100q-90 -4 -149.5 -23t-99 -61t-61 -98t-38.5 -145l-28 -153q-12 -66 -35.5 -120t-53 -91.5t-69 -66t-79 -45 t-87.5 -27t-91.5 -14t-93.5 -3.5z" />
<glyph unicode="~" horiz-adv-x="1475" d="M129 382q4 64 24 122t54.5 104.5t88.5 74t120 27.5q45 0 106 -13.5t110 -29t118 -41.5q81 -30 120.5 -43.5t97 -28t96.5 -14.5q74 0 118 50.5t55 133.5h110q-4 -64 -24.5 -122t-55 -104.5t-88.5 -74t-120 -27.5q-64 0 -145 22.5t-188 63.5q-110 41 -184 62.5t-131 21.5 q-28 0 -55.5 -10.5t-53 -31.5t-42.5 -57.5t-21 -84.5h-110z" />
<glyph unicode="&#xa1;" horiz-adv-x="654" d="M0 -314q0 40 14 87t45 130l266 694h42l-57 -751q-3 -31 -4 -45.5t-4.5 -43.5t-7 -44.5t-10.5 -39.5t-15 -37.5t-19.5 -30.5t-26 -25.5t-33.5 -14.5t-42 -6q-62 0 -105 31t-43 96zM243 931q0 62 46 108.5t107.5 46.5t108 -46.5t46.5 -108.5q0 -61 -46 -106.5t-109 -45.5 q-61 0 -107 45t-46 107z" />
<glyph unicode="&#xa2;" horiz-adv-x="1146" d="M102 454q0 68 12 134t37.5 128t63 116.5t89.5 100t115 78t142.5 50.5t168.5 18h40l53 226l104 -20q-63 -213 -64 -217q116 -16 254 -70q-34 -58 -49.5 -101t-32.5 -110h-39q-9 23 -15.5 38.5t-21 39.5t-30 41t-40 34t-53.5 27l-232 -878q8 -3 27 -3q17 0 33 1t54.5 8.5 t73 21t79.5 41.5t83 68l34 -18q-22 -50 -55 -157q-93 -43 -174.5 -60.5t-186.5 -17.5q-25 -99 -63 -267q-60 11 -106 18q47 155 74 259q-179 29 -277 157t-98 314zM359 422q0 -119 41 -197t113 -113l230 868q-223 0 -327 -261q-19 -49 -31 -90t-19 -94t-7 -113z" />
<glyph unicode="&#xa3;" horiz-adv-x="1146" d="M51 0q14 39 20 61t10 45.5t10 77.5q37 3 59 7.5t46.5 15t40 28t31 47t28.5 72.5q17 55 26.5 107t13.5 100t9 151q-117 0 -214 -11q7 22 9.5 33.5t5 34.5t2.5 54q104 -9 204 -9q2 103 10.5 181t24.5 132.5t31 87t38 70.5q59 98 181 154t270 56q161 0 317 -66 q-32 -70 -44 -107t-28 -117h-29q-10 33 -20.5 57t-30 52t-44 46t-64 30t-88.5 12q-51 0 -93 -18.5t-67.5 -45.5t-44.5 -64.5t-28 -68t-14 -63.5q-19 -111 -34 -328l173 5q108 3 159 6q-14 -46 -17 -64.5t-3 -59.5l-164 4l-159 7q-11 -64 -21.5 -106.5t-30 -97t-45 -98.5 t-67.5 -95.5t-97 -101.5q20 0 165 3t328 8.5t248 9.5q-49 -109 -49 -179q0 -20 5 -55q-38 1 -197 8t-245 7q-244 0 -527 -15z" />
<glyph unicode="&#xa4;" horiz-adv-x="1146" d="M66 292l149 149q-53 75 -78 144.5t-25 153.5q0 81 26.5 158.5t76.5 140.5l-149 148l102 101l148 -148q36 27 71 46t71.5 31.5t74.5 18.5t82 6q56 0 106.5 -12t95 -33.5t97.5 -56.5l148 148l101 -101l-148 -148q102 -129 102 -299q0 -165 -102 -298l148 -149l-101 -102 l-148 148q-140 -101 -297 -101q-164 0 -301 101l-148 -148zM294 739q0 -135 93 -228t227.5 -93t227.5 93t93 228q0 138 -92.5 229t-228 91t-228 -91t-92.5 -229z" />
<glyph unicode="&#xa5;" horiz-adv-x="1146" d="M89 359q5 17 7 25t5 23t4 32.5t1 42.5q173 -11 335 -11l26 115l-16 51q-142 0 -312 -11q7 23 10 34t5.5 34t2.5 56q159 -9 261 -9q-120 329 -296 749q113 -13 161 -13q55 0 124 13q121 -402 245 -749q247 344 467 749q94 -13 115 -13q18 0 38 2.5t44 6t37 4.5 q-349 -463 -553 -749q63 0 262 9q-12 -42 -15 -62.5t-3 -61.5q-37 2 -106 5t-117 4.5t-89 1.5l-33 -51l-22 -115q116 0 334 11q-12 -42 -14.5 -62.5t-2.5 -60.5q-43 1 -116.5 4t-124.5 4.5t-92 1.5q-43 -178 -66 -369q-76 13 -131 13q-72 0 -139 -13q71 259 95 369 q-155 0 -331 -10z" />
<glyph unicode="&#xa6;" horiz-adv-x="490" d="M166 -387v774h159v-774h-159zM166 719v774h159v-774h-159z" />
<glyph unicode="&#xa7;" horiz-adv-x="1146" d="M49 -112q24 56 32.5 85.5t30.5 136.5h32q36 -129 117 -203q40 -36 97 -58t111 -22q41 0 82.5 15t75.5 41t55 66t21 87q0 18 -3 33.5t-7 29.5t-15.5 29.5t-21 27t-30.5 29.5t-37 31t-48.5 36t-56 39.5t-68.5 46.5q-46 31 -69 47t-57.5 42.5t-51.5 44t-38.5 43.5 t-30.5 49.5t-16 53.5t-7 63q0 43 10 82t23.5 66.5t37 53.5t41 41.5t45 32t40.5 23t35 16.5q-37 37 -61.5 92.5t-24.5 108.5q0 35 9.5 71.5t28.5 75t52.5 72t77 60t106 42t135.5 15.5q206 0 361 -106q-16 -36 -26.5 -66t-17 -51t-22.5 -80l-27 -4q-6 20 -10.5 33t-15.5 38 t-24 41.5t-35 37t-48.5 32.5t-65.5 20.5t-84 8.5q-51 0 -98 -19.5t-79 -60t-32 -92.5q0 -60 58 -116t233 -167q12 -8 36 -23q35 -23 51.5 -33.5t44.5 -29.5t40 -29.5t31.5 -28t28 -31t20 -32.5t16 -37.5t8 -42t3.5 -49.5q0 -44 -12 -85t-31.5 -74.5t-48.5 -66.5t-58.5 -59 t-67.5 -53q21 -27 31 -42t23.5 -41.5t19.5 -56.5t6 -66q0 -70 -31 -136t-86.5 -118t-140 -84t-182.5 -32q-52 0 -100.5 7.5t-90.5 22.5t-73.5 28t-66 35.5t-49 32.5t-40.5 30zM296 787q0 -19 4 -35.5t8.5 -29t18.5 -28t22.5 -24.5t32.5 -26.5t37 -27t48 -32.5 q32 -22 104.5 -68t119 -80t96.5 -80q55 46 84.5 89t29.5 95q0 34 -17 60t-68 66.5t-166 116.5q-116 76 -151 102t-81 71q-35 -19 -61.5 -43.5t-43.5 -57t-17 -68.5z" />
<glyph unicode="&#xa8;" d="M122 1433q0 52 39 90.5t88.5 38.5t89 -38.5t39.5 -90.5q0 -51 -38.5 -89.5t-89.5 -38.5t-89.5 38.5t-38.5 89.5zM582 1433q0 52 39.5 90.5t88.5 38.5t88.5 -38.5t39.5 -90.5q0 -51 -38.5 -89.5t-89.5 -38.5t-89.5 38.5t-38.5 89.5z" />
<glyph unicode="&#xa9;" horiz-adv-x="1813" d="M154 747q0 162 64 309t171.5 253t255 168t309 62t309 -62t255 -168t171 -252.5t63.5 -309.5q0 -159 -63 -305.5t-169.5 -253t-254.5 -169.5t-311 -63q-94 0 -184 21t-168.5 60t-148 93.5t-124 123.5t-94 147t-60.5 166.5t-21 179.5zM266 747q0 -112 34.5 -217.5 t98 -190.5t148 -149.5t190 -99.5t217.5 -35q144 0 272 54t219 146.5t144 220.5t53 271q0 141 -54.5 269.5t-146.5 221t-219.5 147.5t-267.5 55t-267 -54.5t-219.5 -147t-147 -221t-54.5 -270.5zM485 743q0 102 31.5 188t93.5 152t162.5 103.5t229.5 37.5q157 0 309 -67 l-39 -131h-14q-61 122 -251 122q-167 0 -254.5 -102.5t-87.5 -291.5q0 -42 6 -83t19 -80.5t31.5 -74t45 -63.5t59 -50t73.5 -32.5t87 -11.5q58 0 107.5 12.5t87 36.5t62 46t51.5 53l13 -9l-13 -131q-155 -84 -336 -84q-98 0 -183.5 30.5t-150 87.5t-102 145t-37.5 197z" />
<glyph unicode="&#xaa;" horiz-adv-x="696" d="M114 991q0 27 6 50.5t17 41.5t25.5 33.5t33.5 27t38.5 21t43 16.5t44.5 11.5t45 8.5l133 23q26 4 35.5 12t13.5 22q10 37 10 71q0 40 -30.5 60t-81.5 20q-111 0 -155 -90l-53 10q11 27 15 46t7 60q51 27 106 42.5t137 15.5q106 0 163 -44t57 -111q0 -30 -19 -101 l-51 -211q-12 -58 -12 -84q0 -37 42 -37q27 0 46 13l20 -42q-64 -44 -140 -44q-90 0 -114 86q-31 -35 -81 -60.5t-119 -25.5q-91 0 -136.5 46t-45.5 113zM276 996q0 -33 25.5 -53.5t59.5 -20.5q31 0 55.5 11.5t40 27.5t27 40t17 43t10.5 42l15 75l-62 -11q-2 0 -6 -1 q-18 -4 -29.5 -7t-33 -9.5t-35 -13.5t-31 -19t-28 -26t-18 -34.5t-7.5 -43.5z" />
<glyph unicode="&#xab;" horiz-adv-x="981" d="M80 559l203 218q18 19 44.5 48t36 39.5t26.5 29.5t31.5 36.5t34.5 42.5q40 -70 106 -106q-182 -163 -328 -327q18 -42 54 -115.5t75.5 -149.5t65.5 -118q-63 -14 -81 -21t-56 -34q-90 227 -212 457zM464 559q299 318 376 414q33 -63 104 -106q-13 -12 -36 -34 q-119 -114 -163.5 -158.5t-127.5 -134.5q91 -198 195 -383q-56 -12 -75 -19.5t-60 -35.5q-29 77 -91 212t-122 245z" />
<glyph unicode="&#xac;" horiz-adv-x="1475" d="M164 777v143h1147v-586h-144v443h-1003z" />
<glyph unicode="&#xad;" horiz-adv-x="899" d="M126 441q18 41 27.5 74t13.5 58.5t10 80.5q279 -6 281 -6q47 0 99.5 1t117 3t99.5 2q-25 -64 -34.5 -104.5t-15.5 -108.5q-34 0 -134.5 4t-154.5 4q-101 0 -309 -8z" />
<glyph unicode="&#xae;" horiz-adv-x="1105" d="M135 1064q0 99 37 187t100.5 151t152.5 100t190 37q79 0 153 -23.5t133 -67t102.5 -101.5t67.5 -131t24 -152q0 -97 -37.5 -185t-101.5 -151.5t-153 -101t-188 -37.5q-101 0 -190 37t-152.5 101t-100.5 151.5t-37 185.5zM219 1064q0 -110 52.5 -201t143 -143.5 t200.5 -52.5q109 0 200.5 53.5t143.5 144.5t52 199q0 110 -52 201t-143 143t-201 52t-200.5 -52t-143 -143t-52.5 -201zM401 805q6 148 6 312q0 120 -4 219q39 -4 93 -4q11 0 73 2t73 2q33 0 63 -6t57.5 -19.5t44 -39t16.5 -59.5q0 -43 -22.5 -74.5t-56.5 -47.5t-79 -22 q8 -9 91 -110.5t126 -152.5q-67 5 -74 5q-4 0 -71 -5q-20 25 -59.5 79t-70.5 93.5t-63 75.5h-20q0 -80 4 -248q-54 5 -64 5q-1 0 -63 -5zM524 1104q17 -2 58 -2q60 0 89.5 30t29.5 69q0 33 -16 52.5t-40.5 26.5t-60.5 7q-34 0 -60 -4v-179z" />
<glyph unicode="&#xaf;" d="M146 1365l33 135h615l-33 -135h-615z" />
<glyph unicode="&#xb0;" horiz-adv-x="884" d="M199 1157q0 145 96.5 240.5t240.5 95.5t240 -96t96 -240q0 -92 -43.5 -169t-121 -122t-171.5 -45q-144 0 -240.5 97t-96.5 239zM336 1157q0 -88 57 -145.5t143 -57.5q57 0 103 26.5t70.5 73t24.5 103.5q0 87 -55.5 145.5t-142.5 58.5q-85 0 -142.5 -59t-57.5 -145z" />
<glyph unicode="&#xb1;" horiz-adv-x="1475" d="M164 0v144h1147v-144h-1147zM164 673v143h501v434h145v-434h501v-143h-501v-434h-145v434h-501z" />
<glyph unicode="&#xb2;" horiz-adv-x="751" d="M80 595v70q15 13 35 29t36 28.5t36 28.5t37 30q39 32 66.5 55.5t71 62.5t73.5 71t65 73.5t56 77.5t35.5 76.5t14.5 76.5q0 66 -41.5 106t-104.5 40q-68 0 -109.5 -41.5t-56.5 -113.5h-22q-11 13 -24 25t-35.5 30.5t-28.5 24.5q95 148 301 148q45 0 87 -8t81.5 -25.5 t69 -43.5t47 -65.5t17.5 -87.5q0 -40 -15.5 -80.5t-38.5 -72.5t-61 -69.5t-68.5 -63t-75.5 -59.5q-45 -35 -131.5 -96t-122.5 -88h241q111 0 206 9q-13 -28 -19.5 -52t-8.5 -41.5t-5 -54.5q-159 9 -334 9q-106 0 -274 -9z" />
<glyph unicode="&#xb3;" horiz-adv-x="751" d="M59 686q8 10 26 32t29.5 37.5t22.5 33.5l22 -8q12 -42 38.5 -71t62.5 -42.5t80 -13.5q64 0 115 34t76.5 84t25.5 104q0 72 -42 110t-124 38q-27 0 -62 -4q15 56 19 88q31 -11 63 -11q46 0 83 15t59.5 37t38 49.5t21.5 52t6 45.5q0 54 -32 91.5t-93 37.5q-33 0 -59.5 -8.5 t-42 -18.5t-30 -29.5t-20.5 -32t-16 -34.5q-2 -6 -3 -8l-20 -2q-7 10 -13 18t-15 18t-12.5 13.5l-17.5 17.5l-17 17q54 62 118.5 89.5t149.5 27.5q43 0 82.5 -6t79.5 -20.5t69 -37t47 -58.5t18 -81q0 -50 -24 -92t-63 -69.5t-83 -45t-91 -24.5q208 -33 208 -183 q0 -62 -25.5 -112.5t-66 -82.5t-94 -54t-107 -31.5t-108.5 -9.5q-156 0 -279 100z" />
<glyph unicode="&#xb4;" d="M296 1281l299 312q21 22 37 36.5t40.5 27.5t46.5 13q41 0 68 -26.5t27 -62.5q0 -51 -56 -86l-364 -214h-98z" />
<glyph unicode="&#xb6;" horiz-adv-x="1326" d="M154 893q0 95 26 184.5t81.5 169.5t134.5 140t193 95t249 35h574l-27 -132h-111l-381 -1834h-165l380 1834h-247l-381 -1834h-166l195 943q-168 16 -261.5 117t-93.5 282z" />
<glyph unicode="&#xb7;" d="M168 726q0 62 45.5 108t107 46t108 -46.5t46.5 -107.5t-46 -107.5t-108 -46.5t-107.5 46t-45.5 108z" />
<glyph unicode="&#xb8;" d="M33 -427l38 68q96 -35 153 -35q121 0 121 93q0 19 -8.5 37t-29.5 31.5t-52 13.5q-30 0 -80 -13l-27 27l141 209h91l-99 -141q34 4 55 4q31 0 63 -8t62 -24.5t48.5 -47.5t18.5 -72q0 -63 -38.5 -108.5t-101 -67t-141.5 -21.5q-41 0 -81.5 9t-65 18.5t-67.5 27.5z" />
<glyph unicode="&#xb9;" horiz-adv-x="751" d="M181 1332l7 13q237 48 502 168l29 -6q-27 -72 -75 -257t-69 -292q-54 -263 -66 -363q-54 9 -87 9q-26 0 -110 -9q6 24 27 105t30 117.5t25 101t28 117.5t23 106q9 48 49 219q-112 -49 -247 -103q-38 48 -66 74z" />
<glyph unicode="&#xba;" horiz-adv-x="861" d="M173 1104q0 46 14 97t46 103.5t78.5 94t118 68t156.5 26.5q73 0 130.5 -17.5t93.5 -44.5t59.5 -64t33 -73t9.5 -74q0 -50 -14.5 -101.5t-48 -103.5t-81.5 -92.5t-122.5 -65.5t-163.5 -25q-63 0 -118.5 17.5t-98.5 50.5t-67.5 85.5t-24.5 118.5zM345 1042q0 -65 34.5 -106 t102.5 -41q51 0 95.5 28t73.5 71t49.5 95t29.5 99t9 84q0 33 -7.5 60.5t-23.5 49.5t-44 34.5t-67 12.5q-55 0 -100.5 -31.5t-72.5 -77.5t-46 -101t-26 -100t-7 -77z" />
<glyph unicode="&#xbb;" horiz-adv-x="981" d="M38 208q188 171 329 328q-33 72 -98.5 201.5t-95.5 182.5q26 4 40.5 6.5t30.5 9.5t27.5 14t36.5 23q95 -242 211 -458q-26 -29 -200 -217q-112 -120 -175 -196q-41 71 -106 106zM422 208q83 75 181 173t147 155q-100 217 -195 384q17 2 31.5 5t24 5.5t22 8.5t18 9.5 t20.5 12t21 12.5q53 -129 72.5 -174t54 -117t86.5 -167q-200 -206 -379 -413q-28 46 -50.5 68.5t-53.5 37.5z" />
<glyph unicode="&#xbc;" horiz-adv-x="1868" d="M181 1332l7 13q237 48 502 168l29 -6q-27 -72 -75 -257t-69 -292q-54 -263 -66 -363q-54 9 -87 9q-26 0 -110 -9q6 24 27 105t30 117.5t25 101t28 117.5t23 106q9 48 49 219q-112 -49 -247 -103q-38 48 -66 74zM441 -62l984 1653h114l-984 -1653h-114zM1097 219l20 104 l542 570q74 -6 78 -6q28 0 66 6q-8 -16 -18 -61l-120 -496h131q-17 -43 -17 -68q0 -34 2 -49q-22 0 -67.5 2.5t-67.5 2.5q-21 -87 -40 -224q-58 9 -84 9q-18 0 -93 -9q25 82 57 224q-15 0 -62 1t-71 1q-38 0 -80.5 -1t-94 -3t-81.5 -3zM1224 334q101 4 150 4q84 0 137 -2 l80 329q7 34 24 89z" />
<glyph unicode="&#xbd;" horiz-adv-x="1868" d="M181 1332l7 13q237 48 502 168l29 -6q-27 -72 -75 -257t-69 -292q-54 -263 -66 -363q-54 9 -87 9q-26 0 -110 -9q6 24 27 105t30 117.5t25 101t28 117.5t23 106q9 48 49 219q-112 -49 -247 -103q-38 48 -66 74zM441 -62l984 1653h114l-984 -1653h-114zM1115 0v71 q18 16 44.5 36.5t52.5 41t46 37.5q35 28 58.5 48t61.5 53.5t65 60.5t60 62.5t55.5 67.5t43 66.5t30.5 68.5t10 66q0 66 -42 106t-105 40q-68 0 -109 -41t-57 -113h-22q-11 13 -25 25.5t-34.5 29t-29.5 24.5q95 147 302 147q44 0 86.5 -7.5t82 -25.5t69 -44t47.5 -65t18 -88 q0 -39 -16 -79.5t-38.5 -73t-60.5 -69.5t-68.5 -62.5t-75.5 -59.5q-46 -35 -133 -96t-122 -88h242q110 0 205 9q-19 -40 -24.5 -67.5t-8.5 -80.5q-159 9 -334 9q-106 0 -274 -9z" />
<glyph unicode="&#xbe;" horiz-adv-x="1868" d="M59 686q8 10 26 32t29.5 37.5t22.5 33.5l22 -8q12 -42 38.5 -71t62.5 -42.5t80 -13.5q64 0 115 34t76.5 84t25.5 104q0 72 -42 110t-124 38q-27 0 -62 -4q15 56 19 88q31 -11 63 -11q46 0 83 15t59.5 37t38 49.5t21.5 52t6 45.5q0 54 -32 91.5t-93 37.5q-33 0 -59.5 -8.5 t-42 -18.5t-30 -29.5t-20.5 -32t-16 -34.5q-2 -6 -3 -8l-20 -2q-7 10 -13 18t-15 18t-12.5 13.5l-17.5 17.5l-17 17q54 62 118.5 89.5t149.5 27.5q43 0 82.5 -6t79.5 -20.5t69 -37t47 -58.5t18 -81q0 -50 -24 -92t-63 -69.5t-83 -45t-91 -24.5q208 -33 208 -183 q0 -62 -25.5 -112.5t-66 -82.5t-94 -54t-107 -31.5t-108.5 -9.5q-156 0 -279 100zM441 -62l984 1653h114l-984 -1653h-114zM1097 219l20 104l542 570q74 -6 78 -6q28 0 66 6q-8 -16 -18 -61l-120 -496h131q-17 -43 -17 -68q0 -34 2 -49q-22 0 -67.5 2.5t-67.5 2.5 q-21 -87 -40 -224q-58 9 -84 9q-18 0 -93 -9q25 82 57 224q-15 0 -62 1t-71 1q-38 0 -80.5 -1t-94 -3t-81.5 -3zM1224 334q101 4 150 4q84 0 137 -2l80 329q7 34 24 89z" />
<glyph unicode="&#xbf;" horiz-adv-x="899" d="M-9 -129q0 64 13 109.5t49.5 90.5t88 85.5t141.5 98.5q41 26 61.5 39.5t48.5 35t41 37.5t23 37t10 43q0 14 -4.5 28t-13 27t-21.5 23.5t-31.5 17t-40.5 6.5q-37 0 -97 -34l-16 9q28 58 40 91q32 6 73 6q61 0 111.5 -17t83 -43.5t54.5 -60.5t31.5 -66t9.5 -62 q0 -42 -10 -76t-26.5 -62t-51.5 -61.5t-71 -62t-100 -74.5q-44 -32 -66.5 -49t-46.5 -38.5t-34 -38.5t-16.5 -38t-6.5 -47q0 -43 18.5 -77.5t47.5 -55t60.5 -31.5t61.5 -11q104 0 175 107h32q-16 -63 -30 -160q-33 -11 -51.5 -16.5t-49 -13t-59 -11t-57.5 -3.5 q-83 0 -154 26.5t-118.5 70.5t-74.5 101.5t-27 119.5zM391 931q0 62 46 108.5t107.5 46.5t108 -46.5t46.5 -108.5q0 -61 -46 -106.5t-109 -45.5q-40 0 -75.5 20.5t-56.5 56t-21 75.5z" />
<glyph unicode="&#xc0;" horiz-adv-x="1433" d="M-102 0q22 27 43.5 56.5t43 61t38.5 57.5t40.5 62t38.5 59l159 242q237 360 336 515q195 309 281 471q41 -11 69 -11q43 0 68 11q5 -52 20 -146t29 -170.5t33 -174.5t22 -115q109 -582 206 -918q-113 13 -164 13q-26 0 -50.5 -2t-55 -6t-40.5 -5q-14 140 -24 201 q-42 261 -64 361q-40 0 -118.5 2t-118.5 2q-122 0 -245 -7q-43 -66 -149 -256t-161 -303q-6 1 -22.5 4t-27.5 4.5t-28.5 3t-34.5 1.5q-22 0 -43 -2t-48 -6t-33 -5zM511 677h396q-17 97 -93 495q-68 -115 -303 -495zM650 1942q0 39 28 61.5t67 22.5q25 0 45 -10.5t30 -21.5 t29 -34q3 -5 5 -7l243 -319h-86l-292 206q-41 30 -55 52t-14 50z" />
<glyph unicode="&#xc1;" horiz-adv-x="1433" d="M-102 0q22 27 43.5 56.5t43 61t38.5 57.5t40.5 62t38.5 59l159 242q237 360 336 515q195 309 281 471q41 -11 69 -11q43 0 68 11q5 -52 20 -146t29 -170.5t33 -174.5t22 -115q109 -582 206 -918q-113 13 -164 13q-26 0 -50.5 -2t-55 -6t-40.5 -5q-14 140 -24 201 q-42 261 -64 361q-40 0 -118.5 2t-118.5 2q-122 0 -245 -7q-43 -66 -149 -256t-161 -303q-6 1 -22.5 4t-27.5 4.5t-28.5 3t-34.5 1.5q-22 0 -43 -2t-48 -6t-33 -5zM511 677h396q-17 97 -93 495q-68 -115 -303 -495zM772 1634l298 312q22 23 37.5 37t40 27.5t46.5 13.5 q41 0 68.5 -26.5t27.5 -62.5q0 -51 -56 -86l-365 -215h-97z" />
<glyph unicode="&#xc2;" horiz-adv-x="1433" d="M-102 0q22 27 43.5 56.5t43 61t38.5 57.5t40.5 62t38.5 59l159 242q237 360 336 515q195 309 281 471q41 -11 69 -11q43 0 68 11q5 -52 20 -146t29 -170.5t33 -174.5t22 -115q109 -582 206 -918q-113 13 -164 13q-26 0 -50.5 -2t-55 -6t-40.5 -5q-14 140 -24 201 q-42 261 -64 361q-40 0 -118.5 2t-118.5 2q-122 0 -245 -7q-43 -66 -149 -256t-161 -303q-6 1 -22.5 4t-27.5 4.5t-28.5 3t-34.5 1.5q-22 0 -43 -2t-48 -6t-33 -5zM511 677h396q-17 97 -93 495q-68 -115 -303 -495zM570 1634l350 379h150l193 -379h-100l-188 219l-294 -219 h-111z" />
<glyph unicode="&#xc3;" horiz-adv-x="1433" d="M-102 0q22 27 43.5 56.5t43 61t38.5 57.5t40.5 62t38.5 59l159 242q237 360 336 515q195 309 281 471q41 -11 69 -11q43 0 68 11q5 -52 20 -146t29 -170.5t33 -174.5t22 -115q109 -582 206 -918q-113 13 -164 13q-26 0 -50.5 -2t-55 -6t-40.5 -5q-14 140 -24 201 q-42 261 -64 361q-40 0 -118.5 2t-118.5 2q-122 0 -245 -7q-43 -66 -149 -256t-161 -303q-6 1 -22.5 4t-27.5 4.5t-28.5 3t-34.5 1.5q-22 0 -43 -2t-48 -6t-33 -5zM511 677h396q-17 97 -93 495q-68 -115 -303 -495zM578 1684q11 62 47 117.5t93 90.5t120 35q61 0 160 -47 q9 -3 27 -10.5t27.5 -11t25 -9t26 -8.5t23.5 -5t23 -2q24 0 43 7.5t34.5 25t23 29.5t21.5 37h77q-28 -111 -93.5 -179t-158.5 -68q-36 0 -75.5 9.5t-72 23t-63.5 27.5t-61.5 23.5t-54.5 9.5q-35 0 -69.5 -27t-43.5 -68h-79z" />
<glyph unicode="&#xc4;" horiz-adv-x="1433" d="M-102 0q22 27 43.5 56.5t43 61t38.5 57.5t40.5 62t38.5 59l159 242q237 360 336 515q195 309 281 471q41 -11 69 -11q43 0 68 11q5 -52 20 -146t29 -170.5t33 -174.5t22 -115q109 -582 206 -918q-113 13 -164 13q-26 0 -50.5 -2t-55 -6t-40.5 -5q-14 140 -24 201 q-42 261 -64 361q-40 0 -118.5 2t-118.5 2q-122 0 -245 -7q-43 -66 -149 -256t-161 -303q-6 1 -22.5 4t-27.5 4.5t-28.5 3t-34.5 1.5q-22 0 -43 -2t-48 -6t-33 -5zM511 677h396q-17 97 -93 495q-68 -115 -303 -495zM597 1787q0 53 40 91t89 38t88.5 -38t39.5 -91 q0 -51 -38.5 -89.5t-89.5 -38.5t-90 38.5t-39 89.5zM1057 1787q0 53 40 91t89 38t88.5 -38t39.5 -91q0 -51 -38.5 -89.5t-89.5 -38.5t-90 38.5t-39 89.5z" />
<glyph unicode="&#xc5;" horiz-adv-x="1433" d="M-102 0q22 27 43.5 56.5t43 61t38.5 57.5t40.5 62t38.5 59l159 242q237 360 336 515q195 309 281 471q41 -11 69 -11q43 0 68 11q5 -52 20 -146t29 -170.5t33 -174.5t22 -115q109 -582 206 -918q-113 13 -164 13q-26 0 -50.5 -2t-55 -6t-40.5 -5q-14 140 -24 201 q-42 261 -64 361q-40 0 -118.5 2t-118.5 2q-122 0 -245 -7q-43 -66 -149 -256t-161 -303q-6 1 -22.5 4t-27.5 4.5t-28.5 3t-34.5 1.5q-22 0 -43 -2t-48 -6t-33 -5zM511 677h396q-17 97 -93 495q-68 -115 -303 -495zM719 1790q0 92 67 159.5t161 67.5q60 0 112.5 -30.5 t83.5 -83.5t31 -113q0 -92 -67.5 -160t-159.5 -68q-94 0 -161 68.5t-67 159.5zM816 1789.5q0 -54.5 37.5 -92.5t93.5 -38q54 0 92 38.5t38 92.5q0 27 -10.5 51t-28 41.5t-41.5 27.5t-50 10q-56 0 -93.5 -38t-37.5 -92.5z" />
<glyph unicode="&#xc6;" horiz-adv-x="1841" d="M-159 0q305 344 657 774q176 217 286.5 363t279.5 378q32 -1 79.5 -3.5t82.5 -4.5t79 -3.5t82 -1.5q265 0 538 13q-17 -31 -25 -53t-10.5 -43.5t-2.5 -57.5q-102 13 -166 17t-159 4q-85 0 -158 -4q-40 -166 -117 -517h173q186 0 330 17q-25 -45 -25 -80q0 -12 3 -41.5 t3 -37.5q-38 9 -169 16.5t-184 7.5h-153q-49 -223 -117 -614q117 0 297 6.5t269 12.5q-19 -35 -19 -80q0 -36 6 -68q-246 13 -418 13q-89 0 -235.5 -4.5t-202.5 -8.5q24 81 66 269.5t62 285.5q-164 9 -245 9q-1 0 -234 -7q-207 -251 -401 -557q-14 1 -40.5 5t-48 6t-40.5 2 q-13 0 -30 -1.5t-30.5 -3.5t-32.5 -4.5t-30 -3.5zM580 675h418l30 137q61 265 78.5 348t41.5 222q0 7 -9 7q-6 0 -14 -9t-36 -46q-36 -45 -86.5 -111.5t-109.5 -144.5t-85 -111q-169 -216 -228 -292z" />
<glyph unicode="&#xc7;" horiz-adv-x="1556" d="M168 642q0 47 5.5 95.5t16 98t27 99t39 97.5t52.5 95t66 89q44 53 88.5 95t111.5 87.5t140.5 76t174.5 50t215 19.5q128 0 270.5 -32.5t237.5 -93.5q-24 -45 -38 -76.5t-23 -60.5t-23 -82h-15q-22 29 -34.5 44.5t-39 44t-48.5 45t-57 37.5t-71 32.5t-84 20t-102 8.5 q-20 0 -32.5 -0.5t-39 -2.5t-48 -8t-52 -15t-59 -24.5t-60.5 -36t-65 -51t-64 -67.5q-100 -118 -154 -283t-54 -344q0 -246 120.5 -381.5t325.5 -135.5q49 0 95 6t88 19t77.5 27t72 35t62.5 37t57 41t47.5 39t42.5 37l21 -9q-52 -85 -82 -232q-133 -58 -252.5 -85.5 t-258.5 -27.5l-76 -106q35 4 56 4q31 0 63 -8t62 -24.5t49 -47.5t19 -72q0 -38 -14.5 -70.5t-40.5 -55.5t-61 -39t-77 -24t-89 -8q-42 0 -82.5 9t-64.5 18.5t-67 27.5l38 68q96 -35 152 -35q122 0 122 93q0 19 -8.5 37t-30 31.5t-51.5 13.5q-31 0 -80 -13l-27 27l124 180 q-134 12 -247 64.5t-194 137.5t-126.5 204.5t-45.5 260.5z" />
<glyph unicode="&#xc8;" horiz-adv-x="1063" d="M78 0q39 163 60 252.5t78 360.5t124 624q22 116 44 278q227 -13 235 -13q266 0 538 13q-17 -31 -25 -53t-10.5 -43.5t-2.5 -57.5q-102 13 -166 17t-159 4q-83 0 -157 -4q-50 -205 -118 -517h173q186 0 330 17q-24 -43 -24 -80q0 -12 3 -41.5t3 -37.5q-38 9 -169.5 16.5 t-184.5 7.5h-152q-54 -247 -118 -614q118 0 298.5 6.5t268.5 12.5q-20 -37 -20 -80q0 -36 6 -68q-246 13 -418 13q-89 0 -235 -4.5t-202 -8.5zM487 1942q0 39 28 61.5t67 22.5q24 0 43.5 -10t29.5 -20.5t28 -34.5q2 -2 2.5 -3t2 -2.5l2.5 -2.5l243 -319h-86l-292 206 q-41 30 -54.5 52t-13.5 50z" />
<glyph unicode="&#xc9;" horiz-adv-x="1063" d="M78 0q39 163 60 252.5t78 360.5t124 624q22 116 44 278q227 -13 235 -13q266 0 538 13q-17 -31 -25 -53t-10.5 -43.5t-2.5 -57.5q-102 13 -166 17t-159 4q-83 0 -157 -4q-50 -205 -118 -517h173q186 0 330 17q-24 -43 -24 -80q0 -12 3 -41.5t3 -37.5q-38 9 -169.5 16.5 t-184.5 7.5h-152q-54 -247 -118 -614q118 0 298.5 6.5t268.5 12.5q-20 -37 -20 -80q0 -36 6 -68q-246 13 -418 13q-89 0 -235 -4.5t-202 -8.5zM642 1634l298 312q21 23 36.5 37t40 27.5t47.5 13.5q40 0 67.5 -26.5t27.5 -62.5q0 -51 -55 -86l-365 -215h-97z" />
<glyph unicode="&#xca;" horiz-adv-x="1063" d="M78 0q39 163 60 252.5t78 360.5t124 624q22 116 44 278q227 -13 235 -13q266 0 538 13q-17 -31 -25 -53t-10.5 -43.5t-2.5 -57.5q-102 13 -166 17t-159 4q-83 0 -157 -4q-50 -205 -118 -517h173q186 0 330 17q-24 -43 -24 -80q0 -12 3 -41.5t3 -37.5q-38 9 -169.5 16.5 t-184.5 7.5h-152q-54 -247 -118 -614q118 0 298.5 6.5t268.5 12.5q-20 -37 -20 -80q0 -36 6 -68q-246 13 -418 13q-89 0 -235 -4.5t-202 -8.5zM429 1634l350 379h150l192 -379h-99l-188 219l-294 -219h-111z" />
<glyph unicode="&#xcb;" horiz-adv-x="1063" d="M78 0q39 163 60 252.5t78 360.5t124 624q22 116 44 278q227 -13 235 -13q266 0 538 13q-17 -31 -25 -53t-10.5 -43.5t-2.5 -57.5q-102 13 -166 17t-159 4q-83 0 -157 -4q-50 -205 -118 -517h173q186 0 330 17q-24 -43 -24 -80q0 -12 3 -41.5t3 -37.5q-38 9 -169.5 16.5 t-184.5 7.5h-152q-54 -247 -118 -614q118 0 298.5 6.5t268.5 12.5q-20 -37 -20 -80q0 -36 6 -68q-246 13 -418 13q-89 0 -235 -4.5t-202 -8.5zM433 1787q0 53 40 91t89 38t88.5 -38t39.5 -91q0 -51 -38.5 -89.5t-89.5 -38.5t-90 38.5t-39 89.5zM893 1787q0 53 40 91t89 38 t88.5 -38t39.5 -91q0 -51 -38.5 -89.5t-89.5 -38.5t-90 38.5t-39 89.5z" />
<glyph unicode="&#xcc;" horiz-adv-x="654" d="M76 0q61 221 95 384l135 671q6 29 10.5 53.5t8.5 43.5t8.5 46t7 42.5t8.5 53.5l9 57t11 75.5t13 88.5q88 -13 137.5 -13t155.5 13q-55 -200 -169 -734.5t-145 -780.5q-80 13 -142 13q-48 0 -143 -13zM261 1942q0 39 28 61.5t67 22.5q9 0 16.5 -1t13 -2.5t12.5 -5l11 -5.5 t10.5 -8t9 -8t9.5 -10t8.5 -10l9 -12t8.5 -11l243 -319h-86l-292 206q-21 16 -35 29t-21 25.5t-9.5 23t-2.5 24.5z" />
<glyph unicode="&#xcd;" horiz-adv-x="654" d="M76 0q61 221 95 384l135 671q6 29 10.5 53.5t8.5 43.5t8.5 46t7 42.5t8.5 53.5l9 57t11 75.5t13 88.5q88 -13 137.5 -13t155.5 13q-55 -200 -169 -734.5t-145 -780.5q-80 13 -142 13q-48 0 -143 -13zM382 1634l299 312q23 24 37.5 37.5t39 27t47.5 13.5q40 0 68 -26.5 t28 -62.5q0 -51 -56 -86l-365 -215h-98z" />
<glyph unicode="&#xce;" horiz-adv-x="654" d="M76 0q61 221 95 384l135 671q6 29 10.5 53.5t8.5 43.5t8.5 46t7 42.5t8.5 53.5l9 57t11 75.5t13 88.5q88 -13 137.5 -13t155.5 13q-55 -200 -169 -734.5t-145 -780.5q-80 13 -142 13q-48 0 -143 -13zM181 1634l350 379h150l193 -379h-100l-188 219l-294 -219h-111z" />
<glyph unicode="&#xcf;" horiz-adv-x="654" d="M76 0q61 221 95 384l135 671q6 29 10.5 53.5t8.5 43.5t8.5 46t7 42.5t8.5 53.5l9 57t11 75.5t13 88.5q88 -13 137.5 -13t155.5 13q-55 -200 -169 -734.5t-145 -780.5q-80 13 -142 13q-48 0 -143 -13zM208 1787q0 53 39.5 91t88.5 38t88.5 -38t39.5 -91q0 -51 -38.5 -89.5 t-89.5 -38.5t-89.5 38.5t-38.5 89.5zM667 1787q0 53 40 91t89 38t88.5 -38t39.5 -91q0 -51 -38.5 -89.5t-89.5 -38.5q-25 0 -48.5 10.5t-41 28t-28.5 41t-11 48.5z" />
<glyph unicode="&#xd0;" horiz-adv-x="1678" d="M2 719q1 3 2 9q15 58 15 126q137 -9 255 -9q23 98 61.5 317t58.5 353q106 -13 230 -13q51 0 153.5 6.5t153.5 6.5q379 0 540 -196q39 -48 66.5 -102t41 -96t20.5 -94.5t8 -77.5t1 -64q0 -50 -5 -101.5t-23 -125t-47.5 -141t-82.5 -143t-123 -135.5q-47 -42 -92.5 -74 t-108 -64.5t-130 -53.5t-156 -34t-188.5 -13q-60 0 -180 6.5t-180 6.5q-112 0 -208 -13l51 211q51 207 114 517q-123 0 -247 -9zM389 120q155 -8 206 -8q117 0 217.5 26t171 68t128.5 101.5t94 119t62.5 129t39.5 123t20.5 108.5t8.5 79t1 41q0 105 -35.5 207t-103.5 167 q-30 29 -66 50.5t-73.5 34t-69.5 20.5t-70 11t-58.5 4t-49.5 1q-66 0 -155 -7q-40 -151 -126 -550q166 0 398 11q-12 -47 -14.5 -69.5t-2.5 -69.5q-316 11 -405 11q-66 -309 -118 -608z" />
<glyph unicode="&#xd1;" horiz-adv-x="1678" d="M46 0q45 151 71 243.5t62 234t68 286.5q8 33 25.5 113t23 104t18.5 85.5t17.5 83.5t14.5 71t14 75.5t11 69t12.5 79.5t10.5 81q33 -11 62 -11q35 0 63 11q88 -167 405 -619q150 -209 387 -527l29 142q1 4 23.5 120.5t45.5 241t35 193.5q11 67 24 143t18 105.5t11 67.5 t8.5 63t5.5 59q73 -13 106 -13q36 0 103 13q-71 -227 -133 -484.5t-133 -603.5q-37 -180 -49 -246t-31 -194q-33 11 -63 11q-11 0 -59 -11l-127 199q-30 48 -112 161t-93 128q-84 120 -242.5 338.5t-221.5 307.5q-12 -42 -37 -170.5t-52.5 -278t-30.5 -165.5q-9 -46 -16 -81 t-13 -72.5t-9.5 -58t-10 -63.5t-9 -61.5t-11 -79.5t-12.5 -91q-71 13 -107 13q-39 0 -102 -13zM699 1684q11 62 47.5 117.5t93.5 90.5t120 35q60 0 159 -47q5 -2 31 -12.5t35 -13.5l28.5 -9.5t33 -8.5t25.5 -2q20 0 37 6.5t27 13.5t23 24t17.5 25.5t16.5 29.5h78 q-28 -111 -94 -179t-159 -68q-37 0 -76 9.5t-71.5 23t-63.5 27.5t-61.5 23.5t-54.5 9.5q-35 0 -69 -27t-43 -68h-80z" />
<glyph unicode="&#xd2;" horiz-adv-x="1883" d="M157 637q0 40 4 84t19 112.5t39.5 134t69.5 143t105 143.5q261 287 695 287q98 0 185.5 -16t156.5 -45.5t126.5 -70t100 -89.5t74 -103t51 -113t29 -116.5t9.5 -115.5q0 -91 -18.5 -182t-58 -180t-96 -169t-136 -148.5t-175 -118t-217 -77.5t-257.5 -28q-114 0 -211.5 22 t-168.5 60t-128 91t-93.5 112t-60.5 126t-34 130t-10 127zM433 595q0 -83 13.5 -155.5t46 -140.5t82.5 -116.5t128.5 -77.5t178.5 -29q284 0 456 230q37 48 71 112t65.5 145.5t50.5 180.5t19 198q0 104 -28 192t-83 156t-144 106.5t-203 38.5q-93 0 -177.5 -28.5t-149.5 -78 t-119 -116t-92 -142.5t-64 -158.5t-38.5 -162t-12.5 -154.5zM876 1942q0 39 28 61.5t67 22.5q8 0 15.5 -1t13.5 -2.5t13 -5t10.5 -5.5t10.5 -8t9.5 -8t9 -10t8 -10t9.5 -12t9 -11l244 -319h-86l-293 206q-42 30 -55 52t-13 50z" />
<glyph unicode="&#xd3;" horiz-adv-x="1883" d="M157 637q0 40 4 84t19 112.5t39.5 134t69.5 143t105 143.5q261 287 695 287q98 0 185.5 -16t156.5 -45.5t126.5 -70t100 -89.5t74 -103t51 -113t29 -116.5t9.5 -115.5q0 -91 -18.5 -182t-58 -180t-96 -169t-136 -148.5t-175 -118t-217 -77.5t-257.5 -28q-114 0 -211.5 22 t-168.5 60t-128 91t-93.5 112t-60.5 126t-34 130t-10 127zM433 595q0 -83 13.5 -155.5t46 -140.5t82.5 -116.5t128.5 -77.5t178.5 -29q284 0 456 230q37 48 71 112t65.5 145.5t50.5 180.5t19 198q0 104 -28 192t-83 156t-144 106.5t-203 38.5q-93 0 -177.5 -28.5t-149.5 -78 t-119 -116t-92 -142.5t-64 -158.5t-38.5 -162t-12.5 -154.5zM998 1634l298 312q22 23 37.5 37t40 27.5t46.5 13.5q41 0 68 -26.5t27 -62.5q0 -51 -55 -86l-365 -215h-97z" />
<glyph unicode="&#xd4;" horiz-adv-x="1883" d="M157 637q0 40 4 84t19 112.5t39.5 134t69.5 143t105 143.5q261 287 695 287q98 0 185.5 -16t156.5 -45.5t126.5 -70t100 -89.5t74 -103t51 -113t29 -116.5t9.5 -115.5q0 -91 -18.5 -182t-58 -180t-96 -169t-136 -148.5t-175 -118t-217 -77.5t-257.5 -28q-114 0 -211.5 22 t-168.5 60t-128 91t-93.5 112t-60.5 126t-34 130t-10 127zM433 595q0 -83 13.5 -155.5t46 -140.5t82.5 -116.5t128.5 -77.5t178.5 -29q284 0 456 230q37 48 71 112t65.5 145.5t50.5 180.5t19 198q0 104 -28 192t-83 156t-144 106.5t-203 38.5q-93 0 -177.5 -28.5t-149.5 -78 t-119 -116t-92 -142.5t-64 -158.5t-38.5 -162t-12.5 -154.5zM774 1634l349 379h151l193 -379h-100l-188 219l-294 -219h-111z" />
<glyph unicode="&#xd5;" horiz-adv-x="1883" d="M157 637q0 40 4 84t19 112.5t39.5 134t69.5 143t105 143.5q261 287 695 287q98 0 185.5 -16t156.5 -45.5t126.5 -70t100 -89.5t74 -103t51 -113t29 -116.5t9.5 -115.5q0 -91 -18.5 -182t-58 -180t-96 -169t-136 -148.5t-175 -118t-217 -77.5t-257.5 -28q-114 0 -211.5 22 t-168.5 60t-128 91t-93.5 112t-60.5 126t-34 130t-10 127zM433 595q0 -83 13.5 -155.5t46 -140.5t82.5 -116.5t128.5 -77.5t178.5 -29q284 0 456 230q37 48 71 112t65.5 145.5t50.5 180.5t19 198q0 104 -28 192t-83 156t-144 106.5t-203 38.5q-93 0 -177.5 -28.5t-149.5 -78 t-119 -116t-92 -142.5t-64 -158.5t-38.5 -162t-12.5 -154.5zM770 1684q17 97 91.5 170t168.5 73q61 0 160 -47q9 -3 27 -10.5t27.5 -11t25 -9t26.5 -8.5t23.5 -5t22.5 -2q25 0 43.5 7.5t34 25t23 29.5t21.5 37h77q-28 -111 -93.5 -179t-157.5 -68q-45 0 -95 14.5t-86 32 t-77 32t-70 14.5q-22 0 -45.5 -11.5t-42.5 -34t-25 -49.5h-79z" />
<glyph unicode="&#xd6;" horiz-adv-x="1883" d="M157 637q0 40 4 84t19 112.5t39.5 134t69.5 143t105 143.5q261 287 695 287q98 0 185.5 -16t156.5 -45.5t126.5 -70t100 -89.5t74 -103t51 -113t29 -116.5t9.5 -115.5q0 -91 -18.5 -182t-58 -180t-96 -169t-136 -148.5t-175 -118t-217 -77.5t-257.5 -28q-114 0 -211.5 22 t-168.5 60t-128 91t-93.5 112t-60.5 126t-34 130t-10 127zM433 595q0 -83 13.5 -155.5t46 -140.5t82.5 -116.5t128.5 -77.5t178.5 -29q284 0 456 230q37 48 71 112t65.5 145.5t50.5 180.5t19 198q0 104 -28 192t-83 156t-144 106.5t-203 38.5q-93 0 -177.5 -28.5t-149.5 -78 t-119 -116t-92 -142.5t-64 -158.5t-38.5 -162t-12.5 -154.5zM789 1787q0 53 40 91t89 38t89 -38t40 -91q0 -51 -39 -89.5t-90 -38.5t-90 38.5t-39 89.5zM1250 1787q0 53 39.5 91t88.5 38t89 -38t40 -91q0 -51 -39 -89.5t-90 -38.5t-89.5 38.5t-38.5 89.5z" />
<glyph unicode="&#xd7;" horiz-adv-x="1475" d="M181 224l454 453l-454 451l102 102l454 -453l451 453l102 -102l-454 -451l454 -453l-102 -104l-451 452l-454 -452z" />
<glyph unicode="&#xd8;" horiz-adv-x="1883" d="M108 -89q27 28 109 110.5t128 130.5q-98 95 -143 224t-45 261q0 40 4 84t19 112.5t39.5 134t69.5 143t105 143.5q261 287 695 287q259 0 437 -112q46 47 126.5 140t97.5 111q23 -32 37.5 -45.5t48.5 -37.5q-156 -150 -228 -228q107 -96 160 -228.5t53 -268.5 q0 -91 -18.5 -182t-58 -180t-96 -169t-136 -148.5t-175 -118t-217 -77.5t-257.5 -28q-264 0 -439 117q-19 -20 -32 -34.5t-28 -31.5t-23.5 -26t-27 -30.5t-28 -33t-39 -45.5t-47.5 -56q-29 32 -42 44t-49 38zM433 595q0 -166 56 -287l927 1001q-120 126 -330 126 q-93 0 -177.5 -28.5t-149.5 -78t-119 -116t-92 -142.5t-64 -158.5t-38.5 -162t-12.5 -154.5zM542 217q117 -141 340 -141q284 0 456 230q37 48 71 112t65.5 145.5t50.5 180.5t19 198q0 167 -69 286z" />
<glyph unicode="&#xd9;" horiz-adv-x="1678" d="M184 403q0 116 97 555q34 159 95 557q93 -13 148 -13q52 0 149 13q-94 -380 -101 -407q-82 -365 -106.5 -495t-24.5 -208q0 -40 10 -79.5t31.5 -78t61 -70.5t91.5 -51q48 -18 87 -23.5t105 -5.5q123 0 212.5 32.5t153 101.5t104 164.5t68.5 233.5q40 193 70 352t47 265.5 t42 268.5q58 -13 95 -13q38 0 88 13q-29 -111 -90 -371t-100 -447v-1q-16 -78 -24 -115t-23 -99t-27 -93.5t-31.5 -79t-40.5 -76t-50 -63t-64.5 -62t-79.5 -53.5q-47 -28 -110 -47.5t-122 -27.5t-95 -10.5t-58 -2.5q-142 0 -238.5 20t-194.5 84q-175 117 -175 332zM783 1942 q0 39 28 61.5t67 22.5q8 0 15.5 -1t13.5 -2.5t13 -5l11 -5.5t10.5 -8t9 -8t9 -10t8 -10t9.5 -12t9 -11l244 -319h-86l-293 206q-41 30 -54.5 52t-13.5 50z" />
<glyph unicode="&#xda;" horiz-adv-x="1678" d="M184 403q0 116 97 555q34 159 95 557q93 -13 148 -13q52 0 149 13q-94 -380 -101 -407q-82 -365 -106.5 -495t-24.5 -208q0 -40 10 -79.5t31.5 -78t61 -70.5t91.5 -51q48 -18 87 -23.5t105 -5.5q123 0 212.5 32.5t153 101.5t104 164.5t68.5 233.5q40 193 70 352t47 265.5 t42 268.5q58 -13 95 -13q38 0 88 13q-29 -111 -90 -371t-100 -447v-1q-16 -78 -24 -115t-23 -99t-27 -93.5t-31.5 -79t-40.5 -76t-50 -63t-64.5 -62t-79.5 -53.5q-47 -28 -110 -47.5t-122 -27.5t-95 -10.5t-58 -2.5q-142 0 -238.5 20t-194.5 84q-175 117 -175 332zM960 1634 l298 312q22 23 37.5 37t40 27.5t46.5 13.5q41 0 68 -26.5t27 -62.5q0 -51 -55 -86l-365 -215h-97z" />
<glyph unicode="&#xdb;" horiz-adv-x="1678" d="M184 403q0 116 97 555q34 159 95 557q93 -13 148 -13q52 0 149 13q-94 -380 -101 -407q-82 -365 -106.5 -495t-24.5 -208q0 -40 10 -79.5t31.5 -78t61 -70.5t91.5 -51q48 -18 87 -23.5t105 -5.5q123 0 212.5 32.5t153 101.5t104 164.5t68.5 233.5q40 193 70 352t47 265.5 t42 268.5q58 -13 95 -13q38 0 88 13q-29 -111 -90 -371t-100 -447v-1q-16 -78 -24 -115t-23 -99t-27 -93.5t-31.5 -79t-40.5 -76t-50 -63t-64.5 -62t-79.5 -53.5q-47 -28 -110 -47.5t-122 -27.5t-95 -10.5t-58 -2.5q-142 0 -238.5 20t-194.5 84q-175 117 -175 332zM726 1634 l349 379h151l192 -379h-99l-188 219l-295 -219h-110z" />
<glyph unicode="&#xdc;" horiz-adv-x="1678" d="M184 403q0 116 97 555q34 159 95 557q93 -13 148 -13q52 0 149 13q-94 -380 -101 -407q-82 -365 -106.5 -495t-24.5 -208q0 -40 10 -79.5t31.5 -78t61 -70.5t91.5 -51q48 -18 87 -23.5t105 -5.5q123 0 212.5 32.5t153 101.5t104 164.5t68.5 233.5q40 193 70 352t47 265.5 t42 268.5q58 -13 95 -13q38 0 88 13q-29 -111 -90 -371t-100 -447v-1q-16 -78 -24 -115t-23 -99t-27 -93.5t-31.5 -79t-40.5 -76t-50 -63t-64.5 -62t-79.5 -53.5q-47 -28 -110 -47.5t-122 -27.5t-95 -10.5t-58 -2.5q-142 0 -238.5 20t-194.5 84q-175 117 -175 332zM730 1787 q0 53 40 91t89 38t88 -38t39 -91q0 -51 -38 -89.5t-89 -38.5t-90 38.5t-39 89.5zM1190 1787q0 53 40 91t89 38t88 -38t39 -91q0 -51 -38 -89.5t-89 -38.5t-90 38.5t-39 89.5z" />
<glyph unicode="&#xdd;" horiz-adv-x="1269" d="M184 1515q110 -13 156 -13q49 0 145 13l41 -135q50 -171 84 -276q97 -286 118 -346q69 96 105.5 151.5t124.5 196.5q70 112 236 409q94 -13 117 -13q18 0 38 2.5t44.5 6t37.5 4.5q-23 -33 -94 -130t-155.5 -210t-92.5 -124q-41 -56 -150.5 -216t-161.5 -240l-36 -194 q-49 -274 -68 -401q-76 13 -139 13q-77 0 -150 -13q17 63 79.5 326.5t62.5 268.5q0 20 -130 370.5t-212 549.5zM734 1634l298 312q22 23 37.5 37t40 27.5t47.5 13.5q40 0 67.5 -26.5t27.5 -62.5q0 -51 -55 -86l-365 -215h-98z" />
<glyph unicode="&#xde;" horiz-adv-x="1186" d="M78 0q82 352 150 673q112 559 120 601q25 150 36 241q13 0 68 -6.5t86 -6.5q12 0 30.5 1.5t34 3.5t37 4.5t33.5 3.5q-17 -63 -45 -184t-31 -134q73 6 144 6q69 0 131 -11.5t118.5 -37.5t97.5 -65t65 -98t24 -132q0 -291 -244 -416q-60 -31 -125.5 -48t-136 -23.5 t-169.5 -6.5h-80q-54 -305 -63 -365q-98 13 -148 13q-49 0 -133 -13zM441 451h81q82 0 155 30.5t125 83t82 125.5t30 157q0 51 -10.5 90.5t-25 65.5t-43 43.5t-51 26.5t-64.5 14t-67.5 5.5t-74.5 0.5q-61 -254 -137 -642z" />
<glyph unicode="&#xdf;" horiz-adv-x="1311" d="M62 0q110 428 214 991q41 222 66.5 309.5t79.5 159.5q50 67 124 110.5t148.5 60.5t154.5 17q52 0 102.5 -10t97.5 -31t82.5 -52t57 -76t21.5 -99q0 -53 -16.5 -94t-58.5 -87.5t-122 -107.5q-10 -8 -32 -24t-35 -26t-32 -24.5t-30.5 -26t-23 -25t-17 -26t-5.5 -23.5 q0 -10 3 -19.5t7 -17.5t12 -17.5t15 -16t18.5 -16.5t20.5 -16.5t23 -17.5t23 -18q111 -88 148 -121.5t59.5 -69t34.5 -84.5t12 -88q0 -54 -19.5 -113t-60 -115.5t-95 -102t-131.5 -73t-163 -27.5q-58 0 -142.5 16.5t-142.5 42.5q31 72 44 108t27 93l35 -2q7 -16 10.5 -22.5 t13 -24.5t17.5 -27t21.5 -24.5t28.5 -24.5t34 -18.5t42.5 -13.5t49.5 -4q95 0 161.5 65.5t66.5 160.5q0 27 -6 52.5t-12.5 45t-23.5 43t-28 37t-38.5 38t-40.5 36t-48 39.5q-7 6 -36 29.5t-43.5 36t-39 37.5t-37.5 44t-23.5 44.5t-10.5 49.5q0 16 1.5 28.5t8.5 26.5l11.5 23 t20 24.5t24 23.5t33.5 27.5t38.5 29.5t48.5 36q49 36 77.5 59t58.5 52.5t45.5 55t25 58t9.5 69.5q0 88 -51.5 145t-136.5 57q-51 0 -91.5 -15t-72 -53t-54 -78.5t-44.5 -115.5t-37 -139t-37 -172q-79 -383 -108 -526q-60 -309 -75 -456q-80 13 -127 13q-29 0 -130 -13z" />
<glyph unicode="&#xe0;" horiz-adv-x="1063" d="M33 234q0 158 126 255q52 40 114.5 60.5t144.5 34.5l211 40q39 8 53.5 21t18.5 36l14 73q4 34 4 56q0 148 -185 148q-29 0 -58.5 -6t-66 -21.5t-69 -49.5t-53.5 -83q-32 14 -63 16q16 45 22 76t11 92q24 14 44.5 24.5t47.5 22.5t55 20.5t60.5 15.5t71 10.5t81.5 3.5 q163 0 251 -73t88 -185q0 -19 -6 -54.5t-14.5 -74t-8.5 -42.5l-78 -347q-20 -100 -20 -132q0 -85 66 -85q31 0 74 26q7 -32 25 -61q-38 -23 -66.5 -36t-64.5 -21.5t-76 -8.5q-74 0 -115.5 37.5t-56.5 110.5q-136 -158 -303 -158q-48 0 -89 10.5t-71 28.5t-53 42.5t-37 53.5 t-21.5 60.5t-7.5 63.5zM264 249q0 -24 7.5 -48t22.5 -45.5t43.5 -34.5t65.5 -13q47 0 86.5 19t64.5 47t44.5 67.5t29 73.5t16.5 72l27 155l-118 -25q-29 -6 -46 -10t-51.5 -15t-56.5 -22.5t-50.5 -33t-45 -46.5t-28 -61t-11.5 -80zM387 1588q0 39 28 61.5t67 22.5 q13 0 24 -2t22 -8.5t16.5 -10t16.5 -16t14 -16t16 -20.5l243 -318h-87l-291 205q-22 16 -36 29t-21 25.5t-9.5 23t-2.5 24.5z" />
<glyph unicode="&#xe1;" horiz-adv-x="1063" d="M33 234q0 158 126 255q52 40 114.5 60.5t144.5 34.5l211 40q39 8 53.5 21t18.5 36l14 73q4 34 4 56q0 148 -185 148q-29 0 -58.5 -6t-66 -21.5t-69 -49.5t-53.5 -83q-32 14 -63 16q16 45 22 76t11 92q24 14 44.5 24.5t47.5 22.5t55 20.5t60.5 15.5t71 10.5t81.5 3.5 q163 0 251 -73t88 -185q0 -19 -6 -54.5t-14.5 -74t-8.5 -42.5l-78 -347q-20 -100 -20 -132q0 -85 66 -85q31 0 74 26q7 -32 25 -61q-38 -23 -66.5 -36t-64.5 -21.5t-76 -8.5q-74 0 -115.5 37.5t-56.5 110.5q-136 -158 -303 -158q-48 0 -89 10.5t-71 28.5t-53 42.5t-37 53.5 t-21.5 60.5t-7.5 63.5zM264 249q0 -24 7.5 -48t22.5 -45.5t43.5 -34.5t65.5 -13q47 0 86.5 19t64.5 47t44.5 67.5t29 73.5t16.5 72l27 155l-118 -25q-29 -6 -46 -10t-51.5 -15t-56.5 -22.5t-50.5 -33t-45 -46.5t-28 -61t-11.5 -80zM475 1281l299 312q22 23 37 37t39.5 27 t46.5 13q27 0 49.5 -12.5t35 -33t12.5 -43.5q0 -51 -57 -86l-365 -214h-97z" />
<glyph unicode="&#xe2;" horiz-adv-x="1063" d="M33 234q0 158 126 255q52 40 114.5 60.5t144.5 34.5l211 40q39 8 53.5 21t18.5 36l14 73q4 34 4 56q0 148 -185 148q-29 0 -58.5 -6t-66 -21.5t-69 -49.5t-53.5 -83q-32 14 -63 16q16 45 22 76t11 92q24 14 44.5 24.5t47.5 22.5t55 20.5t60.5 15.5t71 10.5t81.5 3.5 q163 0 251 -73t88 -185q0 -19 -6 -54.5t-14.5 -74t-8.5 -42.5l-78 -347q-20 -100 -20 -132q0 -85 66 -85q31 0 74 26q7 -32 25 -61q-38 -23 -66.5 -36t-64.5 -21.5t-76 -8.5q-74 0 -115.5 37.5t-56.5 110.5q-136 -158 -303 -158q-48 0 -89 10.5t-71 28.5t-53 42.5t-37 53.5 t-21.5 60.5t-7.5 63.5zM264 249q0 -24 7.5 -48t22.5 -45.5t43.5 -34.5t65.5 -13q47 0 86.5 19t64.5 47t44.5 67.5t29 73.5t16.5 72l27 155l-118 -25q-29 -6 -46 -10t-51.5 -15t-56.5 -22.5t-50.5 -33t-45 -46.5t-28 -61t-11.5 -80zM296 1281l350 378h150l192 -378h-99 l-188 219l-294 -219h-111z" />
<glyph unicode="&#xe3;" horiz-adv-x="1063" d="M33 234q0 158 126 255q52 40 114.5 60.5t144.5 34.5l211 40q39 8 53.5 21t18.5 36l14 73q4 34 4 56q0 148 -185 148q-29 0 -58.5 -6t-66 -21.5t-69 -49.5t-53.5 -83q-32 14 -63 16q16 45 22 76t11 92q24 14 44.5 24.5t47.5 22.5t55 20.5t60.5 15.5t71 10.5t81.5 3.5 q163 0 251 -73t88 -185q0 -19 -6 -54.5t-14.5 -74t-8.5 -42.5l-78 -347q-20 -100 -20 -132q0 -85 66 -85q31 0 74 26q7 -32 25 -61q-38 -23 -66.5 -36t-64.5 -21.5t-76 -8.5q-74 0 -115.5 37.5t-56.5 110.5q-136 -158 -303 -158q-48 0 -89 10.5t-71 28.5t-53 42.5t-37 53.5 t-21.5 60.5t-7.5 63.5zM264 249q0 -24 7.5 -48t22.5 -45.5t43.5 -34.5t65.5 -13q47 0 86.5 19t64.5 47t44.5 67.5t29 73.5t16.5 72l27 155l-118 -25q-29 -6 -46 -10t-51.5 -15t-56.5 -22.5t-50.5 -33t-45 -46.5t-28 -61t-11.5 -80zM292 1329q16 97 91 170t170 73 q60 0 159 -46q5 -2 31 -12.5t35 -13.5t28 -9.5t32.5 -8.5t26.5 -2q20 0 37 6.5t27 13.5t22.5 24t17.5 25t17 30h78q-28 -111 -93.5 -179t-158.5 -68q-45 0 -94.5 14.5t-85.5 31.5t-77 32t-70 15q-35 0 -69.5 -27t-43.5 -69h-80z" />
<glyph unicode="&#xe4;" horiz-adv-x="1063" d="M33 234q0 158 126 255q52 40 114.5 60.5t144.5 34.5l211 40q39 8 53.5 21t18.5 36l14 73q4 34 4 56q0 148 -185 148q-29 0 -58.5 -6t-66 -21.5t-69 -49.5t-53.5 -83q-32 14 -63 16q16 45 22 76t11 92q24 14 44.5 24.5t47.5 22.5t55 20.5t60.5 15.5t71 10.5t81.5 3.5 q163 0 251 -73t88 -185q0 -19 -6 -54.5t-14.5 -74t-8.5 -42.5l-78 -347q-20 -100 -20 -132q0 -85 66 -85q31 0 74 26q7 -32 25 -61q-38 -23 -66.5 -36t-64.5 -21.5t-76 -8.5q-74 0 -115.5 37.5t-56.5 110.5q-136 -158 -303 -158q-48 0 -89 10.5t-71 28.5t-53 42.5t-37 53.5 t-21.5 60.5t-7.5 63.5zM264 249q0 -24 7.5 -48t22.5 -45.5t43.5 -34.5t65.5 -13q47 0 86.5 19t64.5 47t44.5 67.5t29 73.5t16.5 72l27 155l-118 -25q-29 -6 -46 -10t-51.5 -15t-56.5 -22.5t-50.5 -33t-45 -46.5t-28 -61t-11.5 -80zM312 1433q0 52 40 90.5t89 38.5t88 -38.5 t39 -90.5q0 -51 -38 -89.5t-89 -38.5t-90 38.5t-39 89.5zM772 1433q0 52 40 90.5t89 38.5t88 -38.5t39 -90.5q0 -51 -38 -89.5t-89 -38.5t-90 38.5t-39 89.5z" />
<glyph unicode="&#xe5;" horiz-adv-x="1063" d="M33 234q0 158 126 255q52 40 114.5 60.5t144.5 34.5l211 40q39 8 53.5 21t18.5 36l14 73q4 34 4 56q0 148 -185 148q-29 0 -58.5 -6t-66 -21.5t-69 -49.5t-53.5 -83q-32 14 -63 16q16 45 22 76t11 92q24 14 44.5 24.5t47.5 22.5t55 20.5t60.5 15.5t71 10.5t81.5 3.5 q163 0 251 -73t88 -185q0 -19 -6 -54.5t-14.5 -74t-8.5 -42.5l-78 -347q-20 -100 -20 -132q0 -85 66 -85q31 0 74 26q7 -32 25 -61q-38 -23 -66.5 -36t-64.5 -21.5t-76 -8.5q-74 0 -115.5 37.5t-56.5 110.5q-136 -158 -303 -158q-48 0 -89 10.5t-71 28.5t-53 42.5t-37 53.5 t-21.5 60.5t-7.5 63.5zM264 249q0 -24 7.5 -48t22.5 -45.5t43.5 -34.5t65.5 -13q47 0 86.5 19t64.5 47t44.5 67.5t29 73.5t16.5 72l27 155l-118 -25q-29 -6 -46 -10t-51.5 -15t-56.5 -22.5t-50.5 -33t-45 -46.5t-28 -61t-11.5 -80zM456 1469q0 92 67 160t161 68 q92 0 160 -67.5t68 -160.5q0 -92 -68.5 -160t-159.5 -68q-94 0 -161 68.5t-67 159.5zM553 1469q0 -36 16.5 -65.5t47 -47.5t67.5 -18q35 0 65 17.5t47.5 48t17.5 65.5q0 55 -38.5 92.5t-91.5 37.5q-56 0 -93.5 -38t-37.5 -92z" />
<glyph unicode="&#xe6;" horiz-adv-x="1720" d="M22 230q0 93 50.5 169t135.5 120q102 52 341 91q65 10 100 18.5t44 13.5t19 15q8 8 20 77q7 33 7 68q0 44 -15.5 76t-42.5 48.5t-57.5 24t-66.5 7.5q-40 0 -75 -6.5t-60 -15.5t-47 -24.5t-35 -28t-26.5 -31t-19 -28.5t-13.5 -26l-60 16q14 58 18.5 86t9.5 84 q58 33 158.5 65t211.5 32q82 0 156.5 -26t121.5 -78q31 21 53.5 33.5t64 31t92 28t107.5 9.5q76 -1 140 -16.5t108.5 -41t79 -61t55.5 -73t34.5 -80t18.5 -78.5t5 -72q0 -38 -13 -135h-737q-12 -58 -12 -104q0 -93 34 -166.5t101 -117t158 -43.5q55 0 106.5 11.5t98 34.5 t69 36.5t57.5 37.5l34 -21q-39 -54 -69 -139q-6 -6 -57 -24.5t-136.5 -37t-155.5 -18.5q-159 0 -259 57t-164 177q-28 -32 -42.5 -48.5t-42.5 -45.5t-48.5 -45t-52.5 -36.5t-61.5 -31t-68 -18t-80.5 -7.5q-60 0 -110.5 17t-83.5 43.5t-56 61t-32.5 69t-9.5 66.5zM261 252 q0 -24 5.5 -45t16.5 -40t27.5 -33t40.5 -22t54 -8q62 0 124 37.5t95 103.5q16 32 27.5 82t42.5 215q-203 -32 -289 -71q-45 -20 -77.5 -54t-49.5 -76.5t-17 -88.5zM920 619h484q16 66 16 151q0 31 -5 60t-18 58t-34 50t-55 34.5t-78 13.5q-120 0 -198.5 -97t-111.5 -270z " />
<glyph unicode="&#xe7;" horiz-adv-x="1105" d="M102 454q0 68 12 134t37.5 128t63 116.5t89.5 100t115 78t142.5 50.5t168.5 18q176 0 387 -81q-34 -58 -49.5 -101t-32.5 -110h-39q-9 22 -14.5 34.5t-18 35.5t-24.5 37.5t-32 32t-42.5 28t-54 18t-67.5 7.5q-67 0 -124.5 -25.5t-98.5 -68.5t-72.5 -98.5t-50.5 -118.5 t-28.5 -125t-9.5 -122q0 -84 22 -149.5t60 -105.5t86.5 -60.5t103.5 -20.5q17 0 33 1t54.5 8.5t73 21t79.5 41.5t83 68l34 -18q-22 -50 -55 -157q-164 -78 -334 -78l-77 -110q34 4 56 4q31 0 63 -8t62 -24.5t48.5 -47.5t18.5 -72q0 -63 -38.5 -108.5t-101 -67t-141.5 -21.5 q-41 0 -82 9t-66 18.5t-67 27.5l38 68q96 -35 152 -35q122 0 122 93q0 31 -22.5 56.5t-67.5 25.5q-31 0 -80 -13l-27 27l126 186q-194 22 -303.5 144.5t-109.5 328.5z" />
<glyph unicode="&#xe8;" horiz-adv-x="1186" d="M99 456q0 259 162 435q36 39 75.5 69.5t73 50t72.5 33.5t66 20.5t61.5 10t50.5 4t41 0.5q28 0 59.5 -4.5t72.5 -17t78.5 -32.5t74.5 -54t64 -77.5t43.5 -107.5t16.5 -140q0 -55 -8 -127q-305 5 -456 5q-49 0 -146 -1t-146 -1q-6 -47 -6 -87q0 -160 84 -251t233 -91 q55 0 105 11.5t91 34t63.5 38.5t52.5 40l30 -23q-38 -48 -60 -135q-27 -24 -131 -54t-221 -30q-234 0 -365 125.5t-131 355.5zM369 619h492q9 39 12 64.5t3 82.5q0 26 -3.5 51.5t-16 58t-32.5 56t-56 40t-84 16.5q-45 0 -85 -16t-68.5 -39.5t-54 -60.5t-41 -67t-31 -72 t-21.5 -63t-14 -51zM460 1588q0 39 28 61.5t67 22.5q24 0 44 -10t30 -21t28 -34q4 -5 6 -8l244 -318h-86l-293 205q-41 30 -54.5 52t-13.5 50z" />
<glyph unicode="&#xe9;" horiz-adv-x="1186" d="M99 456q0 259 162 435q36 39 75.5 69.5t73 50t72.5 33.5t66 20.5t61.5 10t50.5 4t41 0.5q28 0 59.5 -4.5t72.5 -17t78.5 -32.5t74.5 -54t64 -77.5t43.5 -107.5t16.5 -140q0 -55 -8 -127q-305 5 -456 5q-49 0 -146 -1t-146 -1q-6 -47 -6 -87q0 -160 84 -251t233 -91 q55 0 105 11.5t91 34t63.5 38.5t52.5 40l30 -23q-38 -48 -60 -135q-27 -24 -131 -54t-221 -30q-234 0 -365 125.5t-131 355.5zM369 619h492q9 39 12 64.5t3 82.5q0 26 -3.5 51.5t-16 58t-32.5 56t-56 40t-84 16.5q-45 0 -85 -16t-68.5 -39.5t-54 -60.5t-41 -67t-31 -72 t-21.5 -63t-14 -51zM570 1281l299 312q21 22 37 36.5t40.5 27.5t47.5 13q40 0 67.5 -26.5t27.5 -62.5q0 -51 -57 -86l-365 -214h-97z" />
<glyph unicode="&#xea;" horiz-adv-x="1186" d="M99 456q0 259 162 435q36 39 75.5 69.5t73 50t72.5 33.5t66 20.5t61.5 10t50.5 4t41 0.5q28 0 59.5 -4.5t72.5 -17t78.5 -32.5t74.5 -54t64 -77.5t43.5 -107.5t16.5 -140q0 -55 -8 -127q-305 5 -456 5q-49 0 -146 -1t-146 -1q-6 -47 -6 -87q0 -160 84 -251t233 -91 q55 0 105 11.5t91 34t63.5 38.5t52.5 40l30 -23q-38 -48 -60 -135q-27 -24 -131 -54t-221 -30q-234 0 -365 125.5t-131 355.5zM369 619h492q9 39 12 64.5t3 82.5q0 26 -3.5 51.5t-16 58t-32.5 56t-56 40t-84 16.5q-45 0 -85 -16t-68.5 -39.5t-54 -60.5t-41 -67t-31 -72 t-21.5 -63t-14 -51zM369 1281l350 378h150l193 -378h-100l-188 219l-294 -219h-111z" />
<glyph unicode="&#xeb;" horiz-adv-x="1186" d="M99 456q0 259 162 435q36 39 75.5 69.5t73 50t72.5 33.5t66 20.5t61.5 10t50.5 4t41 0.5q28 0 59.5 -4.5t72.5 -17t78.5 -32.5t74.5 -54t64 -77.5t43.5 -107.5t16.5 -140q0 -55 -8 -127q-305 5 -456 5q-49 0 -146 -1t-146 -1q-6 -47 -6 -87q0 -160 84 -251t233 -91 q55 0 105 11.5t91 34t63.5 38.5t52.5 40l30 -23q-38 -48 -60 -135q-27 -24 -131 -54t-221 -30q-234 0 -365 125.5t-131 355.5zM369 619h492q9 39 12 64.5t3 82.5q0 26 -3.5 51.5t-16 58t-32.5 56t-56 40t-84 16.5q-45 0 -85 -16t-68.5 -39.5t-54 -60.5t-41 -67t-31 -72 t-21.5 -63t-14 -51zM384 1433q0 52 40 90.5t89 38.5t89 -38.5t40 -90.5q0 -51 -39 -89.5t-90 -38.5t-90 38.5t-39 89.5zM845 1433q0 52 39.5 90.5t88.5 38.5t89 -38.5t40 -90.5q0 -51 -39 -89.5t-90 -38.5t-89.5 38.5t-38.5 89.5z" />
<glyph unicode="&#xec;" d="M44 0q113 469 145.5 626t76.5 433q113 -12 135 -12q46 0 125 12q-5 -24 -22.5 -101.5t-36 -156.5t-22.5 -98q-73 -344 -142 -703q-8 1 -33.5 5t-47 6t-45.5 2q-22 0 -44.5 -2t-50 -6t-38.5 -5zM175 1588q0 39 28 61.5t67 22.5q24 0 44 -10t30 -21t28 -34q4 -5 6 -8 l243 -318h-85l-293 205q-42 30 -55 52t-13 50z" />
<glyph unicode="&#xed;" d="M44 0q113 469 145.5 626t76.5 433q113 -12 135 -12q46 0 125 12q-5 -24 -22.5 -101.5t-36 -156.5t-22.5 -98q-73 -344 -142 -703q-8 1 -33.5 5t-47 6t-45.5 2q-22 0 -44.5 -2t-50 -6t-38.5 -5zM274 1281l298 312q21 22 37 36.5t40.5 27.5t47.5 13q40 0 67.5 -26.5 t27.5 -62.5q0 -52 -55 -86l-365 -214h-98z" />
<glyph unicode="&#xee;" d="M44 0q113 469 145.5 626t76.5 433q113 -12 135 -12q46 0 125 12q-5 -24 -22.5 -101.5t-36 -156.5t-22.5 -98q-73 -344 -142 -703q-8 1 -33.5 5t-47 6t-45.5 2q-22 0 -44.5 -2t-50 -6t-38.5 -5zM62 1281l349 378h151l192 -378h-100l-187 219l-294 -219h-111z" />
<glyph unicode="&#xef;" d="M44 0q113 469 145.5 626t76.5 433q113 -12 135 -12q46 0 125 12q-5 -24 -22.5 -101.5t-36 -156.5t-22.5 -98q-73 -344 -142 -703q-8 1 -33.5 5t-47 6t-45.5 2q-22 0 -44.5 -2t-50 -6t-38.5 -5zM89 1433q0 52 39.5 90.5t88.5 38.5t88.5 -38.5t39.5 -90.5 q0 -51 -38.5 -89.5t-89.5 -38.5t-89.5 38.5t-38.5 89.5zM549 1433q0 52 39.5 90.5t88.5 38.5q32 0 61.5 -17t48 -47t18.5 -65q0 -51 -38.5 -89.5t-89.5 -38.5t-89.5 38.5t-38.5 89.5z" />
<glyph unicode="&#xf0;" horiz-adv-x="1311" d="M95 429q0 54 11 113.5t35 123.5t59 123.5t87 113t115 93t146.5 62.5t177.5 23q80 0 150 -28q-54 123 -171 268q-180 -66 -302 -120q-14 57 -47 104q136 41 281 99q-75 83 -177 181q80 20 144 63q104 -80 206 -179q202 74 315 124q15 -58 47 -105q-158 -48 -283 -99 q76 -82 134 -163.5t103 -175.5t68.5 -199.5t23.5 -219.5q0 -59 -11 -121t-36 -126.5t-61 -123.5t-90 -111t-119 -90.5t-151 -61t-184 -22.5q-136 0 -242.5 55.5t-167.5 159t-61 239.5zM345 327q0 -30 3.5 -58.5t12.5 -59.5t25.5 -56t40 -45.5t59.5 -32t80 -11.5 q59 0 112.5 25t93 66.5t73 97.5t56 116.5t38.5 123.5t23 119t7 103q0 60 -11.5 108t-36.5 87.5t-70 61.5t-108 22q-64 0 -120 -28t-95.5 -74t-72 -106.5t-52.5 -123.5t-33.5 -127.5t-19 -116t-5.5 -91.5z" />
<glyph unicode="&#xf1;" horiz-adv-x="1269" d="M49 0q22 75 32 117.5t37 169.5l106 496q32 154 46 276q80 -12 117 -12q18 0 40.5 2t50.5 5.5t44 4.5q-2 -5 -21 -77t-21 -87q160 180 367 180q35 0 71 -5.5t80 -23t76.5 -44.5t55 -76t22.5 -112q0 -57 -13 -117l-46 -215q-74 -348 -91 -482q-86 13 -139 13 q-49 0 -133 -13q75 261 97 363l47 205q31 137 31 209q0 68 -45.5 111t-125.5 43q-160 0 -254 -165q-12 -22 -21.5 -44.5t-15 -37t-15 -55t-13 -56t-16.5 -82.5l-43 -199q-20 -97 -50 -292q-13 1 -38 5t-46 6t-41 2q-35 0 -132 -13zM396 1329q17 97 91.5 170t169.5 73 q61 0 159 -46q9 -3 27 -10.5t28 -11.5t25.5 -9.5t26 -8t23 -4.5t23.5 -2q24 0 43 7.5t34 25t23 29.5t22 37h76q-28 -111 -93 -179t-158 -68q-45 0 -95 14.5t-86 31.5t-76.5 32t-69.5 15q-36 0 -70.5 -27t-43.5 -69h-79z" />
<glyph unicode="&#xf2;" horiz-adv-x="1311" d="M95 429q0 54 11 113.5t35 123.5t59 123.5t87 113t115 93t146.5 62.5t177.5 23q109 0 196.5 -28.5t141.5 -74t90 -107t50 -121t14 -121.5q0 -59 -11 -120.5t-36 -125.5t-61 -123t-90 -111.5t-119 -90.5t-151 -60.5t-184 -22.5q-136 0 -242.5 55.5t-167.5 159t-61 239.5z M345 327q0 -30 3.5 -58.5t12.5 -59.5t25.5 -56t40 -45.5t59.5 -32t80 -11.5q59 0 112.5 25t93 66.5t73 97.5t56 116.5t38.5 123.5t23 119t7 103q0 60 -11.5 108t-36.5 87.5t-70 61.5t-108 22q-64 0 -120 -28t-95.5 -73t-72 -105t-52.5 -123t-33.5 -127.5t-19 -116.5 t-5.5 -94zM522 1588q0 39 28 61.5t67 22.5q19 0 34.5 -4.5t30 -18t21 -21t23.5 -29.5l243 -318h-87l-291 205q-42 30 -55.5 52t-13.5 50z" />
<glyph unicode="&#xf3;" horiz-adv-x="1311" d="M95 429q0 54 11 113.5t35 123.5t59 123.5t87 113t115 93t146.5 62.5t177.5 23q109 0 196.5 -28.5t141.5 -74t90 -107t50 -121t14 -121.5q0 -59 -11 -120.5t-36 -125.5t-61 -123t-90 -111.5t-119 -90.5t-151 -60.5t-184 -22.5q-136 0 -242.5 55.5t-167.5 159t-61 239.5z M345 327q0 -30 3.5 -58.5t12.5 -59.5t25.5 -56t40 -45.5t59.5 -32t80 -11.5q59 0 112.5 25t93 66.5t73 97.5t56 116.5t38.5 123.5t23 119t7 103q0 60 -11.5 108t-36.5 87.5t-70 61.5t-108 22q-64 0 -120 -28t-95.5 -73t-72 -105t-52.5 -123t-33.5 -127.5t-19 -116.5 t-5.5 -94zM665 1281l299 312q22 22 37.5 36.5t40 27.5t47.5 13q40 0 67.5 -26.5t27.5 -62.5q0 -51 -56 -86l-364 -214h-99z" />
<glyph unicode="&#xf4;" horiz-adv-x="1311" d="M95 429q0 54 11 113.5t35 123.5t59 123.5t87 113t115 93t146.5 62.5t177.5 23q109 0 196.5 -28.5t141.5 -74t90 -107t50 -121t14 -121.5q0 -59 -11 -120.5t-36 -125.5t-61 -123t-90 -111.5t-119 -90.5t-151 -60.5t-184 -22.5q-136 0 -242.5 55.5t-167.5 159t-61 239.5z M345 327q0 -30 3.5 -58.5t12.5 -59.5t25.5 -56t40 -45.5t59.5 -32t80 -11.5q59 0 112.5 25t93 66.5t73 97.5t56 116.5t38.5 123.5t23 119t7 103q0 60 -11.5 108t-36.5 87.5t-70 61.5t-108 22q-64 0 -120 -28t-95.5 -73t-72 -105t-52.5 -123t-33.5 -127.5t-19 -116.5 t-5.5 -94zM420 1281l350 378h150l192 -378h-99l-188 219l-294 -219h-111z" />
<glyph unicode="&#xf5;" horiz-adv-x="1311" d="M95 429q0 54 11 113.5t35 123.5t59 123.5t87 113t115 93t146.5 62.5t177.5 23q109 0 196.5 -28.5t141.5 -74t90 -107t50 -121t14 -121.5q0 -59 -11 -120.5t-36 -125.5t-61 -123t-90 -111.5t-119 -90.5t-151 -60.5t-184 -22.5q-136 0 -242.5 55.5t-167.5 159t-61 239.5z M345 327q0 -30 3.5 -58.5t12.5 -59.5t25.5 -56t40 -45.5t59.5 -32t80 -11.5q59 0 112.5 25t93 66.5t73 97.5t56 116.5t38.5 123.5t23 119t7 103q0 60 -11.5 108t-36.5 87.5t-70 61.5t-108 22q-64 0 -120 -28t-95.5 -73t-72 -105t-52.5 -123t-33.5 -127.5t-19 -116.5 t-5.5 -94zM416 1329q17 97 91.5 170t169.5 73q60 0 159 -46q7 -3 31 -12.5t34.5 -13.5t28.5 -10t31.5 -8t26.5 -2q24 0 43 7.5t34.5 25t23 29.5t21.5 37h78q-28 -111 -94 -179t-159 -68q-44 0 -94 14.5t-86 31.5t-77 32t-70 15q-22 0 -45.5 -12t-42 -34t-24.5 -50h-80z" />
<glyph unicode="&#xf6;" horiz-adv-x="1311" d="M95 429q0 54 11 113.5t35 123.5t59 123.5t87 113t115 93t146.5 62.5t177.5 23q109 0 196.5 -28.5t141.5 -74t90 -107t50 -121t14 -121.5q0 -59 -11 -120.5t-36 -125.5t-61 -123t-90 -111.5t-119 -90.5t-151 -60.5t-184 -22.5q-136 0 -242.5 55.5t-167.5 159t-61 239.5z M345 327q0 -30 3.5 -58.5t12.5 -59.5t25.5 -56t40 -45.5t59.5 -32t80 -11.5q59 0 112.5 25t93 66.5t73 97.5t56 116.5t38.5 123.5t23 119t7 103q0 60 -11.5 108t-36.5 87.5t-70 61.5t-108 22q-64 0 -120 -28t-95.5 -73t-72 -105t-52.5 -123t-33.5 -127.5t-19 -116.5 t-5.5 -94zM469 1433q0 52 39.5 90.5t88.5 38.5t89 -38.5t40 -90.5q0 -51 -39 -89.5t-90 -38.5t-89.5 38.5t-38.5 89.5zM929 1433q0 52 39.5 90.5t88.5 38.5t89 -38.5t40 -90.5q0 -51 -39 -89.5t-90 -38.5t-89.5 38.5t-38.5 89.5z" />
<glyph unicode="&#xf7;" horiz-adv-x="1475" d="M164 604v143h1147v-143h-1147zM593 245q0 60 43 103t103 43q56 0 99.5 -44.5t43.5 -101.5q0 -58 -42.5 -100.5t-100.5 -42.5q-60 0 -103 41.5t-43 101.5zM593 1104q0 60 43 103t103 43q56 0 99.5 -44.5t43.5 -101.5q0 -38 -19.5 -71.5t-52.5 -53t-71 -19.5q-60 0 -103 42 t-43 102z" />
<glyph unicode="&#xf8;" horiz-adv-x="1311" d="M51 -93q164 184 175 195q-131 127 -131 327q0 54 11 113.5t35 123.5t59 123.5t87 113t115 93t146.5 62.5t177.5 23q176 0 289 -70q58 67 162 196q24 -27 34.5 -36.5t40.5 -33.5q-145 -156 -163 -179q66 -65 97.5 -152.5t31.5 -176.5q0 -59 -11 -120.5t-36 -125.5 t-61 -123t-90 -111.5t-119 -90.5t-151 -60.5t-184 -22.5q-157 0 -274 76q-23 -25 -174 -205q-19 23 -29.5 32.5t-37.5 28.5zM345 327q0 -31 7 -82l572 660q-58 89 -183 89q-57 0 -107 -21.5t-87 -59t-68.5 -85t-53 -103t-37.5 -111t-25.5 -110.5t-13.5 -98.5t-4 -78.5z M382 154q60 -90 184 -90q59 0 112.5 25t93 66.5t73 97.5t56 116.5t38.5 123.5t23 119t7 103q0 53 -9 97z" />
<glyph unicode="&#xf9;" horiz-adv-x="1269" d="M120 234q0 30 6 76.5t17 103.5t20.5 102.5t22 100.5t15.5 71q43 197 69 371q96 -12 129 -12q73 0 143 12q-27 -95 -60.5 -220.5t-73 -305t-39.5 -246.5q0 -163 159 -163q51 0 94.5 15.5t73.5 37t56.5 57t41.5 63.5t29 68.5t19 60t12 49.5q72 298 115 584q80 -12 124 -12 q46 0 131 12q-54 -203 -69 -285l-104 -498q-40 -187 -47 -276q-92 13 -119 13q-39 0 -131 -13q8 26 46 164q-49 -46 -87.5 -76.5t-86.5 -58.5t-99.5 -41t-110.5 -13q-60 0 -113 17t-94 48.5t-65 81.5t-24 112zM480 1588q0 39 28 61.5t67 22.5q19 0 34 -4.5t30 -18t21 -21 t24 -29.5l243 -318h-87l-291 205q-42 30 -55.5 52t-13.5 50z" />
<glyph unicode="&#xfa;" horiz-adv-x="1269" d="M120 234q0 30 6 76.5t17 103.5t20.5 102.5t22 100.5t15.5 71q43 197 69 371q96 -12 129 -12q73 0 143 12q-27 -95 -60.5 -220.5t-73 -305t-39.5 -246.5q0 -163 159 -163q51 0 94.5 15.5t73.5 37t56.5 57t41.5 63.5t29 68.5t19 60t12 49.5q72 298 115 584q80 -12 124 -12 q46 0 131 12q-54 -203 -69 -285l-104 -498q-40 -187 -47 -276q-92 13 -119 13q-39 0 -131 -13q8 26 46 164q-49 -46 -87.5 -76.5t-86.5 -58.5t-99.5 -41t-110.5 -13q-60 0 -113 17t-94 48.5t-65 81.5t-24 112zM646 1281l298 312q21 22 37 36.5t40 27.5t47 13q41 0 68 -26.5 t27 -62.5q0 -52 -55 -86l-365 -214h-97z" />
<glyph unicode="&#xfb;" horiz-adv-x="1269" d="M120 234q0 30 6 76.5t17 103.5t20.5 102.5t22 100.5t15.5 71q43 197 69 371q96 -12 129 -12q73 0 143 12q-27 -95 -60.5 -220.5t-73 -305t-39.5 -246.5q0 -163 159 -163q51 0 94.5 15.5t73.5 37t56.5 57t41.5 63.5t29 68.5t19 60t12 49.5q72 298 115 584q80 -12 124 -12 q46 0 131 12q-54 -203 -69 -285l-104 -498q-40 -187 -47 -276q-92 13 -119 13q-39 0 -131 -13q8 26 46 164q-49 -46 -87.5 -76.5t-86.5 -58.5t-99.5 -41t-110.5 -13q-60 0 -113 17t-94 48.5t-65 81.5t-24 112zM433 1281l350 378h150l192 -378h-99l-188 219l-294 -219h-111z " />
<glyph unicode="&#xfc;" horiz-adv-x="1269" d="M120 234q0 30 6 76.5t17 103.5t20.5 102.5t22 100.5t15.5 71q43 197 69 371q96 -12 129 -12q73 0 143 12q-27 -95 -60.5 -220.5t-73 -305t-39.5 -246.5q0 -163 159 -163q51 0 94.5 15.5t73.5 37t56.5 57t41.5 63.5t29 68.5t19 60t12 49.5q72 298 115 584q80 -12 124 -12 q46 0 131 12q-54 -203 -69 -285l-104 -498q-40 -187 -47 -276q-92 13 -119 13q-39 0 -131 -13q8 26 46 164q-49 -46 -87.5 -76.5t-86.5 -58.5t-99.5 -41t-110.5 -13q-60 0 -113 17t-94 48.5t-65 81.5t-24 112zM438 1433q0 52 39.5 90.5t88.5 38.5t88.5 -38.5t39.5 -90.5 q0 -51 -38.5 -89.5t-89.5 -38.5t-89.5 38.5t-38.5 89.5zM897 1433q0 52 40 90.5t89 38.5t89 -38.5t40 -90.5q0 -51 -39 -89.5t-90 -38.5q-25 0 -48.5 10.5t-41 28t-28.5 41t-11 48.5z" />
<glyph unicode="&#xfd;" horiz-adv-x="1063" d="M15 -570q17 24 55.5 76.5t60 83t52 75.5t54.5 83q7 13 40 64t59.5 92t26.5 45q0 10 -23 110.5t-44 181.5l-108 451q-16 69 -93 367q26 -1 78 -6.5t76 -5.5q57 0 127 12q6 -42 14 -92t14.5 -88.5t18.5 -102.5t18 -95t21.5 -109.5t20 -102t23 -116t22.5 -110.5 q273 479 403 816q84 -12 101 -12q16 0 33 1.5t41 6t29 4.5l-261 -435q-230 -385 -385 -662q-200 -360 -276 -532q-67 13 -95 13q-32 0 -103 -13zM531 1281l298 312q22 22 37.5 36.5t40 27.5t47.5 13q40 0 67.5 -26.5t27.5 -62.5q0 -52 -55 -86l-365 -214h-98z" />
<glyph unicode="&#xfe;" horiz-adv-x="1311" d="M-64 -570q35 124 107 449.5t138 656.5q41 203 111 578.5t99 524.5q13 -1 38 -5t47 -6.5t41 -2.5q15 0 32.5 1.5t30 3t35.5 5t35 4.5q-115 -473 -165 -717q156 162 349 162q28 0 58 -4.5t64 -14t66 -27.5t63.5 -42t57 -60t45.5 -79.5t31 -102t11 -125.5q0 -140 -46.5 -262 t-125 -206t-183.5 -132t-221 -48q-59 0 -107.5 10.5t-78.5 24t-59 38.5t-42.5 41.5t-34.5 45.5q-54 -266 -133 -711q-13 1 -41 4.5t-50 6t-42 2.5q-22 0 -44 -2t-49 -6t-37 -5zM384 348q0 -123 56 -189t157 -66q53 0 100 18t82.5 50t66 73.5t51.5 91t37 99.5t25 101.5 t13.5 96t4.5 82.5q0 34 -4 64.5t-13.5 61t-25.5 55t-37.5 43.5t-52 29.5t-67.5 10.5q-58 0 -109 -22t-90 -59.5t-71.5 -88t-55 -107t-37.5 -117t-22.5 -118t-7.5 -109.5z" />
<glyph unicode="&#xff;" horiz-adv-x="1063" d="M15 -570q17 24 55.5 76.5t60 83t52 75.5t54.5 83q7 13 40 64t59.5 92t26.5 45q0 10 -23 110.5t-44 181.5l-108 451q-16 69 -93 367q26 -1 78 -6.5t76 -5.5q57 0 127 12q6 -42 14 -92t14.5 -88.5t18.5 -102.5t18 -95t21.5 -109.5t20 -102t23 -116t22.5 -110.5 q273 479 403 816q84 -12 101 -12q16 0 33 1.5t41 6t29 4.5l-261 -435q-230 -385 -385 -662q-200 -360 -276 -532q-67 13 -95 13q-32 0 -103 -13zM323 1433q0 35 19 65t48.5 47t60.5 17q50 0 89.5 -38.5t39.5 -90.5q0 -51 -39 -89.5t-90 -38.5t-89.5 38.5t-38.5 89.5z M783 1433q0 52 39.5 90.5t89 38.5t89 -38.5t39.5 -90.5q0 -51 -38.5 -89.5t-90 -38.5t-90 38.5t-38.5 89.5z" />
<glyph unicode="&#x152;" horiz-adv-x="2211" d="M152 615q0 124 30.5 242.5t81 212.5t106.5 165.5t117 125.5q101 87 224 136.5t296 49.5q68 0 127 -8.5t101.5 -20.5t82 -34.5t64 -40.5t52 -48t41 -48.5t36.5 -50.5q20 94 38 219q168 -13 249 -13q246 0 496 13q-17 -31 -25 -53t-10.5 -43.5t-2.5 -57.5 q-102 13 -165.5 17t-159.5 4q-84 0 -158 -4q-40 -166 -116 -517h173q185 0 329 17q-25 -45 -25 -80q0 -12 3 -41.5t4 -37.5q-38 9 -169.5 16.5t-184.5 7.5h-153q-49 -223 -117 -614q118 0 298 6.5t268 12.5q-19 -35 -19 -80q0 -36 6 -68q-246 13 -418 13q-71 0 -203 -3.5 t-199 -9.5q27 107 37 179q-102 -111 -225 -160.5t-283 -49.5q-146 0 -264 47t-197.5 132t-122.5 204.5t-43 262.5zM420 562q0 -109 27.5 -199.5t77 -153t120.5 -97t155 -34.5q151 0 258.5 64.5t197.5 202.5q82 121 131.5 306.5t49.5 330.5q0 102 -21 183t-66.5 143 t-123 95.5t-182.5 33.5q-45 0 -86 -5.5t-92 -23.5t-96 -47.5t-94.5 -81t-91.5 -120.5q-77 -127 -120.5 -291.5t-43.5 -305.5z" />
<glyph unicode="&#x153;" horiz-adv-x="2005" d="M95 420q0 62 12.5 126t38 128t62.5 123t89.5 110t114 89t141 59.5t166.5 21.5q278 0 398 -168q78 85 169 125.5t204 40.5q205 0 325 -115q60 -58 87 -135t27 -210q0 -11 -1 -24t-1.5 -23t-2 -23.5l-2.5 -22.5h-750q-13 -76 -13 -108q0 -153 84 -238t234 -85 q57 0 109.5 12t94.5 34t66 38t51 38l25 -21q-23 -42 -33.5 -65.5t-31.5 -77.5q-199 -80 -356 -80q-129 0 -231.5 56t-157.5 150q-44 -45 -87.5 -79t-98 -64t-119.5 -45.5t-138 -15.5q-102 0 -189 30t-150.5 86.5t-99.5 142t-36 190.5zM340 321q0 -124 65 -195t154 -71 q31 0 63 7t72 27t75.5 51.5t70.5 85.5t61 124q25 69 41.5 137.5t22.5 117t6 87.5q0 302 -228 302q-64 0 -120 -29.5t-96 -77.5t-72.5 -110.5t-53.5 -127t-35 -129t-20 -114.5t-6 -85zM1188 619h492q12 76 12 155q0 14 -0.5 25t-4 34.5t-10 41.5t-21 40t-34 36.5t-51 24.5 t-71.5 10q-46 0 -87.5 -17.5t-73 -47t-58 -66.5t-44.5 -79.5t-30 -81t-19 -75.5z" />
<glyph unicode="&#x178;" horiz-adv-x="1269" d="M184 1515q110 -13 156 -13q49 0 145 13l41 -135q50 -171 84 -276q97 -286 118 -346q69 96 105.5 151.5t124.5 196.5q70 112 236 409q94 -13 117 -13q18 0 38 2.5t44.5 6t37.5 4.5q-23 -33 -94 -130t-155.5 -210t-92.5 -124q-41 -56 -150.5 -216t-161.5 -240l-36 -194 q-49 -274 -68 -401q-76 13 -139 13q-77 0 -150 -13q17 63 79.5 326.5t62.5 268.5q0 20 -130 370.5t-212 549.5zM504 1787q0 53 40 91t89 38t88.5 -38t39.5 -91q0 -51 -38.5 -89.5t-89.5 -38.5q-25 0 -49 10.5t-41 28t-28 41t-11 48.5zM964 1787q0 53 40 91t89 38 q32 0 61 -17t47.5 -47t18.5 -65q0 -51 -38 -89.5t-89 -38.5q-25 0 -48.5 10.5t-41 28t-28.5 41t-11 48.5z" />
<glyph unicode="&#x2c6;" d="M95 1281l350 378h150l192 -378h-99l-188 219l-295 -219h-110z" />
<glyph unicode="&#x2dc;" d="M112 1329q17 97 92 170t170 73q61 0 160 -46q7 -3 31 -12.5t34.5 -13.5t28.5 -10t31.5 -8t26.5 -2q24 0 43 7.5t34 25t23 29.5t22 37h77q-14 -54 -37 -98.5t-54.5 -78t-72.5 -52t-88 -18.5q-45 0 -95 14.5t-85.5 31.5t-76.5 32t-70 15q-36 0 -70 -27t-44 -69h-80z" />
<glyph unicode="&#x2000;" horiz-adv-x="1013" />
<glyph unicode="&#x2001;" horiz-adv-x="2026" />
<glyph unicode="&#x2002;" horiz-adv-x="1013" />
<glyph unicode="&#x2003;" horiz-adv-x="2026" />
<glyph unicode="&#x2004;" horiz-adv-x="675" />
<glyph unicode="&#x2005;" horiz-adv-x="506" />
<glyph unicode="&#x2006;" horiz-adv-x="337" />
<glyph unicode="&#x2007;" horiz-adv-x="337" />
<glyph unicode="&#x2008;" horiz-adv-x="253" />
<glyph unicode="&#x2009;" horiz-adv-x="405" />
<glyph unicode="&#x200a;" horiz-adv-x="112" />
<glyph unicode="&#x2010;" horiz-adv-x="899" d="M126 441q18 41 27.5 74t13.5 58.5t10 80.5q279 -6 281 -6q47 0 99.5 1t117 3t99.5 2q-25 -64 -34.5 -104.5t-15.5 -108.5q-34 0 -134.5 4t-154.5 4q-101 0 -309 -8z" />
<glyph unicode="&#x2011;" horiz-adv-x="899" d="M126 441q18 41 27.5 74t13.5 58.5t10 80.5q279 -6 281 -6q47 0 99.5 1t117 3t99.5 2q-25 -64 -34.5 -104.5t-15.5 -108.5q-34 0 -134.5 4t-154.5 4q-101 0 -309 -8z" />
<glyph unicode="&#x2012;" horiz-adv-x="899" d="M126 441q18 41 27.5 74t13.5 58.5t10 80.5q279 -6 281 -6q47 0 99.5 1t117 3t99.5 2q-25 -64 -34.5 -104.5t-15.5 -108.5q-34 0 -134.5 4t-154.5 4q-101 0 -309 -8z" />
<glyph unicode="&#x2013;" horiz-adv-x="1105" d="M-19 460q21 92 32 171h1112q-17 -59 -22.5 -87t-11.5 -84h-1110z" />
<glyph unicode="&#x2014;" horiz-adv-x="2211" d="M270 460q30 131 36 171h1636q-18 -63 -24 -89.5t-12 -81.5h-1636z" />
<glyph unicode="&#x2018;" d="M162 982q0 43 39 94.5t141 155.5l300 307l42 -28l-283 -525q-31 -58 -59.5 -81t-73.5 -23q-40 0 -73 28.5t-33 71.5z" />
<glyph unicode="&#x2019;" d="M162 907l283 524q31 58 59.5 81t73.5 23q40 0 73 -28.5t33 -71.5t-38.5 -93t-143.5 -156l-299 -308z" />
<glyph unicode="&#x201a;" d="M-131 -342l283 523q31 58 59.5 81t73.5 23q40 0 73 -28.5t33 -70.5q0 -43 -38.5 -93.5t-141.5 -156.5l-300 -308z" />
<glyph unicode="&#x201c;" horiz-adv-x="981" d="M186 982q0 43 38.5 94t142.5 156l298 307l42 -28l-283 -525q-30 -58 -58.5 -81t-73.5 -23q-41 0 -73.5 28.5t-32.5 71.5zM570 982q0 43 39 94t143 156l299 307l42 -28l-283 -525q-31 -58 -59.5 -81t-73.5 -23q-26 0 -50 12.5t-40.5 35.5t-16.5 52z" />
<glyph unicode="&#x201d;" horiz-adv-x="981" d="M164 907l283 524q31 58 59.5 81t73.5 23q40 0 73 -28.5t33 -71.5t-38.5 -93t-143.5 -156l-299 -308zM549 907l283 524q30 58 58.5 81t73.5 23q26 0 50 -12.5t40 -35.5t16 -52q0 -43 -38.5 -93t-142.5 -156l-298 -308z" />
<glyph unicode="&#x201e;" horiz-adv-x="981" d="M-144 -342l283 523q31 58 59.5 81t73.5 23q40 0 73 -28.5t33 -70.5q0 -43 -38.5 -93t-142.5 -157l-299 -308zM237 -342l282 523q31 58 59.5 81t73.5 23q41 0 73.5 -28.5t32.5 -70.5q0 -43 -38.5 -93.5t-141.5 -156.5l-299 -308z" />
<glyph unicode="&#x2022;" horiz-adv-x="1105" d="M215 777q0 104 52.5 192.5t141 140t191 51.5t191 -51.5t141 -140t52.5 -192.5t-52 -193t-140.5 -141t-192 -52t-192 52t-140.5 141t-52 193z" />
<glyph unicode="&#x2026;" horiz-adv-x="2211" d="M162 141.5q0 61.5 45.5 108t107 46.5t108 -46.5t46.5 -108.5q0 -60 -46 -106t-109 -46q-61 0 -106.5 45.5t-45.5 107zM897 141.5q0 61.5 46 108t107.5 46.5t108 -46.5t46.5 -108.5q0 -60 -46 -106t-108 -46t-108 45.5t-46 107zM1634 141.5q0 61.5 46 108t107.5 46.5 t108 -46.5t46.5 -108.5q0 -60 -46 -106t-109 -46q-61 0 -107 45.5t-46 107z" />
<glyph unicode="&#x202f;" horiz-adv-x="405" />
<glyph unicode="&#x2039;" horiz-adv-x="614" d="M95 559l203 218q18 19 44.5 48t36 39.5t26.5 29.5t31.5 36.5t34.5 42.5q39 -69 107 -106q-187 -167 -329 -327q28 -64 92.5 -191t103.5 -192q-62 -14 -80.5 -21t-56.5 -34q-41 104 -85 200t-66 139t-62 118z" />
<glyph unicode="&#x203a;" horiz-adv-x="614" d="M38 208q188 171 329 328q-33 72 -98.5 201.5t-95.5 182.5q48 7 70.5 15.5t64.5 37.5q95 -242 211 -458q-26 -29 -200 -217q-112 -120 -175 -196q-41 71 -106 106z" />
<glyph unicode="&#x205f;" horiz-adv-x="506" />
<glyph unicode="&#x2122;" horiz-adv-x="2102" d="M192 1420q7 20 7 51q0 24 -7 46q136 -8 350 -8q187 0 334 8q-7 -29 -7 -44q0 -6 7 -53q-76 7 -247 7q-3 -42 -3 -122v-427q0 -56 7 -157q-43 9 -97 9q-41 0 -91 -9q11 222 11 265v323q0 65 -2 118q-178 0 -262 -7zM889 721q76 357 131 796q38 -5 71 0l37 -75 q70 -130 113.5 -204.5t130.5 -211.5l63 -102q124 189 346 593q30 -4 68 0l9 -97q5 -61 13.5 -128t19.5 -147.5t17 -129.5q2 -16 6 -41t8.5 -52.5t10 -57t10.5 -56.5t9.5 -50t7.5 -37q-58 9 -98 9q-37 0 -93 -9q-7 122 -13 191q-2 27 -19.5 165.5t-18.5 154.5 q-68 -103 -155.5 -253t-137.5 -258q-33 6 -62 0q-78 143 -175 303q-6 10 -37 60t-55.5 90t-27.5 46q-2 -12 -5 -38q-40 -300 -46 -461q-62 9 -66 9q-12 0 -62 -9z" />
<glyph unicode="&#xe000;" horiz-adv-x="1061" d="M0 0v1062h1062v-1062h-1062z" />
<glyph unicode="&#xfb01;" horiz-adv-x="1269" d="M95 0q31 124 76 320.5t84 377t48 239.5q-112 0 -185 -6q12 37 16 55.5t7 55.5q15 0 44.5 -1t44.5 -1h93q9 57 19 103t27.5 104.5t46 115t66.5 106.5q136 177 301 177q32 0 57.5 -2.5t41.5 -5t58 -10.5q-51 -116 -58 -208l-26 -25q-34 24 -56 38t-58 28t-67 14 q-14 0 -26 -1t-35 -11t-39 -27.5t-28.5 -54.5t-12.5 -87q0 -10 15 -161l8 -93q180 0 228 2q-13 -34 -17.5 -53.5t-9.5 -57.5q-120 6 -121 6h-88q-38 -110 -91.5 -383t-96.5 -554q-80 13 -133 13q-24 0 -46 -2t-52.5 -6t-34.5 -5zM741 0q112 469 145 626t76 433 q114 -12 135 -12q47 0 127 12q-7 -32 -43 -185.5t-39 -170.5q-74 -344 -142 -703q-8 1 -33.5 5t-47.5 6t-45 2q-22 0 -44.5 -2t-50 -6t-38.5 -5zM1015 1431q0 60 43.5 102t100.5 42q55 0 98 -42t43 -102q0 -37 -19 -70.5t-51.5 -53.5t-70.5 -20q-29 0 -56 12.5t-46 32 t-30.5 46t-11.5 53.5z" />
<glyph unicode="&#xfb02;" horiz-adv-x="1269" d="M95 0q31 124 76 320.5t84 377t48 239.5q-112 0 -185 -6q12 37 16 55.5t7 55.5q15 0 44.5 -1t44.5 -1h93q9 57 19 103t27.5 104.5t46 115t66.5 106.5q136 177 301 177q32 0 57.5 -2.5t41.5 -5t58 -10.5q-51 -116 -58 -208l-26 -25q-34 24 -56 38t-58 28t-67 14 q-14 0 -26 -1t-35 -11t-39 -27.5t-28.5 -54.5t-12.5 -87q0 -10 15 -161l8 -93q180 0 228 2q-13 -34 -17.5 -53.5t-9.5 -57.5q-120 6 -121 6h-88q-38 -110 -91.5 -383t-96.5 -554q-80 13 -133 13q-24 0 -46 -2t-52.5 -6t-34.5 -5zM743 0q9 35 36 142.5t44 180.5t31 144 q13 65 56.5 281t63.5 317t51.5 269t55.5 305q96 -14 139 -14q44 0 127 14q-71 -286 -182 -810q-77 -356 -93 -445q-5 -34 -29.5 -171.5t-35.5 -212.5q-83 13 -135 13q-40 0 -129 -13z" />
</font>
</defs>
</svg>
