<?xml version="1.0" standalone="no"?>
<!DOCTYPE svg PUBLIC "-//W3C//DTD SVG 1.1//EN" "http://www.w3.org/Graphics/SVG/1.1/DTD/svg11.dtd" >
<svg xmlns="http://www.w3.org/2000/svg">
<metadata></metadata>
<defs>
<font id="optimamediumitalic" horiz-adv-x="1085" >
<font-face units-per-em="2048" ascent="1638" descent="-410" />
<missing-glyph horiz-adv-x="542" />
<glyph horiz-adv-x="2048" />
<glyph horiz-adv-x="2048" />
<glyph unicode="&#xd;" horiz-adv-x="2048" />
<glyph unicode=" "  horiz-adv-x="542" />
<glyph unicode="&#x09;" horiz-adv-x="542" />
<glyph unicode="&#xa0;" horiz-adv-x="542" />
<glyph unicode="!" horiz-adv-x="721" d="M159 100q0 55 38.5 94.5t92.5 39.5q56 0 95.5 -39.5t39.5 -94.5t-39 -94t-96 -39q-55 0 -93 39t-38 94zM315 389l112 924q4 31 8 53t14 50.5t23.5 46.5t36.5 30.5t53 12.5q53 0 81 -32t28 -82q0 -47 -24 -128l-270 -875q-17 4 -31 4q-18 0 -31 -4z" />
<glyph unicode="&#x22;" d="M410 901l70 597h182l-182 -597h-70zM758 901l69 597h182l-182 -597h-69z" />
<glyph unicode="#" d="M6 412l27 133h232l63 302h-230l28 132h230l100 460h147l-97 -460h277l98 460h150l-99 -460h232l-29 -132h-230l-64 -302h230l-29 -133h-230l-87 -412h-149l86 412h-275l-89 -412h-149l87 412h-230zM412 545h278l66 302h-278z" />
<glyph unicode="$" d="M6 104q1 1 8 11.5t10.5 16t11 19t12 23.5t11.5 27t11.5 32.5t9 36t7.5 41.5l31 2q13 -50 35 -90.5t48.5 -66.5t54 -45t58 -29t53.5 -15t47 -7l124 626q-35 19 -52.5 29t-49 29t-48.5 32t-42 34.5t-39 40t-30.5 44.5t-24.5 52.5t-14 59.5t-6 70q0 34 6 69.5t21 78t38 81 t60.5 75.5t85 64t115.5 43.5t148 17.5q12 82 15 124q29 -8 69 -8q3 0 33 4q-22 -69 -33 -122q193 -29 312 -123q-23 -30 -37.5 -58t-22.5 -58t-13 -67h-26q-8 24 -14.5 41t-25.5 48.5t-42 53t-63 42t-90 28.5l-121 -558q42 -20 70.5 -35t65 -38.5t60.5 -45.5t49.5 -53 t40 -65.5t24 -79t9.5 -95.5q0 -104 -40 -193.5t-107.5 -150t-155 -96t-183.5 -38.5q-20 -114 -20 -204q-42 9 -56 9q-5 0 -56 -6q33 109 50 201q-103 9 -192 38t-200 103zM412 1133q0 -40 9 -72.5t20.5 -53.5t37.5 -44t44.5 -36t56.5 -37l106 525q-129 -9 -201.5 -83.5 t-72.5 -198.5zM499 60q69 8 124.5 39.5t89.5 76t52 95.5t18 102q0 31 -4.5 58.5t-14 50t-20 41.5t-26.5 36t-27.5 29t-30.5 25t-28.5 19t-26.5 17z" />
<glyph unicode="%" horiz-adv-x="1929" d="M165 1129q0 74 31.5 146.5t85 128t130 90.5t159.5 35q88 0 159 -38t113.5 -110.5t42.5 -166.5q0 -78 -31.5 -154t-84 -134t-127 -93.5t-154.5 -35.5q-89 0 -162.5 40.5t-117.5 117t-44 174.5zM323 1061q0 -102 45.5 -157t111.5 -55q50 0 92.5 30t70.5 76.5t48 104.5 t29 112.5t9 101.5q0 84 -41.5 143.5t-111.5 59.5q-58 0 -106.5 -38t-80 -98.5t-49 -133.5t-17.5 -146zM447 -74l1034 1657q3 0 23 -3.5t31 -3.5q10 0 31 3.5t23 3.5l-1034 -1657q-2 0 -22.5 2t-31.5 2q-9 0 -30.5 -2t-23.5 -2zM1148 298q0 59 20 117.5t57 109t86.5 89 t112.5 60.5t130 22q87 0 158.5 -37.5t114 -110t42.5 -166.5q0 -79 -31.5 -154.5t-83.5 -133.5t-126.5 -93.5t-155.5 -35.5q-66 0 -125.5 24t-103.5 66.5t-69.5 105.5t-25.5 137zM1307 230q0 -103 45.5 -158t110.5 -55q50 0 92.5 30t70.5 77t48.5 104.5t29.5 112.5t9 102 q0 54 -18 99.5t-54 73.5t-83 28q-57 0 -105.5 -37.5t-79.5 -98t-48.5 -133t-17.5 -145.5z" />
<glyph unicode="&#x26;" horiz-adv-x="1566" d="M161 338q0 47 11.5 91.5t29 80.5t46 71t54 60.5t63 52.5t63 43t63 35.5t54.5 27.5t45 20q-97 153 -97 285q0 75 25.5 137.5t66 103t92.5 68t102 39.5t98 12q77 0 139.5 -33t97 -89t34.5 -123q0 -44 -14 -85.5t-34 -73.5t-53.5 -64t-61 -53t-69.5 -46t-65 -36.5l-61 -30.5 q143 -209 352 -483q79 75 148.5 194.5t94.5 217.5h13q22 -78 85 -126q-15 -26 -35 -55.5t-39.5 -55t-44.5 -54.5t-43.5 -50t-43 -46.5t-36.5 -37.5t-30.5 -30t-19.5 -19q11 -12 121.5 -142t135.5 -157q-77 15 -135 15q-78 0 -128 -15q-17 29 -37 58t-31.5 44.5t-32.5 43 t-25 32.5q-22 -18 -36.5 -29.5t-47.5 -35t-60 -39t-69.5 -35.5t-83 -32t-92 -20.5t-103.5 -8.5q-89 0 -161 25t-116.5 64t-74.5 89.5t-42 99t-12 95.5zM352 404q0 -90 44 -162.5t118.5 -112.5t162.5 -40q40 0 86.5 9t116.5 41.5t131 84.5q-219 278 -381 534 q-278 -119 -278 -354zM651 1168q0 -121 103 -280q261 145 261 324q0 72 -41.5 122.5t-118.5 50.5q-37 0 -73.5 -14.5t-65.5 -41.5t-47 -69t-18 -92z" />
<glyph unicode="'" horiz-adv-x="542" d="M313 901l69 597h182l-182 -597h-69z" />
<glyph unicode="(" horiz-adv-x="721" d="M207 419q0 167 55 352.5t163 355.5q38 59 81 113t77 90.5t79 76.5t71 60.5t68 52.5q7 -34 42 -55q-34 -29 -48 -41.5t-49.5 -48.5t-59.5 -67.5t-58.5 -83.5t-65.5 -112q-105 -199 -155.5 -409t-50.5 -410q0 -167 39 -317.5t92 -248.5q-42 -7 -68 -35q-27 48 -46.5 86.5 t-53.5 119t-56 153t-39 172.5t-17 196z" />
<glyph unicode=")" horiz-adv-x="721" d="M-43 -247q40 35 61 55t61.5 64t79 102t77.5 132q105 199 156 409t51 409q0 167 -39 318t-91 249q38 7 66 35q20 -36 31 -57t36.5 -74.5t42 -95t38 -106t34.5 -122.5t22.5 -130.5t9.5 -141.5q0 -167 -56 -353.5t-164 -354.5q-47 -73 -97 -134.5t-103 -111.5t-87.5 -78.5 t-87.5 -68.5q-12 35 -41 55z" />
<glyph unicode="*" d="M280 1036q82 12 313 82q-48 35 -135 90.5t-137 83.5q55 55 87 112q57 -71 226 -236q27 210 19 332q39 -16 61 -19.5t71 -1.5q-16 -46 -48.5 -166t-37.5 -151q223 101 295 145q6 -31 11 -49t13 -37t24 -47q-160 -19 -328 -72q141 -100 276 -180q-32 -26 -48 -46t-41 -62 q-73 94 -222 239q0 -3 -4 -46.5t-7.5 -85.5t-6 -97t-1.5 -93q-43 17 -70 20.5t-68 2.5q18 52 51.5 159t45.5 153q-176 -83 -294 -159q0 78 -45 129z" />
<glyph unicode="+" horiz-adv-x="1286" d="M100 469v130h473v465h144v-465h472v-130h-472v-469h-144v469h-473z" />
<glyph unicode="," horiz-adv-x="542" d="M-33 -373l211 491q21 48 37.5 74t37.5 39.5t51 13.5q41 0 66 -23t25 -63q0 -49 -47 -116l-331 -441z" />
<glyph unicode="-" horiz-adv-x="721" d="M108 443q44 87 33 176q101 -16 243 -16q100 0 263 16q-43 -77 -32 -176q-90 11 -261 11q-138 0 -246 -11z" />
<glyph unicode="." horiz-adv-x="542" d="M116 100q0 56 38 95t93 39q57 0 96 -39t39 -95q0 -55 -39 -94t-96 -39q-55 0 -93 39t-38 94z" />
<glyph unicode="/" horiz-adv-x="603" d="M-37 -15l660 1517q43 -13 73 -13q32 0 66 13l-667 -1517q-28 13 -60 13q-29 0 -72 -13z" />
<glyph unicode="0" d="M95 456q0 191 56 412.5t147 355.5q78 116 181 184.5t215 68.5q81 0 147.5 -27t112 -73t76.5 -109t45.5 -133t14.5 -147q0 -49 -5.5 -108.5t-18 -132.5t-31 -147.5t-47 -151.5t-63 -146.5t-82 -131t-102 -106.5t-124 -71t-146.5 -26q-80 0 -144.5 27.5t-107 74t-71 110 t-41 132.5t-12.5 145zM278 311q0 -33 3 -62t11 -59.5t22.5 -55.5t35 -44.5t51.5 -30.5t70 -11q32 0 61 8.5t53 25t45 36t38.5 46t31 49.5t26.5 52.5t20 48.5t16 44q54 155 99.5 382.5t45.5 392.5q0 65 -15.5 114.5t-38.5 77t-52.5 44.5t-52.5 22t-44 5q-39 0 -74 -13.5 t-61.5 -34.5t-51 -51.5t-40.5 -58t-30.5 -61t-22 -54t-14.5 -42.5q-60 -196 -96 -405t-36 -365z" />
<glyph unicode="1" d="M197 1187v16q116 37 222.5 77t172 67.5t143 65.5t102.5 51t83 44l14 -4q-24 -95 -64 -269t-89 -403.5t-89.5 -463.5t-53.5 -381q-44 15 -104 15q-84 0 -132 -15q56 221 97 395.5t88.5 407t94.5 500.5q-84 -36 -212 -100.5t-199 -104.5q-22 57 -74 102z" />
<glyph unicode="2" d="M-24 -13q3 56 3 80q239 189 425.5 368.5t283.5 322.5q76 112 103 194.5t27 163.5q0 71 -21.5 124.5t-58 83.5t-77.5 44.5t-85 14.5q-39 0 -76.5 -11.5t-76 -37.5t-71.5 -75.5t-54 -116.5h-29q-22 71 -74 136q32 34 53.5 55.5t61 51t78 46t94.5 29t119 12.5q97 0 180 -29 t139.5 -79.5t88 -119t31.5 -146.5q0 -67 -20.5 -130t-64 -126.5t-96.5 -122t-132 -133.5q-154 -143 -253 -227t-259 -205q163 -2 371 -2q150 0 356 20q-35 -66 -35 -141q0 -28 7 -44q-164 15 -427 15q-172 0 -267 -1.5t-134 -4t-110 -9.5z" />
<glyph unicode="3" d="M-33 35q46 76 59 174l15 2q15 -23 25.5 -37.5t37 -40t55 -41t75 -28t100.5 -12.5q75 0 141 25.5t112.5 67t80 94t50 107t16.5 106.5q0 112 -64 187t-173 75q-63 0 -137 -22q20 50 24 114q43 -11 89 -11q23 0 51 6t59 19.5t61 33t57.5 49t48 65t33 82.5t12.5 100 q0 46 -10 82.5t-28 60.5t-40 41.5t-48 26.5t-49 13t-47 4q-54 0 -100.5 -18.5t-74 -43t-50.5 -58.5t-32 -55t-16 -43h-18q-19 104 -54 164q78 69 176 106t203 37q109 0 196 -38.5t138 -113t51 -171.5q0 -51 -14 -97.5t-38 -82.5t-54 -66.5t-64 -52t-65.5 -36t-60.5 -21.5 q-52 -13 -54 -15q0 -1 -1 -3.5t-1 -3.5q0 -7 15 -10h3q60 -6 111 -27.5t90.5 -58.5t62 -93t22.5 -125q0 -92 -46 -180t-126.5 -156.5t-201.5 -110.5t-259 -42q-197 0 -344 72z" />
<glyph unicode="4" d="M29 389q10 34 14 84l847 1001q46 -15 78 -15q7 0 14 0.5t13 1.5t11 2t10 2.5t9 3t9 3t8 2.5q-9 -38 -26 -108q-78 -329 -107 -458t-78 -376q126 5 228 15q-7 -20 -10.5 -32.5t-7.5 -31.5t-5.5 -41t-1.5 -51q-98 11 -228 11q-25 -98 -45.5 -222.5t-20.5 -192.5 q-45 15 -110 15q-60 0 -106 -15q58 204 104 415q-185 4 -305 4q-156 0 -294 -17zM226 534h434l165 738z" />
<glyph unicode="5" d="M8 54q40 59 52 170h14q101 -174 299 -174q75 0 139.5 26t110 70t78 101.5t48 120t15.5 125.5q0 54 -17 103t-49.5 87.5t-84 61.5t-114.5 23q-114 0 -232 -82q-11 19 -37 31q22 64 51 200t52 290.5t25 248.5q157 -14 406 -14q219 0 332 14q-43 -70 -43 -190 q-134 14 -195 14h-400l-100 -464q102 50 215 50q86 0 160 -25.5t128 -71.5t85 -114t31 -149q0 -109 -45 -208.5t-124 -174t-195 -118.5t-250 -44q-163 0 -355 93z" />
<glyph unicode="6" d="M112 473q0 135 29.5 264t81 238t125 201t160 156t187 99.5t204.5 35.5q74 0 126 -15q4 -49 25 -89l-10 -15q-62 28 -128 28q-87 0 -176.5 -46t-169 -128.5t-142.5 -210.5t-92 -281q24 25 39 39.5t50 41.5t66.5 42.5t78.5 28t96 12.5q105 0 191.5 -46t137.5 -131t51 -191 q0 -105 -37.5 -204t-102.5 -175t-160.5 -122t-205.5 -46q-36 0 -74 6.5t-80 23.5t-80 42.5t-73 67t-60.5 93t-41 124t-15.5 157.5zM296 328q0 -15 2.5 -42.5t6.5 -47t12 -46.5t19.5 -46.5t29.5 -40t40.5 -33t54 -21t69.5 -8.5q41 0 78 12.5t66 34t54 50.5t43 63.5t32 72 t22.5 77.5t13 77.5t4.5 73.5q0 72 -21 126t-55 84t-73 44.5t-81 14.5q-61 0 -117 -26.5t-101 -76t-72 -129t-27 -176.5v-37z" />
<glyph unicode="7" d="M91 -13q247 341 441 619.5t443 652.5l-7 19h-187q-34 0 -236 -5.5t-234 -6.5l-94 -9q37 87 37 147q0 35 -2 52q119 -14 397 -14q378 0 552 14l13 -49q-160 -221 -258 -365.5t-254.5 -397.5t-393.5 -657q-33 15 -103 15q-73 0 -114 -15z" />
<glyph unicode="8" d="M76 358q0 178 107 301t279 151v10q-25 13 -42.5 23.5t-41 27.5t-39 37t-30 46t-22 60.5t-7.5 75.5q0 77 30 145.5t85 120.5t137.5 82.5t181.5 30.5q73 0 134.5 -17t104 -46t72.5 -67.5t44 -81.5t14 -89q0 -55 -15.5 -105.5t-43 -91.5t-65 -73.5t-82.5 -55t-94 -32.5v-9 q19 -6 26.5 -9t30.5 -13.5t35.5 -18.5t34.5 -23.5t35.5 -31.5t30 -39.5t25.5 -49.5t15.5 -60t6.5 -72q0 -73 -19.5 -145.5t-62 -141t-102.5 -121t-148.5 -84t-193.5 -31.5q-119 0 -214 47t-151 138.5t-56 211.5zM282 308q0 -262 215 -262q57 0 105 21t80.5 55t57.5 80 t39.5 92t23.5 95.5t12 85t3 66.5q0 46 -11 85t-34.5 72t-66.5 51.5t-101 18.5q-79 0 -142 -37t-102 -101.5t-59 -146.5t-20 -175zM469 1011.5q0 -9.5 3.5 -31t10 -37.5t19.5 -36t31 -33t47.5 -22t66.5 -9q49 0 89.5 20.5t66 55t44.5 73.5t28 81.5t13.5 73.5t4.5 54 q0 34 -9 65.5t-28 60t-55.5 46t-86.5 17.5q-61 0 -110 -31t-77.5 -82.5t-43 -113.5t-14.5 -129v-22.5z" />
<glyph unicode="9" d="M72 156l15 11q93 -111 234 -111q48 0 91.5 12t75.5 28.5t63 43.5t50 48t39.5 52t28 44.5t19.5 36.5q93 182 132 389q-62 -75 -143.5 -113.5t-170.5 -38.5q-48 0 -93 10t-86 31t-74.5 53.5t-58.5 75t-39 99t-14 122.5q0 103 35.5 197t98.5 165t156.5 113.5t202.5 42.5 q78 0 142.5 -22t107.5 -56.5t75.5 -82t50.5 -94t29 -98t14.5 -87t3.5 -68.5q0 -83 -14.5 -174.5t-45.5 -189t-75 -188.5t-107.5 -172.5t-138 -142t-171 -96t-203.5 -35.5q-120 0 -196 31q-3 37 -5 55t-9.5 49.5t-19.5 59.5zM343 932q0 -20 1 -35.5t5.5 -45t12 -52.5t24 -50 t39 -44.5t58 -30t79.5 -12.5q72 0 132 35.5t99 96t60 139t21 165.5q0 18 -1 36.5t-6.5 48t-14.5 56t-26.5 54.5t-40.5 48t-59 33.5t-79 13.5q-57 0 -104.5 -22t-79.5 -60t-56 -84t-37.5 -98.5t-20 -100t-6.5 -91.5z" />
<glyph unicode=":" horiz-adv-x="542" d="M50 100q0 57 39 95.5t95 38.5q55 0 94 -39t39 -95q0 -54 -39.5 -93.5t-93.5 -39.5q-55 0 -94.5 38.5t-39.5 94.5zM213 886q0 57 39 96t94 39t94.5 -39.5t39.5 -95.5q0 -54 -39.5 -93t-94.5 -39q-27 0 -51.5 10t-42.5 28t-28.5 42.5t-10.5 51.5z" />
<glyph unicode=";" horiz-adv-x="542" d="M-33 -373l211 493q31 71 57 99t69 28q40 0 65.5 -23.5t25.5 -62.5q0 -34 -11 -60t-36 -58l-331 -441zM213 886q0 37 17.5 68t48 49t67.5 18q28 0 53 -11t42.5 -29t28 -42.5t10.5 -52.5q0 -54 -39 -93t-95 -39t-94.5 39t-38.5 93z" />
<glyph unicode="&#x3c;" horiz-adv-x="1286" d="M100 460v141l1089 435v-146l-918 -360l918 -356v-145z" />
<glyph unicode="=" horiz-adv-x="1286" d="M100 261v130h1089v-130h-1089zM100 673v130h1089v-130h-1089z" />
<glyph unicode="&#x3e;" horiz-adv-x="1286" d="M100 29v145l919 356l-919 360v146l1089 -435v-141z" />
<glyph unicode="?" horiz-adv-x="843" d="M199 100q0 56 39 95t94 39t94.5 -39.5t39.5 -94.5t-39.5 -94t-94.5 -39t-94 38.5t-39 94.5zM236 632q0 23 4 44.5t9 39t17 37t20 32t26 30.5l27 27t32 27.5t31.5 25t34.5 25.5q43 32 63.5 47.5t51.5 39.5t44 35t34 29t28.5 27.5t19.5 24.5t15 25t8 24.5t6 28t1 30.5 q0 79 -50.5 126t-131.5 47q-41 0 -74.5 -9t-58 -27t-35.5 -28.5t-26 -28.5l-26 7q4 13 7 25.5t5 23.5t3.5 19.5t2 17.5t0.5 15t-0.5 13.5t-0.5 11t-1 10t-1 7.5q3 0 26 6t39.5 9.5t42.5 9t52.5 8t52.5 2.5q86 0 154 -26t109 -70t62.5 -98t21.5 -113q0 -37 -7.5 -71.5 t-18 -60t-30.5 -52.5t-36 -44t-44 -40t-44 -34t-46 -32q-6 -4 -8 -6q-46 -30 -69 -45.5t-55.5 -39t-48 -36t-36 -31t-29.5 -31t-18.5 -28.5t-12.5 -31.5t-3 -33.5q0 -10 2 -20.5t6.5 -24.5t14 -26.5t23 -23t34.5 -16.5t46 -6q40 0 75 13l2 -9q-29 -29 -29 -73q-26 -8 -50 -8 q-43 0 -80.5 10.5t-66 28.5t-50.5 42t-36.5 52t-22 58.5t-7.5 61.5z" />
<glyph unicode="@" horiz-adv-x="1736" d="M141 696q0 171 66.5 324t181.5 263t278 174.5t348 64.5q155 0 286 -47.5t221.5 -130.5t141.5 -197.5t51 -245.5q0 -111 -37 -219t-97 -189t-140.5 -130.5t-162.5 -49.5q-36 0 -65.5 8.5t-48.5 21.5t-34 32t-22 35t-12 35.5t-6.5 29t-1.5 20.5q-10 -19 -20 -37 t-22.5 -34.5t-26.5 -31t-29.5 -27t-33.5 -22t-37 -16.5t-40 -10.5t-44 -3.5q-126 0 -199.5 83.5t-73.5 220.5q0 97 40 191.5t102.5 162.5t140.5 110t151 42q27 0 55 -7t58 -21.5t53 -44.5t32 -71l37 119h150q-9 -29 -25 -84q-91 -302 -114.5 -389.5t-23.5 -133.5 q0 -52 30.5 -78t71.5 -26q52 0 109.5 42.5t104 111.5t77 164t30.5 192q0 161 -79 287t-218 195t-313 69q-91 0 -178 -21t-161.5 -59t-140 -91t-116 -119t-87 -140t-56 -156.5t-19.5 -167.5q0 -143 53 -266.5t144.5 -209.5t219.5 -134.5t276 -48.5q288 0 550 180l32 -56 q-282 -198 -601 -198q-134 0 -255 31t-221.5 93t-174 149.5t-114.5 206t-41 255.5zM721 562q0 -20 3 -41t12.5 -46t24.5 -43.5t41 -31.5t60 -13q36 0 67 14.5t54.5 42t41 58t34.5 71.5q21 51 41 112t35 130t15 115q0 18 -7 37.5t-20.5 38t-38.5 30.5t-57 12 q-59 0 -117 -51.5t-98.5 -126.5t-65.5 -159t-25 -149z" />
<glyph unicode="A" horiz-adv-x="1447" d="M-46 -13q144 202 311 454.5t273.5 420t294.5 468.5q69 112 97 178q19 -6 49 -6q35 0 55 6q11 -137 66 -433q129 -655 157 -784t79 -304q-62 15 -138 15q-60 0 -125 -15v19q0 138 -77 541q-235 4 -252 4q-143 0 -275 -2q-160 -281 -262 -466q-19 -36 -42 -96 q-53 15 -98 15q-61 0 -113 -15zM532 655h445q-32 207 -100 557z" />
<glyph unicode="B" horiz-adv-x="1326" d="M98 -13q75 184 202 779q33 161 51 253.5t39.5 231t30.5 247.5q131 -15 174 -15q31 0 97 4q78 7 139 7q97 0 168 -14t104.5 -31t64.5 -42q98 -85 98 -224q0 -47 -11 -89t-27.5 -74t-43.5 -60.5t-51.5 -48t-60.5 -38t-61 -29t-62 -21.5t-55.5 -15.5t-48.5 -11.5 q-1 -1 -2 -1l2 -10q46 -6 68 -10t58.5 -14.5t66 -27.5t58.5 -43q52 -46 75 -107.5t23 -122.5q0 -46 -12.5 -94t-39.5 -101t-78 -104t-120 -89q-81 -42 -171.5 -61t-268.5 -19q-49 0 -133 6q-43 4 -114 4q-99 0 -159 -15zM352 87q100 -4 147 -4q208 0 300 60 q89 57 132.5 143.5t43.5 173.5q0 287 -378 287q-53 0 -115 -7zM506 829q32 -2 91 -2q194 0 296 57q29 18 53.5 39.5t44.5 47.5t33.5 55t21 63t7.5 71q0 48 -11.5 86.5t-28.5 63t-43 43t-49.5 27.5t-54.5 14.5t-51.5 6.5t-46.5 1q-95 0 -136 -4z" />
<glyph unicode="C" horiz-adv-x="1566" d="M199 651q0 100 22 196t64 181.5t101 160t136.5 134t166.5 102t194 65.5t217 23q86 0 162 -9t148 -28.5t116 -34.5t117 -43q-68 -83 -91 -200h-15q-14 28 -39.5 57t-66 58.5t-89 52.5t-111 37t-129.5 14q-91 0 -174 -24.5t-149 -68t-122 -102.5t-95.5 -129t-67.5 -146.5 t-41.5 -155t-13.5 -155.5q0 -99 20.5 -186t62 -157.5t100.5 -121.5t140.5 -78.5t177.5 -27.5q47 0 92.5 6.5t86.5 19.5t77.5 27.5t71 34.5t60.5 36.5t54 38t42.5 33.5t34.5 29l15 -14q-57 -109 -76 -213q-232 -100 -460 -100q-92 0 -171 12t-132.5 29t-101.5 44t-76 49 t-57 50q-23 22 -43 46t-40.5 54.5t-37.5 62.5t-32 71.5t-25.5 80.5t-16.5 89.5t-6 99.5z" />
<glyph unicode="D" horiz-adv-x="1688" d="M106 -13q31 77 59 169t57 216.5t43 188.5t43 205q39 187 53.5 261t38 219t30.5 252q151 -15 210 -15q77 0 112 2q152 9 192 9q100 0 185.5 -15t160.5 -45.5t132.5 -79.5t99 -115.5t63.5 -155t22 -195.5q0 -355 -217 -600q-52 -58 -110.5 -104t-113 -77t-117.5 -53 t-114.5 -34t-112.5 -18.5t-103.5 -8t-95.5 -1.5q-66 0 -147 6q-54 4 -165 4q-86 0 -205 -15zM371 100q95 -9 232 -9q141 0 258.5 33.5t196.5 87.5t139.5 128t95 148t56 155.5t28 142t6.5 115.5q0 70 -10 128.5t-29 100t-37 68.5t-41 53q-52 56 -119.5 89t-134.5 43.5 t-157 10.5q-118 0 -211 -11q-43 -147 -142 -619.5t-131 -663.5z" />
<glyph unicode="E" d="M108 -13q99 289 252 1096q26 137 39 218.5t16 112t6 80.5q71 -9 143.5 -12t245.5 -3h36h38.5h37t39 0.5t36.5 1t38.5 1.5t36.5 2.5t38 4t36 5.5q-23 -39 -30 -63t-11 -81q-183 20 -345 20q-27 0 -139 -5l-120 -532q285 0 510 18q-13 -30 -17 -47t-4 -48q0 -6 0.5 -11 t1.5 -14t2 -17q-67 12 -184.5 16t-327.5 4l-126 -624q54 -2 124 -2q279 0 456 24q-9 -18 -13 -28t-9 -30.5t-5 -42.5q0 -18 5 -44q-140 15 -406 15q-108 0 -158.5 -0.5t-116.5 -4t-125 -10.5z" />
<glyph unicode="F" d="M108 -13q35 116 60 208t86 364t139 667q15 74 22.5 126.5t9 75.5t2.5 66q44 -6 79.5 -9t103 -4.5t180.5 -1.5q306 0 395 15q-37 -67 -41 -148q-121 26 -386 26q-18 0 -61 -1t-63 -1l-120 -537q253 0 511 18q-29 -67 -29 -137q-77 12 -158 15q-117 5 -345 5l-79 -374 q-3 -18 -9 -50q-27 -154 -33.5 -203t-6.5 -120q-92 15 -124 15q-41 0 -133 -15z" />
<glyph unicode="G" horiz-adv-x="1688" d="M199 651q0 134 36.5 259t111.5 235t182.5 191.5t259 129t329.5 47.5q92 0 175 -11t155 -32.5t116 -37.5t103 -42q-25 -26 -43.5 -52.5t-33 -58.5t-26.5 -74h-12q-60 94 -177 152t-268 58q-100 0 -188 -25t-155 -69t-122.5 -105t-93.5 -131.5t-64 -150t-37.5 -159.5 t-11.5 -160q0 -271 134 -414q41 -43 92.5 -73t103.5 -44t94.5 -20t84.5 -6q71 0 155 16.5t136 43.5q41 112 71.5 260.5t35.5 242.5q49 -16 119 -16q61 0 119 16q-42 -119 -73 -239.5t-41 -177.5t-22 -134q-2 -11 -2 -16l-40 -8q-209 -83 -466 -83q-119 0 -221 22t-176 60.5 t-133.5 92t-97.5 113.5t-63 129.5t-35.5 135.5t-10.5 135z" />
<glyph unicode="H" horiz-adv-x="1688" d="M122 -13q40 147 67.5 270.5t116.5 554.5q3 11 7 31q78 385 93 470t21 185q67 -15 126 -15q61 0 122 15q-22 -64 -65 -237q-11 -41 -21 -83t-19 -82.5l-17 -76.5t-18 -82.5t-19 -83.5q403 -4 466 -4q265 0 362 2q79 389 110 647q64 -15 118 -15q41 0 132 15 q-96 -356 -131.5 -506.5t-107.5 -504.5q-46 -226 -60 -319.5t-20 -180.5q-72 15 -126 15q-42 0 -126 -15q28 82 63 218q50 194 124 529q-331 4 -417 4q-54 0 -188.5 -1t-219.5 -1l-52 -252q-1 -6 -9.5 -48.5l-10.5 -52.5t-9.5 -48.5t-10 -53t-9 -49t-9 -52.5t-7 -48t-7 -51 t-5 -46t-3.5 -48q-88 15 -125 15q-51 0 -116 -15z" />
<glyph unicode="I" horiz-adv-x="721" d="M145 -13q96 354 211 920q41 203 62 322.5t25 160t9 108.5q72 -15 126 -15q28 0 50 2.5t47 7.5t27 5q-40 -126 -64 -228t-125 -566q-1 -8 -2 -12t-2.5 -11t-2.5 -12q-46 -209 -70.5 -343t-31.5 -190.5t-15 -148.5q-82 15 -135 15q-54 0 -109 -15z" />
<glyph unicode="J" horiz-adv-x="721" d="M-112 -334q17 40 17 84v9q29 -4 41 -4q33 0 60 8.5t51 31.5t42 46.5t37 70t32 84t31 107.5t29.5 121t32.5 143q38 171 61.5 281.5t56.5 281.5t53 313.5t26 254.5q69 -15 126 -15q25 0 48 2.5t47.5 7t32.5 5.5q-65 -231 -112.5 -451.5t-135.5 -673.5q-23 -120 -42 -199.5 t-40 -146t-46 -111t-55 -80t-72 -68.5q-44 -34 -89.5 -55.5t-91.5 -30.5t-73 -12t-67 -4z" />
<glyph unicode="K" horiz-adv-x="1326" d="M102 -13q42 142 67 232.5t70.5 284.5t96.5 445q58 291 73 376.5t21 172.5q50 -15 115 -15q50 0 124 15q-50 -159 -107.5 -403t-57.5 -275q0 -21 10 -21q9 0 15 3.5t20 15.5q144 131 219 203t172 177q85 91 119 128.5t74 85.5t65 86q68 -15 109 -15q48 0 128 15v-13 q-76 -56 -150 -122q-151 -132 -265.5 -240t-327.5 -317l329 -506q58 -89 83 -126.5t59 -85t59 -75.5l-6 -26q-72 15 -128 15q-66 0 -124 -15q-20 40 -48 90t-54.5 95t-64 106t-63.5 102t-66.5 103.5t-59 90.5t-55 84t-41.5 63q-2 4 -7.5 9.5t-9.5 5.5q-8 0 -12 -4.5 t-7.5 -16.5t-9.5 -42q-76 -371 -95 -474t-30 -212q-49 15 -115 15q-67 0 -124 -15z" />
<glyph unicode="L" d="M108 -13q52 148 78 252t100 469q4 18 20 97t21.5 106.5t19.5 100t20.5 109t17.5 98.5t16.5 102.5t11 89t8.5 87.5q7 -1 27.5 -5t31 -5.5t28.5 -3t35 -1.5q16 0 39 2.5t51.5 6.5t39.5 6q-20 -55 -35 -107.5t-30 -117t-61 -266.5q-108 -481 -182 -891q156 -6 182 -6 q73 0 218.5 12t209.5 21q0 -2 -4.5 -15.5t-6 -17t-4.5 -15.5t-4 -18.5t-2 -17t-1 -20.5q0 -21 2 -52q-139 15 -458 15q-266 0 -389 -15z" />
<glyph unicode="M" horiz-adv-x="1929" d="M95 -13q90 253 210.5 778.5t143.5 732.5q47 -15 98 -15q44 0 111 15q10 -75 22 -135.5t31 -137t74 -295.5q86 -327 113.5 -424.5t62.5 -212.5q105 161 201 311t144 226t175 278.5t182 289.5q36 57 52 100l14 -3.5t18 -4t20 -3.5t25.5 -3t28.5 -1q35 0 111 15 q-48 -142 -120 -481.5t-123 -629.5q-47 -275 -54 -400q-78 15 -119 15q-45 0 -126 -15q49 173 73 267q16 66 104.5 483t95.5 472q-26 -44 -201.5 -321.5t-342 -547.5t-207.5 -353q-19 7 -37.5 7t-33.5 -7q-14 45 -75 260l-225 845q-23 88 -31 122l-48 -240t-76 -382.5 t-45 -231.5q-1 -9 -8 -48.5t-10 -57.5t-9 -55t-9 -60.5t-6.5 -53.5t-5 -54t-0.5 -44q-77 15 -98 15q-42 0 -100 -15z" />
<glyph unicode="N" horiz-adv-x="1688" d="M91 -13q123 424 222 862q29 127 50 230t34.5 187t20 129.5t14.5 117.5q26 -5 46 -5q16 0 46 5q111 -197 371 -581l427 -609q44 208 64 305.5t53.5 285t62.5 389.5q17 128 20 195q43 -15 96 -15q13 0 27.5 1.5t23 3t25 5.5t21.5 5q-23 -63 -88.5 -308t-144.5 -603.5 t-110 -607.5q-13 4 -44 4q-28 0 -41 -4q-108 174 -167 257q-84 129 -629 924q-119 -533 -218 -1173q-49 15 -86 15q-51 0 -96 -15z" />
<glyph unicode="O" horiz-adv-x="1929" d="M209 651q0 88 19 177t58.5 175t95 163t132.5 142.5t167.5 113t203 74t235.5 26.5q217 0 382 -81.5t255.5 -233.5t90.5 -354q0 -112 -28.5 -221t-81.5 -208t-134.5 -183.5t-182 -146t-229.5 -96.5t-272 -35q-158 0 -288 44t-224.5 128.5t-146.5 216t-52 299.5zM439 603 q0 -116 28 -210.5t74.5 -156.5t110.5 -104t133 -60t145 -18q120 0 229 44.5t191.5 123.5t143 183.5t92.5 229t32 255.5q0 266 -139 402q-67 65 -167 102t-207 37q-101 0 -192.5 -32.5t-164 -89.5t-131.5 -135.5t-97.5 -170.5t-59.5 -194t-21 -206z" />
<glyph unicode="P" horiz-adv-x="1206" d="M106 -13q31 102 92.5 358.5t130.5 603.5t85 549q6 -1 60 -8t81 -7q48 0 122 6q44 5 133 5q226 0 332 -98q107 -101 107 -265q0 -116 -57.5 -215t-162.5 -162q-150 -92 -467 -92q-49 0 -98 5q-84 -424 -114 -680q-52 15 -112 15q-76 0 -132 -15zM487 752q41 -3 118 -3 q72 0 133 14.5t104 38.5t77.5 56.5t55.5 67.5t34.5 72.5t19 70t5.5 62.5q0 51 -11 92t-28 69t-43.5 48.5t-53 32t-60.5 18.5t-62 9t-62 2q-70 0 -91 -2z" />
<glyph unicode="Q" horiz-adv-x="1929" d="M209 632q0 117 28.5 228.5t82 210.5t134 182t179.5 142.5t224 93t263 33.5q166 0 302.5 -48.5t229.5 -136t144.5 -212t51.5 -274.5q0 -173 -70.5 -343.5t-207.5 -300.5q-53 -50 -112.5 -89.5t-105.5 -62t-101 -40.5t-84 -24.5t-71 -14.5q42 -9 331.5 -71.5t343.5 -71.5 q-38 -44 -53 -74.5t-29 -94.5q-97 43 -258 105t-334.5 121t-273.5 84h-2q-49 8 -82.5 14.5t-103.5 29t-119.5 50t-111.5 79t-101 115t-66.5 159.5t-27.5 211zM439 601q0 -115 27.5 -209t74.5 -156t110.5 -103.5t133 -60t145.5 -18.5q120 0 229 44.5t191.5 123.5t143 183.5 t92.5 229t32 255.5q0 265 -141 402q-67 65 -163.5 102t-206.5 37q-103 0 -195.5 -33t-165 -91t-131 -137t-97 -171.5t-59 -193.5t-20.5 -204z" />
<glyph unicode="R" horiz-adv-x="1326" d="M100 -13q57 157 175 720t146 791q6 -1 30.5 -5t36 -5.5t32.5 -3t42 -1.5q31 0 100 4q94 7 189 7q55 0 102 -5.5t87.5 -16t74.5 -27t62.5 -40t51.5 -52.5q63 -85 63 -201q0 -198 -180 -317q-40 -26 -87 -45.5t-97.5 -30t-79 -15t-72.5 -9.5q-9 -1 -14 -1q20 -36 60 -107.5 t49.5 -89t36 -63.5t36 -61t30.5 -48.5t39 -59t44 -62.5q124 -183 163 -230l-8 -26q-62 15 -129 15q-56 0 -117 -15q-30 73 -165 303q-115 198 -273 437h-52l-57 -278q-47 -226 -78 -462q-61 15 -111 15q-44 0 -130 -15zM493 806q133 0 187.5 2.5t122.5 14.5q75 13 137 58 t99.5 116t37.5 153q0 114 -72 182q-42 39 -92.5 54.5t-148.5 15.5q-47 0 -139 -4q-70 -294 -132 -592z" />
<glyph unicode="S" horiz-adv-x="1206" d="M56 102q21 28 32.5 46.5t28 63.5t24.5 101h33q15 -61 46.5 -108t67 -73.5t80 -43.5t82 -22.5t76.5 -5.5q72 0 132 21t99 53.5t66.5 75.5t39 85.5t11.5 83.5q0 39 -8.5 72.5t-21 59t-37 50.5t-45 41.5t-56.5 37.5t-60.5 33.5t-67.5 32.5l-36 18t-38.5 21.5t-42.5 27 t-41 32t-40.5 39.5t-34 45.5t-28.5 54.5t-17 62.5t-7 72.5q0 56 16 113t54.5 115t94.5 102t142.5 71.5t192.5 27.5q234 0 419 -127q-23 -30 -35.5 -50.5t-25 -54t-20.5 -78.5h-26q-26 78 -71 128q-92 91 -239 91q-88 0 -157.5 -31.5t-111.5 -96t-42 -154.5q0 -37 6 -65.5 t22.5 -54.5t36.5 -46t60.5 -45.5t80.5 -47t109 -56.5q48 -23 82.5 -44.5t72 -54.5t60.5 -69.5t37.5 -89t14.5 -115.5q0 -67 -18.5 -133.5t-61.5 -130t-105.5 -111.5t-158 -77.5t-210.5 -29.5q-251 0 -456 137z" />
<glyph unicode="T" horiz-adv-x="1206" d="M226 1342q26 66 26 108q0 12 -5 44q55 -7 137 -10.5t148.5 -4t207.5 -0.5q406 0 580 15q-16 -31 -22 -70q-4 -24 -4 -47q0 -14 2 -27q-179 20 -389 20q-71 -263 -163.5 -718.5t-120.5 -664.5q-58 15 -115 15q-65 0 -126 -15q62 218 164.5 669t147.5 714 q-99 0 -161.5 -1.5t-150 -8t-156.5 -18.5z" />
<glyph unicode="U" horiz-adv-x="1688" d="M232 393q0 54 14 132t73 343q2 8 17 77t26.5 125t26.5 135.5t26 155.5t15 137q50 -15 117 -15q72 0 132 15q-80 -270 -157 -620t-77 -480q0 -81 30.5 -143.5t84.5 -101t122.5 -58t148.5 -19.5q33 0 62.5 2.5t64.5 8.5t66 18t64.5 29t63 43t57.5 59t53 78.5t45 99.5 q14 39 39.5 133t58 236t63.5 335.5t48 379.5q57 -15 95 -15q26 0 100 15q-17 -54 -29 -95t-30.5 -111t-41.5 -169.5t-52 -234.5q-48 -225 -86.5 -360t-73 -209.5t-83.5 -138.5q-41 -54 -95.5 -95t-108 -64.5t-114.5 -38t-108.5 -19t-95.5 -4.5q-54 0 -107.5 6t-110 21 t-105.5 37.5t-93.5 57t-76 78.5t-50 104t-18.5 130z" />
<glyph unicode="V" horiz-adv-x="1326" d="M259 1498q53 -15 120 -15q89 0 135 15q4 -76 18 -202q22 -171 79 -533.5t83 -515.5q2 3 43 83.5t63.5 125.5t73 146.5t85.5 174t85 178.5t88 190.5t78.5 179.5t69.5 173q50 -15 92 -15q57 0 107 15q-73 -106 -143.5 -236t-351.5 -678q-9 -17 -57.5 -113t-65.5 -130 t-53.5 -108t-63 -131t-52.5 -115q-35 15 -82 15q-41 0 -82 -15q-22 201 -44 339t-130 735q-51 268 -95 437z" />
<glyph unicode="W" horiz-adv-x="2051" d="M232 1498q52 -15 120 -15q64 0 132 15q3 -127 31.5 -399t53 -467.5t46.5 -351.5q139 279 313.5 645.5t258.5 572.5q41 -11 83 -11q38 0 78 11q22 -212 75.5 -620.5t84.5 -630.5q138 264 319 663.5t238 587.5q55 -15 97 -15q38 0 104 15q-85 -136 -260 -477.5t-315 -632 t-160 -345.5q-4 -11 -12 -29t-11 -27q-45 15 -81 15q-34 0 -91 -15q-6 126 -53 479q-51 374 -109 721q-125 -247 -206 -413t-123.5 -255.5t-158.5 -342.5q-51 -110 -76 -189q-4 1 -18 5t-20 5.5t-18 3t-24 1.5q-31 0 -85 -15q-8 145 -27.5 311t-83.5 636 q-16 116 -29.5 203.5t-27 155.5t-22 106t-23.5 99z" />
<glyph unicode="X" horiz-adv-x="1326" d="M-11 -13q132 136 326.5 361t324.5 386q-64 144 -98.5 220.5t-66 142.5t-108.5 225q-50 98 -94 176q77 -15 131 -15q50 0 126 15q52 -191 247 -603q30 38 100 131t150 200t110 152q29 40 77 120q4 -1 23 -5.5t38.5 -7t44.5 -2.5q41 0 128 15q-194 -191 -294 -304 t-329 -393q51 -119 126 -281t146 -308.5t112 -224.5q-59 15 -119 15q-81 0 -137 -15q-9 35 -24 79t-30.5 85.5t-37.5 93.5t-38.5 90.5t-40 90t-36.5 79.5t-33.5 70.5t-24.5 52.5q-270 -346 -331 -431.5t-127 -209.5q-57 15 -124 15t-117 -15z" />
<glyph unicode="Y" horiz-adv-x="1326" d="M241 1498q61 -15 126 -15q53 0 134 15q128 -426 265 -775q153 225 305 478q60 102 89.5 158.5t65.5 138.5q72 -15 104 -15q48 0 109 15q-75 -98 -298.5 -406.5t-334.5 -474.5q-100 -502 -104 -630q-72 15 -122 15q-53 0 -122 -15q20 76 38.5 147.5t30 120t25 107.5 t19 85.5t16.5 78.5t14 64q-139 391 -187.5 514t-172.5 394z" />
<glyph unicode="Z" horiz-adv-x="1326" d="M-6 -13v28q165 187 234 275q293 371 436 560.5t393 534.5q-416 0 -599 -15q-94 -8 -206 -32q16 28 24 51.5t12 46.5t8 62q276 -15 599 -15q177 0 503 15v-24q-92 -100 -171 -198.5t-394 -504.5q-58 -75 -205 -271.5t-205 -271.5q-9 -12 -20 -28t-28.5 -40t-36.5 -50 q91 0 203.5 2t327 13t362.5 31q-44 -60 -44 -169q-85 10 -172.5 12.5t-280.5 2.5q-204 0 -301 -0.5t-221.5 -4t-217.5 -10.5z" />
<glyph unicode="[" horiz-adv-x="721" d="M91 -261q53 170 193.5 838.5t154.5 770.5q11 76 15 152q109 -15 186 -15q101 0 195 15q-14 -32 -18 -49.5t-3 -48.5q-16 4 -31 6.5t-33 4t-28.5 2.5t-31.5 1.5t-26.5 0.5h-30h-26.5l-331 -1597q114 -6 236 15q-17 -39 -17 -65q0 -10 4 -31q-144 14 -213 14 q-27 0 -50 -0.5t-45 -2.5l-33 -3t-35 -4z" />
<glyph unicode="\" horiz-adv-x="603" d="M126 1502q49 -13 69 -13q34 0 68 13l354 -1517q-32 13 -64 13t-69 -13z" />
<glyph unicode="]" horiz-adv-x="721" d="M-26 -261q27 50 24 98q17 -4 33.5 -6.5t34.5 -4t29.5 -2.5t32 -1.5t26.5 -0.5h28h23l329 1597q-117 6 -234 -15q11 28 13 48t-2 48q133 -13 213 -13q87 0 195 13q-37 -120 -82.5 -327.5t-224.5 -1056.5q-45 -211 -56 -377l-28 4l-28 4t-25.5 3t-31 3t-32.5 1.5t-41 0.5 q-19 0 -36 -0.5t-29.5 -0.5t-27.5 -1.5t-22 -2t-22 -2.5t-18.5 -2.5l-21 -3t-19.5 -3.5z" />
<glyph unicode="^" horiz-adv-x="1286" d="M247 534l370 905h135l366 -905h-148l-291 734l-281 -734h-151z" />
<glyph unicode="_" d="M0 -163h1085v-108h-1085v108z" />
<glyph unicode="`" horiz-adv-x="603" d="M191 1456q0 26 20.5 48t51.5 22q25 0 41.5 -11.5t31.5 -33.5l254 -323h-62l-298 234q-39 29 -39 64z" />
<glyph unicode="a" d="M48 219q0 214 227 295q48 17 144 37q185 37 239 49.5t73 20.5q13 7 22 32t12 56.5t4.5 50t1.5 30.5q0 24 -4 45t-16.5 43t-33 37.5t-55.5 25.5t-82 10q-42 0 -78.5 -8t-62 -18.5t-49 -30t-37 -32.5t-28 -36t-19 -31.5t-13.5 -28.5q-21 8 -33 9.5t-41 -0.5q27 56 35 89.5 t15 101.5q152 91 346 91q77 0 152.5 -20.5t125.5 -68.5q66 -62 66 -167q0 -40 -12 -97l-120 -520q-7 -31 -7 -54q0 -31 19 -49t45 -18q38 0 80 41q1 -25 7 -38.5t21 -30.5q-44 -28 -98.5 -49t-96.5 -21q-28 0 -51 7.5t-38 17.5t-27 26.5t-18 29t-10.5 31.5t-5.5 26.5 t-3 20.5q-30 -30 -46 -44.5t-51 -40.5t-64 -39t-71.5 -24t-88.5 -11q-82 0 -144.5 31t-96.5 88.5t-34 134.5zM241 232q0 -34 7.5 -60.5t21.5 -42.5t29 -26.5t34 -15.5t32.5 -7t27.5 -2q44 0 85.5 15.5t71.5 37.5t55 47.5t38 45t17 30.5q5 9 29.5 115t35.5 159 q-85 -12 -145.5 -24t-119 -29t-96.5 -38.5t-67.5 -50.5t-42.5 -67t-13 -87z" />
<glyph unicode="b" horiz-adv-x="1326" d="M63 -15q38 91 81 274t149 676q16 74 24 113q77 358 95 549q49 -14 114 -14q58 0 112 14q-57 -198 -91 -342q-73 -316 -91 -404q19 25 35 44.5t53 52t75 53.5t96.5 37.5t122.5 16.5q83 0 155 -28t127 -79t87 -130.5t32 -177.5q0 -73 -18 -150.5t-52.5 -153t-89 -142.5 t-122 -118t-156.5 -81t-188 -30q-46 0 -86.5 6.5t-72.5 20.5t-56.5 27t-48.5 34.5t-37 35t-32 35.5q-17 -13 -34.5 -28t-29.5 -26.5t-27 -28t-21.5 -24t-19 -22.5t-13.5 -16q-5 4 -17.5 8.5t-26.5 4.5q-16 0 -28 -7zM352 346q0 -11 0.5 -22t3 -32t7.5 -40.5t14.5 -43.5 t23 -44.5t34 -40.5t46.5 -33.5t62 -22.5t78 -9q67 0 127.5 29.5t104.5 78.5t79 111t57 130t33.5 132.5t11.5 120.5q0 130 -68 206t-187 76q-65 0 -123 -23t-100.5 -61.5t-77.5 -90t-58 -107t-38.5 -113.5t-22.5 -108.5t-7 -92.5z" />
<glyph unicode="c" d="M100 435q0 58 11 117.5t35 121t59 117t86.5 104.5t114 85t144.5 56.5t175 20.5q198 0 346 -91q-57 -108 -68 -181h-35q-17 52 -47 88.5t-66 54.5t-69 25.5t-67 7.5q-75 0 -140.5 -30t-113 -81.5t-82 -120t-51.5 -146t-17 -158.5q0 -181 89 -276q79 -84 217 -84 q49 0 94.5 12t75 27t60 39t42 36t27.5 30q14 -17 33 -22q-28 -53 -38.5 -81.5t-17.5 -62.5q-146 -82 -313 -82q-113 0 -204.5 36t-152.5 99t-94 150t-33 189z" />
<glyph unicode="d" horiz-adv-x="1326" d="M112 417q0 92 25.5 184t76 173.5t119.5 145t162 100.5t197 37q41 0 77.5 -6.5t64.5 -15.5t53.5 -25.5t42.5 -30t34 -35t26 -34t20 -34.5t13.5 -29t10.5 -24q1 9 17 85.5t22.5 110.5t22 111t24.5 127.5t21 116.5t20 121.5t13 101.5q61 -14 127 -14q67 0 101 14 q-77 -234 -201.5 -788.5t-154.5 -821.5q-76 15 -110 15q-52 0 -91 -15l48 160q-15 -19 -32.5 -38t-51.5 -46.5t-71.5 -48t-92 -35t-113.5 -14.5q-83 0 -152.5 25t-118 68t-82.5 100.5t-50.5 123t-16.5 135.5zM315 391q0 -61 16 -117t47 -101.5t81.5 -73t113.5 -27.5 q66 0 123 24t97.5 63t73 91t52.5 105.5t33.5 109.5t19 100t5.5 79q0 60 -15 112.5t-45.5 96.5t-83 70t-121.5 26q-66 0 -124.5 -26t-101 -70.5t-76 -101t-54 -119.5t-31 -124t-10.5 -117z" />
<glyph unicode="e" horiz-adv-x="1206" d="M116 417q0 98 25.5 192.5t76.5 175t120.5 141.5t162.5 96t198 35q38 0 76.5 -5.5t86.5 -19.5t93.5 -45t80.5 -75q28 -36 46 -74t24.5 -78.5t8 -64.5t1.5 -63q0 -76 -11 -122q-235 12 -445 12q-80 0 -335 -6q-6 -73 -6 -97q0 -49 6.5 -92t26.5 -91.5t53 -83t90 -57.5 t133 -23q58 0 113.5 14t91.5 30.5t74 44.5t51.5 40.5t33.5 32.5l4 -4l3.5 -3.5l2.5 -2.5t3 -2.5t2.5 -1.5t3 -1t3 -1.5t3.5 -1.5t4 -1q-2 -2 -9 -15.5t-12 -23t-12.5 -26.5t-15 -38.5t-15.5 -46.5q-36 -23 -60 -35.5t-70.5 -32t-104 -29t-123.5 -9.5q-223 0 -353 120.5 t-130 337.5zM348 610q82 -5 312 -5q152 0 254 8q0 3 2 35t2 48q0 13 -0.5 21.5t-1.5 28t-4 34t-7.5 36t-13 37.5t-19.5 34.5t-27.5 32t-36.5 25t-47.5 17.5t-58.5 6q-128 0 -224.5 -95.5t-129.5 -262.5z" />
<glyph unicode="f" horiz-adv-x="721" d="M120 -13q78 273 120 455t103 492q-124 0 -202 -10q20 62 20 103q20 -1 88 -4t111 -4q21 126 60 228.5t86.5 168.5t103 110.5t108.5 63.5t105 19q39 0 103 -18q-33 -84 -42 -180l-20 -13l-2 2q-54 54 -131 54q-113 0 -151 -106q-14 -36 -20 -104t-13 -225q52 1 138 4 t116 4q-18 -56 -18 -103q-121 10 -251 10q-54 -237 -77.5 -341.5t-59 -291.5t-49.5 -314q-57 15 -114 15q-47 0 -112 -15z" />
<glyph unicode="g" horiz-adv-x="1206" d="M-6 -269q0 44 12.5 84t31 69.5t46 56.5t51 43.5t53 32t44.5 22t33 13.5q-49 17 -83.5 58.5t-34.5 96.5q0 24 6.5 46.5t19.5 41.5t27 35t34 30.5t35 24.5t36.5 20.5t31.5 15.5t26 11q-66 28 -106 95t-40 150q0 37 10.5 76.5t31 83t58 82t86 69t119.5 49t155 18.5 q77 0 126 -10t119 -34q163 0 292 12q-18 -40 -18 -76q0 -18 2 -33q-135 6 -206 8q28 -21 53.5 -69.5t25.5 -114.5q0 -46 -12.5 -93.5t-45 -99t-82 -90.5t-132 -64.5t-186.5 -25.5q-97 0 -186 28q-45 -14 -78.5 -46.5t-33.5 -75.5q0 -19 6 -34t15 -25t27.5 -18t33.5 -12 t44.5 -7.5t49.5 -5t58 -4.5q174 -11 252.5 -33t124.5 -60q48 -38 71.5 -90.5t23.5 -103.5q0 -53 -17.5 -107t-50 -105.5t-83.5 -97t-113.5 -79.5t-144.5 -53.5t-173 -19.5q-128 0 -228 36t-158.5 108.5t-58.5 170.5zM154 -250q0 -63 26.5 -111.5t71 -77t98 -42.5t112.5 -14 q99 0 183.5 39.5t135 109.5t50.5 155q0 29 -5.5 53t-16.5 41t-21.5 28.5t-27 20t-26 12.5t-24.5 10q-146 47 -364 47q-61 -26 -105.5 -71.5t-65.5 -96.5t-21 -103zM412 653q0 -40 10.5 -75.5t32.5 -67.5t62.5 -50.5t95.5 -18.5q49 0 90 15.5t67.5 40t47 57.5t31 64 t17.5 64.5t9 54t2 36.5q0 37 -10.5 71.5t-32 65t-61.5 49t-94 18.5q-58 0 -105.5 -23.5t-76.5 -59.5t-49 -81t-28 -85t-8 -75z" />
<glyph unicode="h" horiz-adv-x="1326" d="M63 -13q52 127 107 376q200 896 232 1102q11 65 15 132q60 -14 132 -14q38 0 95 14q-29 -76 -47.5 -146t-75.5 -308q-16 -71 -26 -112q-34 -138 -41 -190q15 19 24 29.5t34.5 37t47 43.5t57 40t70.5 36.5t81.5 23.5t95.5 10q151 0 237 -79.5t86 -204.5q0 -46 -10 -102 t-40 -184q-22 -95 -38.5 -170t-33.5 -177t-17 -157q-81 15 -128 15q-60 0 -106 -15q48 142 114 416.5t66 354.5q0 47 -17.5 83t-47 56.5t-64 30.5t-72.5 10q-44 0 -87.5 -11t-89.5 -37.5t-85.5 -66.5t-75 -102t-57.5 -139q-11 -35 -28 -116t-32.5 -162.5t-26.5 -146 t-13 -79.5q-8 -61 -8 -91q-46 15 -120 15q-54 0 -107 -15z" />
<glyph unicode="i" horiz-adv-x="603" d="M85 -13q35 126 78 291.5t94.5 411t59.5 374.5q48 -16 108 -16q28 0 116 16q-54 -168 -128 -500t-102 -577q-47 15 -114 15q-69 0 -112 -15zM367 1419.5q0 45.5 33 78.5t78 33q30 0 55.5 -15.5t40 -41t14.5 -55t-14.5 -55t-40 -40.5t-55.5 -15q-45 0 -78 32.5t-33 78z" />
<glyph unicode="j" horiz-adv-x="603" d="M-143 -491q26 6 41.5 10.5t35 14t31.5 23t27.5 37t27.5 54.5t26.5 77t28.5 104t31 136q117 531 143.5 657.5t46.5 239.5q10 62 23 195q51 -15 111 -15q58 0 119 15q-40 -120 -75.5 -259.5t-54 -226.5t-54.5 -267q-28 -138 -49.5 -235.5t-41.5 -170.5t-35 -118.5 t-34.5 -82.5t-35 -58.5t-41.5 -50.5q-28 -32 -58.5 -57t-64 -43t-53.5 -26.5t-52 -21.5q-7 -3 -10 -4q-2 27 -8 40.5t-25 32.5zM373 1415q0 45 33 78t78 33q47 0 79 -32.5t32 -78.5q0 -44 -32 -77t-79 -33q-45 0 -78 32.5t-33 77.5z" />
<glyph unicode="k" horiz-adv-x="1206" d="M78 -13q42 117 74.5 251.5t145.5 649.5q78 360 104 525q15 93 19 184q49 -14 113 -14q70 0 117 14q-25 -67 -83 -306t-103.5 -446.5t-45.5 -217t5 -17t15 -7.5q36 0 159 99.5t233 203.5t146 147q45 -15 100 -15q64 0 119 15l2 -26q-72 -45 -252.5 -174t-324.5 -243 l191 -269q157 -222 263 -335l-2 -19q-37 15 -122 15q-59 0 -135 -15q-12 26 -23.5 47t-41.5 67t-84 127q-156 227 -191 273q-28 37 -55 37q-15 0 -23 -19t-23 -89q-65 -278 -71 -443q-46 15 -113 15q-78 0 -113 -15z" />
<glyph unicode="l" horiz-adv-x="603" d="M85 -13q50 144 130 495q7 32 22 96q58 257 87 389.5t62 315.5t46 314q52 -14 128 -14q58 0 102 14q-27 -78 -41 -123.5t-29.5 -98.5t-45 -186t-56.5 -256t-95 -439q-5 -27 -8 -40q-45 -207 -58 -291.5t-14 -175.5q-46 15 -116 15q-68 0 -114 -15z" />
<glyph unicode="m" horiz-adv-x="1929" d="M56 -13q72 204 149 571.5t79 498.5q43 -15 103 -15q56 0 110 15q-3 -8 -10.5 -30.5t-9 -28t-7 -22t-7 -22.5t-5.5 -19t-5.5 -21.5t-4.5 -20.5t-5 -25q78 90 174.5 143t202.5 53q48 0 88.5 -9.5t68 -24t50.5 -35.5t36 -39t23 -41t13.5 -35.5t7.5 -26.5q26 35 60 68 t83 67.5t112.5 55t131.5 20.5q142 0 225 -77.5t83 -205.5q0 -41 -8.5 -86t-44.5 -204q-3 -15 -5 -24t-5.5 -24t-6.5 -28.5t-6 -27.5q-55 -227 -73 -400q-57 15 -127 15q-73 0 -102 -15q44 108 113.5 393t69.5 395q0 83 -49 124t-134 41q-57 0 -104 -16.5t-81 -46.5 t-56.5 -59.5t-42.5 -68.5q-47 -86 -98.5 -337.5t-73.5 -424.5q-10 4 -18.5 6.5t-18 4t-15 2.5t-15.5 1.5t-12.5 0.5h-13h-11.5q-69 0 -117 -15q52 155 112.5 426t60.5 353q0 54 -21 94.5t-60.5 62t-94.5 21.5q-52 0 -102 -19.5t-87 -50.5t-64 -64.5t-42 -65.5 q-49 -110 -103 -372.5t-64 -384.5q-46 15 -106 15q-70 0 -120 -15z" />
<glyph unicode="n" horiz-adv-x="1326" d="M70 -13q67 196 141.5 537t86.5 533q36 -15 108 -15q77 0 104 15q-1 -6 -28.5 -93t-38.5 -139q15 19 26 33t37 41t49.5 46.5t60 43.5t73.5 39t85 25.5t98 10.5q39 0 76.5 -7t73.5 -21t66 -37.5t53 -54t35.5 -73.5t12.5 -94q0 -50 -9.5 -100.5t-59.5 -266.5 q-35 -155 -51.5 -244t-22.5 -179q-55 15 -120 15q-56 0 -108 -15q55 178 116.5 427t61.5 344q0 59 -24.5 99t-67.5 59.5t-103 19.5q-21 0 -44.5 -3t-56 -12.5t-63.5 -24.5t-65 -41.5t-63 -61.5t-56 -86.5t-45 -113.5q-25 -86 -63.5 -283t-51.5 -323q-69 15 -106 15 q-67 0 -117 -15z" />
<glyph unicode="o" horiz-adv-x="1326" d="M112 425q0 71 18.5 144t53.5 144t91 133t125 109t161 74.5t195 27.5q78 0 150 -18.5t132.5 -56t105.5 -90t70 -125t25 -157.5q0 -89 -25 -179.5t-78 -175.5t-127 -151t-181 -105.5t-231 -39.5q-107 0 -192.5 29t-139 75.5t-89 109t-50 125t-14.5 127.5zM317 373 q0 -152 72 -241t210 -89q66 0 124.5 22.5t102 60t79 88.5t59.5 106.5t40.5 115t24 113.5t7.5 102q0 47 -8.5 90.5t-29 86.5t-51 74.5t-80 51t-111.5 19.5q-74 0 -138.5 -28t-111 -76t-84 -109t-60 -128.5t-34 -133t-11.5 -125.5z" />
<glyph unicode="p" horiz-adv-x="1326" d="M-52 -569q44 142 87.5 317.5t70 298.5t68.5 324q4 19 23 109.5t25.5 120.5t21.5 107t22.5 121.5t17.5 108t16 119.5q51 -15 108 -15q59 0 98 15q-11 -25 -50 -176q18 21 31 35t40 39.5t56 43t65.5 35.5t82 27.5t94.5 9.5q82 0 156 -28.5t132 -81.5t92 -137.5t34 -189.5 q0 -57 -11 -119t-34.5 -126t-57.5 -123.5t-82.5 -111.5t-106 -91t-132 -61.5t-157.5 -22.5q-38 0 -72.5 5.5t-61 13t-51 22t-41.5 26t-34.5 31t-27 32t-22 34.5t-17.5 31.5t-14 30.5l-39 -195t-61 -304.5t-30 -159.5q-9 -57 -13 -115q-54 16 -118 16q-66 0 -108 -16z M369 384q0 -73 20 -128.5t49 -87t68.5 -51.5t72.5 -26t65 -6q49 0 92.5 14t77.5 39t63.5 59.5t51.5 73t40 82t30 85.5t20 84t11.5 76.5t3.5 63.5q0 42 -7 80.5t-25 78t-46.5 68.5t-75 47.5t-105.5 18.5q-65 0 -121.5 -22t-97 -58.5t-73.5 -86t-53.5 -102t-35 -109t-20 -104 t-5.5 -89.5z" />
<glyph unicode="q" horiz-adv-x="1326" d="M110 406q0 129 46 248.5t123 207.5t184.5 140.5t224.5 52.5q51 0 96 -10t77 -24t59.5 -37t44.5 -41.5t32.5 -45t22 -40.5t14.5 -34q1 6 3 17q12 58 18 95.5t16 121.5q50 -15 103 -15q70 0 104 15q-32 -116 -62.5 -240t-59.5 -255t-52 -238t-54 -257t-51 -243 q-47 -215 -64 -378q-1 -10 -1 -15q-72 16 -111 16q-57 0 -106 -16q6 17 14 51l153 642q-20 -21 -34.5 -35t-50 -40.5t-70 -43t-87.5 -29.5t-110 -13q-66 0 -127 16.5t-115 52t-94 86.5t-63 125t-23 163zM313 389q0 -22 2 -44.5t6.5 -50.5t14 -53.5t22.5 -51.5t33 -47 t44.5 -37.5t59 -25.5t74.5 -9q66 0 123 21.5t98 57t74.5 83.5t55 99.5t36 107t20.5 104t6 91.5q0 148 -75 228t-190 80q-62 0 -116 -21t-94 -56t-73.5 -82.5t-55.5 -98.5t-37 -105t-21.5 -101.5t-6.5 -88.5z" />
<glyph unicode="r" horiz-adv-x="721" d="M52 -13q46 151 145 599q23 101 35 161t24 148.5t13 161.5q40 -15 106.5 -15t104.5 15q-28 -64 -61 -234q13 20 17.5 26t22 30t27.5 35.5l30 34.5t35.5 35.5t38 29t42 25.5t43.5 15.5t48 6.5q32 0 76 -11q-22 -87 -41 -182l-11 -13q-13 6 -19 8.5t-18.5 6.5t-26 5.5 t-30.5 1.5q-33 0 -62.5 -9t-53 -25.5t-43.5 -35t-36 -45t-28 -48t-23 -50t-17 -46t-13 -40.5q-23 -78 -62 -295.5t-44 -295.5q-40 15 -115 15q-40 0 -104 -15z" />
<glyph unicode="s" horiz-adv-x="963" d="M39 76q29 48 48.5 103.5t22.5 96.5h37q4 -17 7 -27.5t13 -36t22 -43.5t34 -41.5t48.5 -38t66 -25t85.5 -10.5q56 0 100 17t69.5 45.5t38.5 61.5t13 69q0 21 -3.5 39.5t-13 34.5t-19 28.5t-28.5 25.5t-35 22t-44 21.5t-49.5 21t-58.5 22.5q-32 13 -56.5 25t-56 34.5 t-51.5 48.5t-34.5 66.5t-14.5 88.5q0 68 28 128t78 105.5t125 72t165 26.5q50 0 99 -8t91.5 -23.5t63.5 -24.5t51 -24q-39 -68 -65 -180h-35q-46 169 -223 169q-41 0 -74 -9.5t-54 -23t-36 -32.5t-22.5 -35.5t-12 -34.5t-5 -26.5t-0.5 -14.5q0 -25 7.5 -46.5t18.5 -38 t30.5 -32t35 -25.5t42 -22t42.5 -18t43 -15q33 -12 53 -19.5t49.5 -21.5t48.5 -27.5t40.5 -34.5t33.5 -44.5t20.5 -56t8.5 -70.5q0 -47 -15 -94.5t-48.5 -94.5t-82.5 -83.5t-123 -59t-163 -22.5q-66 0 -124 10.5t-104 30.5t-71.5 34.5t-56.5 35.5z" />
<glyph unicode="t" horiz-adv-x="721" d="M106 918q19 55 22 103q80 -6 191 -10q32 145 50 265q106 33 213 85l15 -15q-34 -86 -59.5 -185.5t-33.5 -149.5q159 3 256 10q-15 -41 -24 -103q-62 3 -254 8q-18 -87 -66 -301t-64 -289t-16 -123q0 -64 34.5 -103.5t107.5 -39.5q31 0 62 10t43.5 17t37.5 23 q-12 -31 -12 -66q0 -7 1 -15q-119 -70 -235 -70q-40 0 -74 9t-57 22.5t-41 33t-28.5 39t-17.5 40.5t-9.5 37.5t-2.5 31.5q0 36 16 114q12 56 72.5 325t68.5 305q-126 -2 -196 -8z" />
<glyph unicode="u" horiz-adv-x="1326" d="M154 267q0 43 7.5 86t43.5 199q12 52 19 82q20 89 27.5 125t19.5 97t18 106.5t9 94.5q52 -15 116 -15t112 15q-59 -191 -118.5 -434.5t-59.5 -334.5t47 -129q30 -26 72 -38.5t78 -12.5t76 9t88 34t89.5 62.5t79 101t58.5 143.5q62 232 114 599q58 -15 110 -15 q57 0 114 15q-72 -211 -143.5 -547t-84.5 -523q-41 15 -110 15q-68 0 -105 -15q51 150 70 232q-15 -19 -25.5 -31.5t-36.5 -40t-49.5 -47t-60.5 -43.5t-73.5 -39.5t-84.5 -26t-98 -10.5q-90 0 -161.5 32.5t-114.5 98.5t-43 155z" />
<glyph unicode="v" d="M132 1057q58 -15 129 -15q58 0 108 15q1 -30 1.5 -41t3 -36.5t7.5 -57t14 -81.5q19 -102 38 -209.5t26 -149t17.5 -96.5t18.5 -96t21 -103q136 210 274.5 476t182.5 394q36 -15 98 -15q44 0 103 15q-175 -261 -377 -595.5t-271 -474.5q-30 15 -85 15q-36 0 -70 -15 q-17 109 -102.5 499t-136.5 571z" />
<glyph unicode="w" horiz-adv-x="1688" d="M124 1057q79 -19 121 -19q61 0 113 19q2 -98 29 -300t47.5 -325t36.5 -210q164 308 354 710q32 66 47 125q33 -17 77 -17q45 0 93 17q3 -70 15 -158q13 -96 62.5 -355.5t67.5 -350.5q53 94 132 254t157.5 336.5t108.5 273.5q42 -19 91 -19q56 0 95 19 q-106 -165 -321 -570t-256 -500q-30 15 -76 15q-44 0 -84 -15q-15 129 -68.5 407.5t-84.5 413.5q-37 -60 -195 -370t-210 -451q-30 15 -85 15q-45 0 -74 -15q-13 139 -44 337t-71.5 400t-77.5 333z" />
<glyph unicode="x" d="M-26 -13l504 500q-116 241 -231 439q-31 55 -48 79.5t-40 51.5q62 -15 123 -15q49 0 130 15q60 -166 193 -427q74 84 207 254q48 63 68.5 92.5t51.5 80.5q50 -15 108 -15q56 0 106 15q-46 -43 -87 -84q-51 -50 -127 -132.5t-155.5 -169.5t-125.5 -135 q77 -157 144.5 -276.5t98 -164t76.5 -108.5q-82 15 -137 15q-64 0 -116 -15q-68 161 -199 415q-186 -227 -338 -415q-49 15 -102 15q-55 0 -104 -15z" />
<glyph unicode="y" d="M46 -569q65 87 184.5 265.5t164.5 262.5l-56 252t-70 307q-92 392 -134 539q76 -15 122 -15q61 0 110 15q17 -157 67 -425.5t96 -434.5q101 167 245 444.5t200 415.5q40 -15 84 -15h14q38 0 95 15q-295 -462 -428 -685.5t-334 -597.5q-109 -202 -168 -343q-37 16 -86 16 q-58 0 -106 -16z" />
<glyph unicode="z" d="M-11 -13l3 37q467 498 820 920q-322 -3 -424 -8.5t-216 -28.5q29 67 29 150q158 -15 381 -15q328 0 538 15l-6 -46q-157 -167 -399 -438t-400 -471q95 -2 163 -2q243 0 492 28q-19 -45 -24.5 -71.5t-5.5 -69.5q-179 15 -467 15q-362 0 -484 -15z" />
<glyph unicode="{" horiz-adv-x="882" d="M132 571l22 98q27 1 55 5t73 15.5t88 38t75 65.5q21 25 44.5 88t36.5 118l27 141q14 64 38.5 116t53.5 88.5t68 64t77 44t84.5 27t87 14.5t88.5 6l-19 -98q-73 -5 -130 -28t-92.5 -54.5t-62 -78.5t-40 -89t-24.5 -97l-33 -150q-9 -43 -24 -79.5t-31 -63t-38.5 -48.5 t-41 -36t-45 -25.5t-43.5 -17.5t-43.5 -10.5t-38.5 -6t-33 -3.5q33 -10 50 -15.5t48.5 -24t54.5 -43.5q26 -27 41 -63t18 -56t3 -36q0 -52 -18 -130l-24 -117q-11 -72 -11 -115q0 -33 9 -60.5t22 -45t35 -31t39 -21t43.5 -12.5t39.5 -6.5t35 -3.5l-19 -96q-88 -1 -157 23.5 t-110 66t-61.5 92t-20.5 105.5q0 37 13 104l24 117q17 75 17 124q0 18 -1.5 30.5t-8 36.5t-25 45.5t-47.5 40.5q-61 37 -168 47z" />
<glyph unicode="|" horiz-adv-x="481" d="M172 -543v2171h141v-2171h-141z" />
<glyph unicode="}" horiz-adv-x="882" d="M-91 -261l19 98q73 5 130 27.5t92.5 54t62.5 78.5t40.5 89.5t24.5 97.5l33 150q9 43 23.5 79.5t30.5 63t38.5 48.5t41.5 36.5t45 26t43.5 17.5t43.5 10.5t38 6t34 3.5q-34 10 -50.5 16t-48.5 24t-55 43q-20 21 -33 46t-18.5 47.5t-7 36t-1.5 24.5q0 56 17 130l24 118 q11 66 11 114q0 34 -9.5 61t-22 44.5t-34.5 31.5t-39 21t-43.5 12.5t-40 7t-35.5 2.5l19 96q88 1 157 -23.5t110 -65.5t62 -91.5t21 -105.5q0 -42 -13 -104l-24 -118q-17 -75 -17 -126q0 -17 1.5 -29.5t8 -35.5t25 -44.5t47.5 -39.5q28 -18 63.5 -29t52 -13.5t51.5 -5.5 l-21 -98q-28 -1 -56 -5t-73 -15.5t-88 -38t-75 -65.5q-21 -25 -43.5 -87.5t-35.5 -118.5l-29 -141q-14 -65 -38 -117.5t-53.5 -89t-68.5 -64t-76.5 -43.5t-84.5 -26.5t-87 -14.5t-89 -6z" />
<glyph unicode="~" horiz-adv-x="1286" d="M74 375q4 59 23 112t51.5 96t83 68.5t111.5 25.5q33 0 70.5 -6t81.5 -19t77 -24t83 -29q70 -26 111 -40.5t94 -27.5t88.5 -13t65 13t49.5 36.5t33.5 54.5t19.5 68h98q-4 -58 -23 -111t-51.5 -96t-83 -68.5t-112.5 -25.5q-100 0 -312 80q-56 20 -83.5 29.5t-72 23 t-77.5 19.5t-61 6q-25 0 -51 -10t-50 -29.5t-41.5 -53.5t-23.5 -79h-98z" />
<glyph unicode="&#xa1;" horiz-adv-x="721" d="M76 -346q0 39 24 122l269 875q15 -4 33 -4q20 0 30 4l-113 -924q-4 -31 -8 -53t-14 -50.5t-23.5 -46.5t-36.5 -30.5t-53 -12.5q-54 0 -80 29q-28 30 -28 91zM321 930q0 55 39.5 94.5t95.5 39.5q54 0 93 -39.5t39 -94.5q0 -27 -10 -51.5t-28 -42.5t-42.5 -28.5 t-51.5 -10.5q-57 0 -96 39t-39 94z" />
<glyph unicode="&#xa2;" d="M91 435q0 58 11 118.5t35.5 122t60 117.5t88 105t115.5 84.5t146.5 55.5t177.5 19l74 281q38 -10 48 -10q8 0 16 2t17 4.5t10 3.5l-76 -285q133 -19 247 -85q-54 -104 -67 -183h-35q-13 40 -32.5 70t-44 49t-46 30.5t-48.5 20.5l-241 -885q30 -5 54 -5q186 0 311 144 l32 -22q-41 -77 -56 -144q-171 -95 -370 -80l-73 -269q-25 6 -43 6t-44 -6l77 282q-38 10 -64.5 19t-69 35t-79.5 63q-131 134 -131 342zM306 425q0 -245 160 -327l236 863q-79 -2 -146 -37t-112 -89.5t-77 -124.5t-46.5 -142.5t-14.5 -142.5z" />
<glyph unicode="&#xa3;" d="M13 -13q13 20 19.5 32t14.5 42t11 69q157 14 213 191q54 165 57 389q-156 0 -226 -11q18 45 20 102q76 -13 210 -13q1 49 1.5 71.5t6 85.5t14 106t26 98t41.5 95q69 116 191 179.5t258 63.5q148 0 294 -70q-11 -19 -23 -44.5t-24 -68t-12 -80.5h-37q-10 80 -76 129 t-145 49q-49 0 -91.5 -17t-72 -43t-53 -60t-37 -64.5t-20.5 -59.5q-21 -90 -39 -370q5 0 42 -1t68 -0.5t74.5 2t87 6.5t80.5 13q0 -2 -4 -10.5t-5 -12t-4 -12t-4 -13.5t-3 -13.5t-2 -15.5v-15.5t2 -16.5q-132 11 -342 11q-5 -29 -8.5 -51t-9 -50t-12 -52t-14.5 -51 t-19 -53.5t-24 -52.5q-75 -149 -178 -246q220 -9 290 -9q47 0 92.5 1t85.5 3.5t72.5 4.5t66.5 5t54.5 5t48.5 5.5t38 4.5q-45 -85 -39 -187q-249 15 -529 15q-191 0 -426 -15z" />
<glyph unicode="&#xa4;" d="M63 306l138 139q-18 27 -26.5 42t-27 53t-28 83.5t-9.5 97.5q0 149 91 275l-138 139l93 94l140 -139q26 18 46.5 30.5t55.5 28t79 24t94 8.5q47 0 89 -8t78 -24t57.5 -28t51.5 -31l139 139l93 -94l-139 -139q91 -126 91 -275q0 -146 -91 -274l139 -141l-93 -93l-141 141 q-129 -93 -274 -93q-150 0 -273 91l-142 -139zM252 721q0 -87 43 -160.5t116.5 -116t160 -42.5t160 42.5t116 116t42.5 160.5q0 88 -43 161.5t-116.5 115.5t-159.5 42t-159.5 -42.5t-116.5 -116t-43 -160.5z" />
<glyph unicode="&#xa5;" d="M83 278q18 53 21 109q126 -8 337 -8l39 185q-155 -2 -213.5 -4t-129.5 -9q20 70 22 111q73 -5 117.5 -6t199.5 -1q-124 392 -294 812q69 -15 133 -15q72 0 122 15q13 -83 60 -264q58 -220 147 -474q49 80 117 194.5t161.5 287.5t123.5 256q54 -15 106 -15q39 0 112 15 q-195 -276 -517 -750q-19 -25 -41 -62q82 0 325 10q-12 -45 -15 -63.5t-5 -50.5q-193 11 -340 13l-37 -185q158 -2 345 8q-19 -58 -22 -107q-112 5 -129.5 6t-93 3t-117.5 -1q-25 -135 -31.5 -185.5t-9.5 -115.5q-62 15 -116 15q-55 0 -117 -15q27 84 78 301 q-110 0 -158 -1.5t-180 -8.5z" />
<glyph unicode="&#xa6;" horiz-adv-x="481" d="M172 -379v758h141v-758h-141zM172 706v759h141v-759h-141z" />
<glyph unicode="&#xa7;" d="M43 -176q28 37 46 87.5t21 94.5h18q13 -38 30.5 -71t36.5 -56t42 -42t43 -30.5t43.5 -20t40 -12t34.5 -6t25.5 -2.5h15.5q112 0 183.5 67.5t71.5 185.5q0 44 -11 78t-37.5 64.5t-59 56t-87.5 60.5l-1 1q-82 51 -118 74.5t-86.5 60.5t-69 58.5t-40.5 53.5t-28.5 63.5 t-6.5 72.5q0 62 20.5 118t72 108.5t129.5 84.5q-14 22 -21.5 35.5t-17 48t-9.5 76.5q0 148 110 247t284 99q58 0 112 -10.5t99 -30.5t70 -34t57 -34q-53 -75 -63 -172l-28 5q-34 98 -106 147q-68 46 -156 46q-107 0 -166.5 -62.5t-59.5 -154.5q0 -18 2 -31.5t4.5 -26 t11.5 -25.5t15.5 -23.5t24.5 -26t31.5 -26.5t43 -32.5t51.5 -37t65 -45.5q2 -1 6 -4q44 -30 64 -43.5t52.5 -37t45.5 -34t35 -29.5t30 -29.5t21 -28t17 -30.5t9.5 -31.5t6.5 -37t1 -40.5q0 -39 -7.5 -74.5t-18.5 -61.5t-30.5 -51.5t-34.5 -41.5t-39 -34t-36.5 -26t-34.5 -21 q25 -39 39.5 -80t14.5 -98q0 -79 -32 -150t-89 -123.5t-139.5 -83t-178.5 -30.5q-204 0 -384 139zM284 747q0 -48 25.5 -90t78 -86t150.5 -109q120 -78 158.5 -105.5t78.5 -60.5q16 15 26.5 25t23.5 24.5t21 27t16 28.5t11.5 33.5t3.5 36.5q0 24 -2.5 41t-15.5 44.5 t-37.5 53.5t-70.5 62.5t-113 76.5q-130 81 -234 181q-27 -15 -49.5 -35.5t-38 -44.5t-24 -50.5t-8.5 -52.5z" />
<glyph unicode="&#xa8;" horiz-adv-x="603" d="M165 1296q0 28 13.5 50.5t36 35t48.5 12.5q40 0 68.5 -28.5t28.5 -69.5q0 -26 -13 -49t-35.5 -36t-48.5 -13q-40 0 -69 28.5t-29 69.5zM601 1296.5q0 40.5 28.5 69t69.5 28.5q39 0 68.5 -29t29.5 -69t-29.5 -69t-68.5 -29q-41 0 -69.5 29t-28.5 69.5z" />
<glyph unicode="&#xa9;" horiz-adv-x="1688" d="M106 742q0 159 62 303.5t167 248.5t250 165t303.5 61t303 -61t249.5 -165t167 -248.5t62 -303.5q0 -157 -61.5 -300.5t-166 -248t-249.5 -166.5t-305 -62t-305 62t-249.5 166.5t-166 248t-61.5 300.5zM199 742q0 -141 54.5 -269t146.5 -220.5t220 -147.5t268 -55 q141 0 269 55t219.5 148t145.5 221t54 268q0 141 -54 269.5t-146 221.5t-219.5 147.5t-268.5 54.5q-140 0 -267 -54t-219.5 -146.5t-147.5 -221.5t-55 -271zM469 752q0 75 16.5 142t52.5 125t88.5 100.5t127.5 66t166 23.5q64 0 126 -13t92.5 -25t70.5 -31 q-15 -46 -20 -67.5t-8 -61.5h-13q-26 57 -97 99t-157 42q-142 0 -224.5 -108.5t-82.5 -291.5q0 -98 26 -175.5t70 -126.5t101 -74.5t120 -25.5q25 0 52 4t65 16.5t77 41t71 70.5l14 -4q-9 -47 -12 -107q-129 -85 -290 -85q-133 0 -232 61t-149.5 166t-50.5 239z" />
<glyph unicode="&#xaa;" horiz-adv-x="704" d="M156 1023q0 25 6 46.5t14 38t24 31.5t29 25t37 19.5t39 15t43.5 12t42.5 9.5t44 9q18 3 49 9q76 15 91.5 18.5t25.5 9.5q10 4 16.5 26t8.5 40t2 27q0 91 -118 91q-137 0 -185 -106q-28 8 -56 6q18 40 24 60.5t9 56.5q102 55 232 55q27 0 53 -3t58.5 -13t56 -26t40 -45 t16.5 -68q0 -32 -9 -58l-76 -315q-4 -17 -4 -30t11.5 -22.5t27.5 -9.5q24 0 52 27q2 -26 19 -54q-72 -39 -130 -39q-88 0 -102 89q-21 -19 -37 -31t-43 -27.5t-60 -23t-71 -7.5q-86 0 -133 41t-47 116zM290 1027q0 -26 10.5 -44t27 -26t31 -11.5t28.5 -3.5q93 0 158 85 q10 13 26.5 74.5t23.5 96.5q-45 -7 -78.5 -13t-67 -14t-56.5 -17.5t-43.5 -22t-33 -27.5t-19.5 -34t-7 -43z" />
<glyph unicode="&#xab;" d="M180 532q6 7 72 83t154 178q14 17 33 38.5t26 30t18.5 22.5t21.5 28l25 35q7 -16 22.5 -33.5t38.5 -33t45 -20.5q-131 -101 -334 -338q90 -192 191 -377q-32 5 -68 -11.5t-58 -40.5q-55 195 -187 439zM567 532q202 232 248.5 288t98.5 127q5 -11 15.5 -24.5t24.5 -26 t32 -23t35 -13.5q-67 -52 -157.5 -144.5t-177.5 -193.5q90 -192 191 -377q-22 3 -47 -4t-45 -20t-33 -28q-19 65 -43.5 130.5t-55.5 132.5t-44.5 94.5t-41.5 81.5z" />
<glyph unicode="&#xac;" horiz-adv-x="1286" d="M100 673v130h1089v-544h-134v414h-955z" />
<glyph unicode="&#xad;" horiz-adv-x="721" d="M108 443q44 87 33 176q101 -16 243 -16q100 0 263 16q-43 -77 -32 -176q-90 11 -261 11q-138 0 -246 -11z" />
<glyph unicode="&#xae;" horiz-adv-x="831" d="M118 1129q0 109 52 199t141 141t195 51q107 0 197.5 -52t142 -142t51.5 -197q0 -108 -52 -198t-141.5 -141.5t-195.5 -51.5q-107 0 -197 51.5t-141.5 141.5t-51.5 198zM191 1129q0 -137 90 -229t225 -92q90 0 162.5 41.5t113.5 115t41 164.5q0 88 -40 161t-113 116.5 t-164 43.5q-134 0 -224.5 -93t-90.5 -228zM346 918q6 72 6 228q0 118 -4 213q33 -2 106 -2h6q30 0 45.5 -0.5t42.5 -2.5t41.5 -5.5t33.5 -11t28.5 -18.5t16.5 -27.5t7 -38.5q0 -97 -143 -111q20 -28 92.5 -111t96.5 -107l-2 -6q-30 4 -46 4q-5 0 -54 -4q-26 37 -54.5 74 t-42.5 53.5t-44.5 51t-32.5 36.5h-15q0 -120 7 -215q-38 4 -50 4q-16 0 -41 -4zM430 1164q18 0 29.5 0.5t33 2.5t36 7.5t30 14.5t23.5 24t8 36q0 19 -5.5 33t-19.5 22t-25.5 13t-34.5 6.5t-35 2t-38 0.5q-2 -58 -2 -162z" />
<glyph unicode="&#xaf;" horiz-adv-x="603" d="M189 1244l18 106h561l-16 -106h-563z" />
<glyph unicode="&#xb0;" horiz-adv-x="882" d="M217 1146q0 68 26.5 129.5t70.5 105.5t104.5 70t126.5 26q89 0 165 -44.5t120 -120.5t44 -166q0 -89 -44 -165t-120 -120.5t-165 -44.5t-164.5 44t-119.5 120t-44 166zM341 1146q0 -85 60 -145.5t144 -60.5q86 0 146.5 60.5t60.5 145.5q0 87 -60.5 147t-146.5 60 q-55 0 -101.5 -27.5t-74.5 -75.5t-28 -104z" />
<glyph unicode="&#xb1;" horiz-adv-x="1286" d="M100 -21v129h1089v-129h-1089zM100 578v130h473v377h144v-377h472v-130h-472v-377h-144v377h-473z" />
<glyph unicode="&#xb2;" horiz-adv-x="704" d="M65 564v57q344 246 463 410q48 66 65 114.5t17 95.5q0 38 -14 67.5t-36.5 47t-48.5 26t-53 8.5q-34 0 -65.5 -11.5t-63.5 -45t-49 -84.5h-21q-19 47 -54 91q28 26 46.5 40.5t53 35t78 29.5t97.5 9q84 0 149.5 -29t100 -79.5t34.5 -114.5q0 -79 -48.5 -151.5 t-148.5 -157.5q-66 -57 -119.5 -99.5t-91 -70.5t-109.5 -79q87 -2 219 -2q104 0 238 13q-27 -45 -27 -85q0 -20 5 -35q-120 9 -284 9q-111 0 -175 -1t-86 -2.5t-72 -5.5z" />
<glyph unicode="&#xb3;" horiz-adv-x="704" d="M60 595q35 52 40 113l12 2q61 -93 192 -93q48 0 90 15t71 39t50.5 53.5t32 59.5t10.5 57q0 67 -40 111t-108 44q-48 0 -95 -12q14 42 17 80l37 -7h26q15 0 32 3.5t36.5 11.5t38.5 19.5t36 28t30 36.5t21 47t8 56q0 39 -13.5 66t-36 40.5t-44 19t-43.5 5.5 q-34 0 -63.5 -10.5t-47.5 -24.5t-32 -33t-20 -31.5t-11 -24.5h-19q-13 60 -37 101q100 87 252 87q112 0 183 -51.5t71 -141.5q0 -46 -19.5 -86.5t-49.5 -65.5t-59.5 -41t-56.5 -22q-5 -1 -16.5 -3t-18 -4t-6.5 -3q0 -9 18 -9q74 -3 126 -51.5t52 -130.5q0 -55 -30.5 -108 t-83.5 -94t-132.5 -66.5t-171.5 -25.5q-136 0 -228 44z" />
<glyph unicode="&#xb4;" horiz-adv-x="603" d="M321 1158l265 266q3 2 9 8q37 36 53.5 50.5t37.5 26t41 11.5q27 0 47.5 -21t20.5 -47q0 -27 -18 -45.5t-52 -36.5l-336 -212h-68z" />
<glyph unicode="&#xb6;" d="M43 870q0 136 60 260.5t166 213.5q88 73 197 106t255 33h559l-25 -124h-115l-384 -1806h-151l385 1806h-261l-383 -1806h-151l203 942q-173 20 -264 114.5t-91 260.5z" />
<glyph unicode="&#xb7;" horiz-adv-x="542" d="M149 584q0 56 39 95.5t94 39.5q28 0 53 -11t43 -29t28.5 -43t10.5 -52q0 -36 -18 -66t-49 -48t-68 -18q-55 0 -94 39t-39 93z" />
<glyph unicode="&#xb8;" horiz-adv-x="603" d="M72 -435l38 60q64 -31 128 -31q25 0 46.5 4t44 13.5t35.5 29.5t13 48q0 37 -23.5 62t-75.5 25q-38 0 -81 -14l-15 21l135 204h78l-95 -143q34 9 65 9q73 0 119 -44.5t46 -108.5q0 -81 -73.5 -130.5t-185.5 -49.5q-106 0 -199 45z" />
<glyph unicode="&#xb9;" horiz-adv-x="704" d="M199 1280v18q120 36 226 76.5t142.5 57t99.5 47.5l19 -2q-22 -76 -59.5 -232t-79 -359.5t-52.5 -318.5q-38 9 -74 9q-48 0 -91 -9q109 404 182 773q-112 -48 -260 -126q-19 38 -53 66z" />
<glyph unicode="&#xba;" horiz-adv-x="861" d="M201 1140q0 51 17 104t52 103t84 89t119.5 62.5t151.5 23.5q89 0 160.5 -30.5t115 -92.5t43.5 -146q0 -45 -11.5 -90.5t-34.5 -89.5t-59 -82.5t-81.5 -68t-106.5 -46t-129 -16.5q-71 0 -127.5 17.5t-92 45.5t-59 65.5t-33 75t-9.5 76.5zM346 1110q0 -88 47.5 -139 t130.5 -51q58 0 106.5 25.5t79.5 64.5t52.5 88t30 94t8.5 84q0 35 -9.5 66t-29.5 58.5t-55.5 44t-81.5 16.5t-86.5 -17t-70.5 -45.5t-54 -64.5t-38.5 -75.5t-22 -77.5t-7.5 -71z" />
<glyph unicode="&#xbb;" d="M91 180q128 99 332 342q-78 166 -191 373q33 -3 69 13t57 39q49 -171 178 -422q2 -4 3 -6.5t3 -5.5t3 -5q-28 -32 -76 -87q-148 -169 -191 -220t-83 -108q-13 26 -42 53t-62 34zM478 180q135 107 334 342q-93 191 -191 373q31 -3 66.5 13t56.5 39q8 -27 17.5 -55 t17.5 -51t20 -52.5t20 -48t22 -48t20 -43t20.5 -42.5l18 -36t18 -35l14.5 -28q-30 -35 -80.5 -92t-100.5 -114t-80 -91q-58 -75 -89 -118q-11 25 -41 52.5t-63 34.5z" />
<glyph unicode="&#xbc;" horiz-adv-x="1773" d="M199 1280v18q120 36 226 76.5t142.5 57t99.5 47.5l19 -2q-22 -76 -59.5 -232t-79 -359.5t-52.5 -318.5q-38 9 -74 9q-48 0 -91 -9q109 404 182 773q-112 -48 -260 -126q-19 38 -53 66zM427 -41l949 1650q33 -9 51 -9q20 0 54 9l-947 -1650q-29 8 -52 8q-21 0 -55 -8z M1042 228q6 14 11 54l549 602q28 -10 59 -10q21 0 50 10q-62 -238 -82 -319t-55 -240q56 0 150 9q-22 -51 -20 -106q-58 6 -148 6q-15 -50 -29 -125.5t-14 -116.5q-26 8 -71 8q-37 0 -81 -8q46 151 68 242q-112 4 -192 4q-97 0 -195 -10zM1187 325h263l106 419z" />
<glyph unicode="&#xbd;" horiz-adv-x="1773" d="M199 1280v18q120 36 226 76.5t142.5 57t99.5 47.5l19 -2q-22 -76 -59.5 -232t-79 -359.5t-52.5 -318.5q-38 9 -74 9q-48 0 -91 -9q109 404 182 773q-112 -48 -260 -126q-19 38 -53 66zM427 -41l949 1650q33 -9 51 -9q20 0 54 9l-947 -1650q-29 8 -52 8q-21 0 -55 -8z M1042 -8v56q342 244 462 410q48 66 65.5 115t17.5 96q0 38 -13.5 67.5t-36 46t-48.5 25t-54 8.5q-33 0 -64.5 -11.5t-63.5 -44.5t-50 -85h-22q-19 48 -54 91q29 27 47.5 41.5t53 34.5t78 29.5t96.5 9.5q128 0 206.5 -62.5t78.5 -160.5q0 -78 -49 -150.5t-149 -157.5 q-98 -84 -160 -132.5t-159 -117.5q87 -2 220 -2q103 0 236 12q-25 -43 -25 -84q0 -20 4 -34q-106 8 -285 8q-161 0 -214.5 -1.5t-117.5 -6.5z" />
<glyph unicode="&#xbe;" horiz-adv-x="1773" d="M60 595q35 52 40 113l12 2q61 -93 192 -93q48 0 90 15t71 39t50.5 53.5t32 59.5t10.5 57q0 67 -40 111t-108 44q-48 0 -95 -12q14 42 17 80l37 -7h26q15 0 32 3.5t36.5 11.5t38.5 19.5t36 28t30 36.5t21 47t8 56q0 39 -13.5 66t-36 40.5t-44 19t-43.5 5.5 q-34 0 -63.5 -10.5t-47.5 -24.5t-32 -33t-20 -31.5t-11 -24.5h-19q-13 60 -37 101q100 87 252 87q112 0 183 -51.5t71 -141.5q0 -46 -19.5 -86.5t-49.5 -65.5t-59.5 -41t-56.5 -22q-5 -1 -16.5 -3t-18 -4t-6.5 -3q0 -9 18 -9q74 -3 126 -51.5t52 -130.5q0 -55 -30.5 -108 t-83.5 -94t-132.5 -66.5t-171.5 -25.5q-136 0 -228 44zM449 -41l949 1650q3 -1 10 -3t11 -3t12 -2t17 -1q21 0 54 9l-947 -1650q-29 8 -51 8q-21 0 -55 -8zM1042 228q6 14 11 54l549 602q28 -10 59 -10q21 0 50 10q-62 -238 -82 -319t-55 -240q56 0 150 9q-22 -51 -20 -106 q-58 6 -148 6q-15 -50 -29 -125.5t-14 -116.5q-26 8 -71 8q-37 0 -81 -8q46 151 68 242q-112 4 -192 4q-97 0 -195 -10zM1187 325h263l106 419z" />
<glyph unicode="&#xbf;" horiz-adv-x="843" d="M-43 -154q0 38 7.5 72t18 60t30.5 53t35.5 44t43.5 39.5t44 34t47 32.5l2 2t3 2t3 2q52 34 77.5 51.5t61 43t51 39.5t35.5 34t27.5 35t13 33.5t5.5 38.5q0 13 -2.5 26t-11 30.5t-21.5 30.5t-36.5 22t-54.5 9q-39 0 -73 -13l-2 9q27 27 27 73q23 6 50 6q64 0 115 -22 t83 -58t48.5 -80t16.5 -91q0 -30 -6.5 -57t-14.5 -48t-26 -44.5t-30.5 -37.5t-38.5 -36t-39 -32t-44 -33q-54 -40 -78.5 -58.5t-59.5 -46.5t-49 -40.5t-34 -33t-26 -32t-14 -29.5t-9.5 -34t-1.5 -37q0 -79 50.5 -126.5t132.5 -47.5q33 0 62 7.5t47.5 16.5t36.5 24t26 23.5 t19 21.5l28 -6q-22 -76 -16 -143q-3 -1 -25.5 -7t-39 -9.5t-42 -8.5t-52.5 -7.5t-53 -2.5q-85 0 -153 26t-109.5 69.5t-63 97.5t-21.5 113zM358 936q0 36 17.5 66t48 48t67.5 18q56 0 95 -38.5t39 -93.5q0 -56 -38.5 -95.5t-95.5 -39.5q-56 0 -94.5 39.5t-38.5 95.5z" />
<glyph unicode="&#xc0;" horiz-adv-x="1447" d="M-46 -13q144 202 311 454.5t273.5 420t294.5 468.5q69 112 97 178q19 -6 49 -6q35 0 55 6q11 -137 66 -433q129 -655 157 -784t79 -304q-62 15 -138 15q-60 0 -125 -15q6 128 -77 560q-235 4 -252 4q-143 0 -275 -2q-160 -281 -262 -466q-19 -36 -42 -96q-53 15 -98 15 q-61 0 -113 -15zM532 655h445q-32 207 -100 557zM712 1880q0 26 20.5 47.5t50.5 21.5q43 0 75 -45l254 -324h-64l-296 235q-40 29 -40 65z" />
<glyph unicode="&#xc1;" horiz-adv-x="1447" d="M-46 -13q144 202 311 454.5t273.5 420t294.5 468.5q69 112 97 178q19 -6 49 -6q35 0 55 6q11 -137 66 -433q129 -655 157 -784t79 -304q-62 15 -138 15q-60 0 -125 -15q6 128 -77 560q-235 4 -252 4q-143 0 -275 -2q-160 -281 -262 -466q-19 -36 -42 -96q-53 15 -98 15 q-61 0 -113 -15zM532 655h445q-32 207 -100 557zM843 1580l264 268q58 56 85 75.5t57 19.5q27 0 46.5 -21t19.5 -47q0 -27 -17 -45t-51 -36l-338 -214h-66z" />
<glyph unicode="&#xc2;" horiz-adv-x="1447" d="M-46 -13q144 202 311 454.5t273.5 420t294.5 468.5q69 112 97 178q19 -6 49 -6q35 0 55 6q11 -137 66 -433q129 -655 157 -784t79 -304q-62 15 -138 15q-60 0 -125 -15q6 128 -77 560q-235 4 -252 4q-143 0 -275 -2q-160 -281 -262 -466q-19 -36 -42 -96q-53 15 -98 15 q-61 0 -113 -15zM532 655h445q-32 207 -100 557zM647 1580l349 365h83l191 -365h-72l-177 233l-294 -233h-80z" />
<glyph unicode="&#xc3;" horiz-adv-x="1447" d="M-46 -13q144 202 311 454.5t273.5 420t294.5 468.5q69 112 97 178q19 -6 49 -6q35 0 55 6q11 -137 66 -433q129 -655 157 -784t79 -304q-62 15 -138 15q-60 0 -125 -15q6 128 -77 560q-235 4 -252 4q-143 0 -275 -2q-160 -281 -262 -466q-19 -36 -42 -96q-53 15 -98 15 q-61 0 -113 -15zM532 655h445q-32 207 -100 557zM649 1635q17 104 73.5 161.5t128.5 57.5q35 0 65.5 -9t131.5 -48q7 -3 11 -4.5t10.5 -4t12.5 -4.5l12 -4q48 -21 89 -21q22 0 40.5 11.5t31 29.5t19 32.5t11.5 27.5h57q-5 -32 -16 -63.5t-29 -60t-40.5 -50t-53.5 -34.5 t-66 -13q-23 0 -47 5.5t-45.5 13.5t-89.5 35q-65 27 -91.5 35t-49.5 8q-33 0 -65.5 -27.5t-44.5 -73.5h-55z" />
<glyph unicode="&#xc4;" horiz-adv-x="1447" d="M-46 -13q144 202 311 454.5t273.5 420t294.5 468.5q69 112 97 178q19 -6 49 -6q35 0 55 6q11 -137 66 -433q129 -655 157 -784t79 -304q-62 15 -138 15q-60 0 -125 -15q6 128 -77 560q-235 4 -252 4q-143 0 -275 -2q-160 -281 -262 -466q-19 -36 -42 -96q-53 15 -98 15 q-61 0 -113 -15zM532 655h445q-32 207 -100 557zM675 1719.5q0 41.5 29 69.5t69 28t68.5 -28.5t28.5 -69.5q0 -26 -13 -48.5t-35.5 -35.5t-48.5 -13q-40 0 -69 28t-29 69.5zM1112 1719.5q0 40.5 28.5 69t68.5 28.5q16 0 30.5 -5t26.5 -14t21.5 -21t14.5 -27t5 -31 q0 -40 -29 -68.5t-69 -28.5t-68.5 28.5t-28.5 69z" />
<glyph unicode="&#xc5;" horiz-adv-x="1447" d="M-46 -13q144 202 311 454.5t273.5 420t294.5 468.5q69 112 97 178q19 -6 49 -6q35 0 55 6q11 -137 66 -433q129 -655 157 -784t79 -304q-62 15 -138 15q-60 0 -125 -15q6 128 -77 560q-235 4 -252 4q-143 0 -275 -2q-160 -281 -262 -466q-19 -36 -42 -96q-53 15 -98 15 q-61 0 -113 -15zM532 655h445q-32 207 -100 557zM775 1767q0 88 61.5 149.5t149.5 61.5q43 0 82 -17t67 -45t44.5 -67t16.5 -82q0 -87 -61 -149t-149 -62q-58 0 -106.5 28t-76.5 76.5t-28 106.5zM841 1767q0 -61 42.5 -103t102.5 -42t102.5 42.5t42.5 102.5t-42.5 102.5 t-102.5 42.5t-102.5 -42t-42.5 -103z" />
<glyph unicode="&#xc6;" horiz-adv-x="1807" d="M-147 -13q201 232 629 752.5t502 621.5q36 47 89 133q24 -6 51 -9t64.5 -4.5t64 -1.5h79.5q387 0 555 15q-23 -39 -30 -63t-12 -81q-182 20 -345 20q-27 0 -139 -5l-120 -532q286 0 511 18q-22 -49 -22 -83q0 -20 4 -54q-68 12 -185 16t-329 4l-124 -624q54 -2 124 -2 q278 0 456 24q-9 -18 -13 -28t-9 -30.5t-5 -42.5q0 -12 6 -44q-140 15 -406 15q-108 0 -158.5 -0.5t-116.5 -4t-125 -10.5q63 184 139 571h-510q-21 -23 -84.5 -105t-159.5 -223t-145 -243q-46 15 -110 15q-78 0 -126 -15zM553 658h456q24 116 82.5 406t58.5 306q0 11 -6 11 q-5 0 -9 -4t-19 -22q-33 -39 -275.5 -339t-287.5 -358z" />
<glyph unicode="&#xc7;" horiz-adv-x="1566" d="M199 651q0 118 30 229t85.5 206t136 174t179.5 135t219 87t251 31q70 0 136.5 -7t116 -16.5t107.5 -27t93 -30t90 -34.5q-67 -89 -89 -200h-17q-14 28 -39.5 57t-66 58.5t-88.5 52.5t-110.5 37t-127.5 14q-92 0 -175.5 -24.5t-149.5 -68t-121.5 -102.5t-96 -129 t-68.5 -146.5t-41.5 -155t-13.5 -155.5q0 -124 32.5 -228.5t95 -181t158.5 -119t217 -42.5q53 0 106 9.5t94.5 22.5t87 36t74 40t65.5 44t51 39t41 34l16 -14q-56 -98 -77 -213q-82 -35 -157.5 -57t-140 -30.5t-101.5 -10.5t-87 -2l-89 -137q38 9 63 9q76 0 120.5 -45 t44.5 -107q0 -79 -71 -128.5t-185 -49.5q-99 0 -196 41l-6 2l41 59q54 -30 126 -30q13 0 27 1.5t35.5 7t38 15t28.5 28t12 43.5q0 14 -4 27.5t-13.5 28t-30 23t-49.5 8.5q-28 0 -85 -16l-15 23l132 199q-59 6 -102 13t-110 29.5t-125 59.5q-60 39 -111.5 91.5t-95.5 124 t-69.5 166.5t-25.5 202z" />
<glyph unicode="&#xc8;" d="M108 -13q99 289 252 1096q26 137 39 218.5t16 112t6 80.5q71 -9 143.5 -12t245.5 -3h36h38.5h37t39 0.5t36.5 1t38.5 1.5t36.5 2.5t38 4t36 5.5q-23 -39 -30 -63t-11 -81q-183 20 -345 20q-27 0 -139 -5l-120 -532q285 0 510 18q-13 -30 -17 -47t-4 -48q0 -6 0.5 -11 t1.5 -14t2 -17q-67 12 -184.5 16t-327.5 4l-126 -624q54 -2 124 -2q279 0 456 24q-9 -18 -13 -28t-9 -30.5t-5 -42.5q0 -18 5 -44q-140 15 -406 15q-108 0 -158.5 -0.5t-116.5 -4t-125 -10.5zM518 1880q0 25 21 47t51 22q43 0 75 -45l253 -324h-63l-297 235q-40 29 -40 65z " />
<glyph unicode="&#xc9;" d="M108 -13q99 289 252 1096q26 137 39 218.5t16 112t6 80.5q71 -9 143.5 -12t245.5 -3h36h38.5h37t39 0.5t36.5 1t38.5 1.5t36.5 2.5t38 4t36 5.5q-23 -39 -30 -63t-11 -81q-183 20 -345 20q-27 0 -139 -5l-120 -532q285 0 510 18q-13 -30 -17 -47t-4 -48q0 -6 0.5 -11 t1.5 -14t2 -17q-67 12 -184.5 16t-327.5 4l-126 -624q54 -2 124 -2q279 0 456 24q-9 -18 -13 -28t-9 -30.5t-5 -42.5q0 -18 5 -44q-140 15 -406 15q-108 0 -158.5 -0.5t-116.5 -4t-125 -10.5zM649 1580l265 268q41 40 58 55t39.5 27.5t43.5 12.5q27 0 47.5 -21t20.5 -47 q0 -27 -18 -45t-52 -36l-336 -214h-68z" />
<glyph unicode="&#xca;" d="M108 -13q99 289 252 1096q26 137 39 218.5t16 112t6 80.5q71 -9 143.5 -12t245.5 -3h36h38.5h37t39 0.5t36.5 1t38.5 1.5t36.5 2.5t38 4t36 5.5q-23 -39 -30 -63t-11 -81q-183 20 -345 20q-27 0 -139 -5l-120 -532q285 0 510 18q-13 -30 -17 -47t-4 -48q0 -6 0.5 -11 t1.5 -14t2 -17q-67 12 -184.5 16t-327.5 4l-126 -624q54 -2 124 -2q279 0 456 24q-9 -18 -13 -28t-9 -30.5t-5 -42.5q0 -18 5 -44q-140 15 -406 15q-108 0 -158.5 -0.5t-116.5 -4t-125 -10.5zM469 1580l349 365h83l191 -365h-71l-178 233l-294 -233h-80z" />
<glyph unicode="&#xcb;" d="M108 -13q99 289 252 1096q26 137 39 218.5t16 112t6 80.5q71 -9 143.5 -12t245.5 -3h36h38.5h37t39 0.5t36.5 1t38.5 1.5t36.5 2.5t38 4t36 5.5q-23 -39 -30 -63t-11 -81q-183 20 -345 20q-27 0 -139 -5l-120 -532q285 0 510 18q-13 -30 -17 -47t-4 -48q0 -6 0.5 -11 t1.5 -14t2 -17q-67 12 -184.5 16t-327.5 4l-126 -624q54 -2 124 -2q279 0 456 24q-9 -18 -13 -28t-9 -30.5t-5 -42.5q0 -18 5 -44q-140 15 -406 15q-108 0 -158.5 -0.5t-116.5 -4t-125 -10.5zM482 1719q0 28 13.5 50.5t36 35t48.5 12.5q40 0 68.5 -28.5t28.5 -69.5 q0 -26 -13 -48.5t-35.5 -35.5t-48.5 -13q-40 0 -69 28t-29 69zM918 1719.5q0 40.5 28.5 69t68.5 28.5q26 0 49 -13t36.5 -35.5t13.5 -49.5q0 -40 -29.5 -68.5t-69.5 -28.5t-68.5 28.5t-28.5 69z" />
<glyph unicode="&#xcc;" horiz-adv-x="721" d="M145 -13q96 354 211 920q41 203 62 322.5t25 160t9 108.5q72 -15 126 -15q28 0 50 2.5t47 7.5t27 5q-40 -126 -64 -228t-125 -566q-1 -8 -2 -12t-2.5 -11t-2.5 -12q-46 -209 -70.5 -343t-31.5 -190.5t-15 -148.5q-82 15 -135 15q-54 0 -109 -15zM328 1880q0 25 20.5 47 t51.5 22q25 0 41 -11.5t32 -33.5l254 -324h-62l-298 235q-39 29 -39 65z" />
<glyph unicode="&#xcd;" horiz-adv-x="721" d="M145 -13q96 354 211 920q41 203 62 322.5t25 160t9 108.5q72 -15 126 -15q28 0 50 2.5t47 7.5t27 5q-40 -126 -64 -228t-125 -566q-1 -8 -2 -12t-2.5 -11t-2.5 -12q-46 -209 -70.5 -343t-31.5 -190.5t-15 -148.5q-82 15 -135 15q-54 0 -109 -15zM458 1580l265 268 q42 40 59 55t39 27.5t43 12.5q27 0 47.5 -21t20.5 -47q0 -27 -18 -45t-52 -36l-336 -214h-68z" />
<glyph unicode="&#xce;" horiz-adv-x="721" d="M145 -13q96 354 211 920q41 203 62 322.5t25 160t9 108.5q72 -15 126 -15q28 0 50 2.5t47 7.5t27 5q-40 -126 -64 -228t-125 -566q-1 -8 -2 -12t-2.5 -11t-2.5 -12q-46 -209 -70.5 -343t-31.5 -190.5t-15 -148.5q-82 15 -135 15q-54 0 -109 -15zM267 1580l350 365h82 l191 -365h-72l-178 233l-292 -233h-81z" />
<glyph unicode="&#xcf;" horiz-adv-x="721" d="M145 -13q96 354 211 920q41 203 62 322.5t25 160t9 108.5q72 -15 126 -15q28 0 50 2.5t47 7.5t27 5q-40 -126 -64 -228t-125 -566q-1 -8 -2 -12t-2.5 -11t-2.5 -12q-46 -209 -70.5 -343t-31.5 -190.5t-15 -148.5q-82 15 -135 15q-54 0 -109 -15zM290 1719.5 q0 41.5 29.5 69.5t69.5 28q41 0 69.5 -28.5t28.5 -69t-28.5 -69t-69.5 -28.5q-40 0 -69.5 28t-29.5 69.5zM727 1719.5q0 40.5 28.5 69t69.5 28.5q39 0 68 -28.5t29 -69t-29 -69t-68 -28.5q-41 0 -69.5 28.5t-28.5 69z" />
<glyph unicode="&#xd0;" horiz-adv-x="1688" d="M102 788q12 48 16 98q90 -9 212 -9q58 298 74 394t26 227q151 -15 210 -15q77 0 112 2q152 9 192 9q100 0 185.5 -15t160.5 -45.5t132.5 -79.5t99 -115.5t63.5 -155t22 -195.5q0 -355 -217 -600q-52 -58 -110.5 -104t-113 -77t-117.5 -53t-114.5 -34t-112.5 -18.5 t-103.5 -8t-95.5 -1.5q-66 0 -147 6q-54 4 -165 4q-86 0 -205 -15q19 46 29 72.5t31.5 99t42.5 162.5q35 148 106 472q-138 0 -213 -5zM371 100q95 -9 232 -9q111 0 207.5 20.5t168 55.5t131.5 84.5t101 103.5t72.5 116.5t50 120.5t30 118t15.5 105.5t4 87.5q0 70 -10 127.5 t-28.5 99t-37 68.5t-41.5 53q-76 82 -175 112.5t-240 30.5q-114 0 -207 -11q-21 -74 -34.5 -132.5t-60.5 -276.5q-5 -20 -7 -31.5t-6.5 -30.5t-7.5 -35h73h59t51 0.5t40.5 0.5t36.5 1t30 1.5t30.5 1.5t28.5 1.5t32.5 2.5t34.5 2q-6 -17 -8.5 -25t-6 -26.5t-7.5 -51.5 q-157 8 -412 8q-42 -191 -59 -271t-38.5 -191.5t-41.5 -230.5z" />
<glyph unicode="&#xd1;" horiz-adv-x="1688" d="M91 -13q123 424 222 862q29 127 50 230t34.5 187t20 129.5t14.5 117.5q26 -5 46 -5q16 0 46 5q111 -197 371 -581l427 -609q44 208 64 305.5t53.5 285t62.5 389.5q17 128 20 195q43 -15 96 -15q13 0 27.5 1.5t23 3t25 5.5t21.5 5q-23 -63 -88.5 -308t-144.5 -603.5 t-110 -607.5q-13 4 -44 4q-28 0 -41 -4q-108 174 -167 257q-84 129 -629 924q-119 -533 -218 -1173q-49 15 -86 15q-51 0 -96 -15zM758 1635q12 69 42 119.5t71 75t88 24.5q36 0 67.5 -9.5t137.5 -49.5q25 -10 39 -15q48 -21 89 -21q22 0 41 11.5t31 29.5t19 32.5t11 27.5 h56q-7 -41 -22.5 -79t-40 -70.5t-61 -52t-79.5 -19.5q-34 0 -62.5 9t-120.5 45q-44 18 -68.5 27t-41 12.5t-32.5 3.5q-33 0 -65.5 -27.5t-44.5 -73.5h-54z" />
<glyph unicode="&#xd2;" horiz-adv-x="1929" d="M209 651q0 88 19 177t58.5 175t95 163t132.5 142.5t167.5 113t203 74t235.5 26.5q217 0 382 -81.5t255.5 -233.5t90.5 -354q0 -112 -28.5 -221t-81.5 -208t-134.5 -183.5t-182 -146t-229.5 -96.5t-272 -35q-158 0 -288 44t-224.5 128.5t-146.5 216t-52 299.5zM439 603 q0 -116 28 -210.5t74.5 -156.5t110.5 -104t133 -60t145 -18q120 0 229 44.5t191.5 123.5t143 183.5t92.5 229t32 255.5q0 266 -139 402q-67 65 -167 102t-207 37q-101 0 -192.5 -32.5t-164 -89.5t-131.5 -135.5t-97.5 -170.5t-59.5 -194t-21 -206zM920 1880q0 25 20.5 47 t51.5 22q43 0 74 -45l254 -324h-63l-298 235q-39 29 -39 65z" />
<glyph unicode="&#xd3;" horiz-adv-x="1929" d="M209 651q0 88 19 177t58.5 175t95 163t132.5 142.5t167.5 113t203 74t235.5 26.5q217 0 382 -81.5t255.5 -233.5t90.5 -354q0 -112 -28.5 -221t-81.5 -208t-134.5 -183.5t-182 -146t-229.5 -96.5t-272 -35q-158 0 -288 44t-224.5 128.5t-146.5 216t-52 299.5zM439 603 q0 -116 28 -210.5t74.5 -156.5t110.5 -104t133 -60t145 -18q120 0 229 44.5t191.5 123.5t143 183.5t92.5 229t32 255.5q0 266 -139 402q-67 65 -167 102t-207 37q-101 0 -192.5 -32.5t-164 -89.5t-131.5 -135.5t-97.5 -170.5t-59.5 -194t-21 -206zM1029 1580l265 268 q42 40 59 55t39 27.5t43 12.5q27 0 47 -21t20 -47q0 -27 -17.5 -45t-51.5 -36l-337 -214h-67z" />
<glyph unicode="&#xd4;" horiz-adv-x="1929" d="M209 651q0 88 19 177t58.5 175t95 163t132.5 142.5t167.5 113t203 74t235.5 26.5q217 0 382 -81.5t255.5 -233.5t90.5 -354q0 -112 -28.5 -221t-81.5 -208t-134.5 -183.5t-182 -146t-229.5 -96.5t-272 -35q-158 0 -288 44t-224.5 128.5t-146.5 216t-52 299.5zM439 603 q0 -116 28 -210.5t74.5 -156.5t110.5 -104t133 -60t145 -18q120 0 229 44.5t191.5 123.5t143 183.5t92.5 229t32 255.5q0 266 -139 402q-67 65 -167 102t-207 37q-101 0 -192.5 -32.5t-164 -89.5t-131.5 -135.5t-97.5 -170.5t-59.5 -194t-21 -206zM838 1580l349 365h83 l191 -365h-71l-178 233l-294 -233h-80z" />
<glyph unicode="&#xd5;" horiz-adv-x="1929" d="M209 651q0 88 19 177t58.5 175t95 163t132.5 142.5t167.5 113t203 74t235.5 26.5q217 0 382 -81.5t255.5 -233.5t90.5 -354q0 -112 -28.5 -221t-81.5 -208t-134.5 -183.5t-182 -146t-229.5 -96.5t-272 -35q-158 0 -288 44t-224.5 128.5t-146.5 216t-52 299.5zM439 603 q0 -116 28 -210.5t74.5 -156.5t110.5 -104t133 -60t145 -18q120 0 229 44.5t191.5 123.5t143 183.5t92.5 229t32 255.5q0 266 -139 402q-67 65 -167 102t-207 37q-101 0 -192.5 -32.5t-164 -89.5t-131.5 -135.5t-97.5 -170.5t-59.5 -194t-21 -206zM847 1635 q18 104 73.5 161.5t127.5 57.5q36 0 67.5 -9.5t137.5 -49.5q25 -10 39 -15q48 -21 89 -21q22 0 41 11.5t31 29.5t19 32.5t11 27.5h56q-7 -41 -22.5 -79t-40 -70.5t-61 -52t-79.5 -19.5q-24 0 -48 5.5t-46.5 14t-89.5 34.5q-65 27 -91.5 35t-49.5 8q-33 0 -65.5 -27.5 t-44.5 -73.5h-54z" />
<glyph unicode="&#xd6;" horiz-adv-x="1929" d="M209 651q0 88 19 177t58.5 175t95 163t132.5 142.5t167.5 113t203 74t235.5 26.5q217 0 382 -81.5t255.5 -233.5t90.5 -354q0 -112 -28.5 -221t-81.5 -208t-134.5 -183.5t-182 -146t-229.5 -96.5t-272 -35q-158 0 -288 44t-224.5 128.5t-146.5 216t-52 299.5zM439 603 q0 -116 28 -210.5t74.5 -156.5t110.5 -104t133 -60t145 -18q120 0 229 44.5t191.5 123.5t143 183.5t92.5 229t32 255.5q0 266 -139 402q-67 65 -167 102t-207 37q-101 0 -192.5 -32.5t-164 -89.5t-131.5 -135.5t-97.5 -170.5t-59.5 -194t-21 -206zM872 1719q0 28 13.5 50.5 t36 35t48.5 12.5q27 0 49.5 -13t35.5 -35.5t13 -49.5q0 -40 -28.5 -68.5t-69.5 -28.5q-40 0 -69 28t-29 69zM1309 1719.5q0 40.5 28.5 69t69.5 28.5q39 0 68 -28.5t29 -69t-29 -69t-68 -28.5q-41 0 -69.5 28.5t-28.5 69z" />
<glyph unicode="&#xd7;" horiz-adv-x="1286" d="M128 116l417 416l-417 419l98 97l416 -418l419 416l99 -97l-420 -415l420 -418l-99 -99l-419 420l-416 -420z" />
<glyph unicode="&#xd8;" horiz-adv-x="1929" d="M161 -100q68 57 99.5 87t147.5 145q-18 19 -28.5 31t-34.5 42t-39.5 57t-36 70t-33 86.5t-21 101.5t-8.5 120q0 112 28 221t81 207t133 181t179 144t224.5 95t263.5 34q267 0 462 -124q72 77 112.5 124t107.5 133q21 -33 38.5 -48t54.5 -33q-43 -36 -86.5 -77.5 t-157.5 -156.5l27 -27t33.5 -38t39 -53t36 -66.5t33 -84t21 -100.5t8.5 -120q0 -94 -20 -187.5t-60 -181t-97.5 -166t-136 -143t-170.5 -111.5t-205.5 -73t-237.5 -26q-83 0 -154 10.5t-127 31t-86 35.5t-71 38q-59 -65 -95 -107t-58.5 -70.5t-63.5 -82.5q-21 31 -41.5 48 t-60.5 34zM437 605q0 -219 89 -351l955 1033q-75 70 -173 107t-203 37q-120 0 -227 -45.5t-186.5 -124.5t-137.5 -183t-87.5 -225.5t-29.5 -247.5zM580 191q68 -67 161 -102t195 -35q115 0 221 43.5t188.5 122t143.5 182.5t93.5 229t32.5 257q0 70 -8 127t-23.5 98.5 t-25 61.5t-25.5 47z" />
<glyph unicode="&#xd9;" horiz-adv-x="1688" d="M232 393q0 54 14 132t73 343q2 8 17 77t26.5 125t26.5 135.5t26 155.5t15 137q50 -15 117 -15q72 0 132 15q-80 -270 -157 -620t-77 -480q0 -81 30.5 -143.5t84.5 -101t122.5 -58t148.5 -19.5q33 0 62.5 2.5t64.5 8.5t66 18t64.5 29t63 43t57.5 59t53 78.5t45 99.5 q14 39 39.5 133t58 236t63.5 335.5t48 379.5q57 -15 95 -15q26 0 100 15q-17 -54 -29 -95t-30.5 -111t-41.5 -169.5t-52 -234.5q-48 -225 -86.5 -360t-73 -209.5t-83.5 -138.5q-41 -54 -95.5 -95t-108 -64.5t-114.5 -38t-108.5 -19t-95.5 -4.5q-54 0 -107.5 6t-110 21 t-105.5 37.5t-93.5 57t-76 78.5t-50 104t-18.5 130zM810 1880q0 26 20 47.5t51 21.5q42 0 74 -45l254 -324h-63l-297 235q-39 29 -39 65z" />
<glyph unicode="&#xda;" horiz-adv-x="1688" d="M232 393q0 54 14 132t73 343q2 8 17 77t26.5 125t26.5 135.5t26 155.5t15 137q50 -15 117 -15q72 0 132 15q-80 -270 -157 -620t-77 -480q0 -81 30.5 -143.5t84.5 -101t122.5 -58t148.5 -19.5q33 0 62.5 2.5t64.5 8.5t66 18t64.5 29t63 43t57.5 59t53 78.5t45 99.5 q14 39 39.5 133t58 236t63.5 335.5t48 379.5q57 -15 95 -15q26 0 100 15q-17 -54 -29 -95t-30.5 -111t-41.5 -169.5t-52 -234.5q-48 -225 -86.5 -360t-73 -209.5t-83.5 -138.5q-41 -54 -95.5 -95t-108 -64.5t-114.5 -38t-108.5 -19t-95.5 -4.5q-54 0 -107.5 6t-110 21 t-105.5 37.5t-93.5 57t-76 78.5t-50 104t-18.5 130zM940 1580l265 268q42 40 59 55t39 27.5t43 12.5q14 0 26.5 -6t21 -15.5t14 -22t5.5 -24.5q0 -19 -10 -34t-23 -25t-36 -22l-337 -214h-67z" />
<glyph unicode="&#xdb;" horiz-adv-x="1688" d="M232 393q0 54 14 132t73 343q2 8 17 77t26.5 125t26.5 135.5t26 155.5t15 137q50 -15 117 -15q72 0 132 15q-80 -270 -157 -620t-77 -480q0 -81 30.5 -143.5t84.5 -101t122.5 -58t148.5 -19.5q33 0 62.5 2.5t64.5 8.5t66 18t64.5 29t63 43t57.5 59t53 78.5t45 99.5 q14 39 39.5 133t58 236t63.5 335.5t48 379.5q57 -15 95 -15q26 0 100 15q-17 -54 -29 -95t-30.5 -111t-41.5 -169.5t-52 -234.5q-48 -225 -86.5 -360t-73 -209.5t-83.5 -138.5q-41 -54 -95.5 -95t-108 -64.5t-114.5 -38t-108.5 -19t-95.5 -4.5q-54 0 -107.5 6t-110 21 t-105.5 37.5t-93.5 57t-76 78.5t-50 104t-18.5 130zM771 1580l349 365h83l191 -365h-72l-178 233l-293 -233h-80z" />
<glyph unicode="&#xdc;" horiz-adv-x="1688" d="M232 393q0 54 14 132t73 343q2 8 17 77t26.5 125t26.5 135.5t26 155.5t15 137q50 -15 117 -15q72 0 132 15q-80 -270 -157 -620t-77 -480q0 -81 30.5 -143.5t84.5 -101t122.5 -58t148.5 -19.5q33 0 62.5 2.5t64.5 8.5t66 18t64.5 29t63 43t57.5 59t53 78.5t45 99.5 q14 39 39.5 133t58 236t63.5 335.5t48 379.5q57 -15 95 -15q26 0 100 15q-17 -54 -29 -95t-30.5 -111t-41.5 -169.5t-52 -234.5q-48 -225 -86.5 -360t-73 -209.5t-83.5 -138.5q-41 -54 -95.5 -95t-108 -64.5t-114.5 -38t-108.5 -19t-95.5 -4.5q-54 0 -107.5 6t-110 21 t-105.5 37.5t-93.5 57t-76 78.5t-50 104t-18.5 130zM783 1719.5q0 41.5 29 69.5t69 28q41 0 69.5 -28.5t28.5 -69t-28.5 -69t-69.5 -28.5q-40 0 -69 28t-29 69.5zM1220 1719q0 27 13 49.5t35.5 35.5t49.5 13q39 0 68 -28.5t29 -69t-29 -69t-68 -28.5q-41 0 -69.5 28.5 t-28.5 68.5z" />
<glyph unicode="&#xdd;" horiz-adv-x="1326" d="M241 1498q61 -15 126 -15q53 0 134 15q128 -426 265 -775q153 225 305 478q60 102 89.5 158.5t65.5 138.5q72 -15 104 -15q48 0 109 15q-75 -98 -298.5 -406.5t-334.5 -474.5q-100 -502 -104 -630q-72 15 -122 15q-53 0 -122 -15q20 76 38.5 147.5t30 120t25 107.5 t19 85.5t16.5 78.5t14 64q-139 391 -187.5 514t-172.5 394zM738 1580l265 268q42 40 58.5 55t39 27.5t43.5 12.5q27 0 47.5 -21t20.5 -47q0 -27 -18 -45t-52 -36l-336 -214h-68z" />
<glyph unicode="&#xde;" horiz-adv-x="1206" d="M106 -13q40 137 106.5 418t129.5 607t72 486q92 -15 139 -15q63 0 109 15q-17 -46 -28 -86.5t-41 -162.5q78 4 171 4q228 0 332 -101q107 -101 107 -262q0 -116 -57 -215.5t-162 -162.5q-150 -91 -474 -91q-36 0 -93 4q-54 -242 -67 -438q-52 15 -112 15q-76 0 -132 -15z M435 510q49 -2 127 -2q73 0 134.5 14.5t104.5 39t77 58t54.5 68t34 73t18.5 70t5 59.5q0 51 -10.5 92.5t-28 69t-43.5 48.5t-52.5 32.5t-60.5 18.5t-62 9t-62 2q-69 0 -98 -2q-57 -263 -138 -650z" />
<glyph unicode="&#xdf;" horiz-adv-x="1326" d="M100 -13q35 123 56.5 221t116.5 567q4 16 30 150t46 218t42 151q13 37 34 74.5t62 81t92.5 76.5t129 55.5t168 22.5t160 -23.5t109 -62.5t59 -84t19.5 -94q0 -26 -5 -49t-11 -41t-22.5 -39.5t-28.5 -36t-39.5 -39t-45 -39.5t-55.5 -46q-14 -11 -21 -16q-1 -2 -4 -4 q-78 -63 -99 -86t-21 -51q0 -17 6 -32.5t13 -26.5t29 -31.5t37.5 -33t55.5 -44.5q51 -39 77.5 -61.5t58 -54.5t46.5 -59t25.5 -62.5t10.5 -77.5q0 -84 -41 -164.5t-108 -140.5t-158 -97t-186 -37q-124 0 -224 55q51 86 70 169h17q23 -64 80 -94.5t125 -30.5q58 0 106.5 22 t78 57.5t46 78t16.5 87.5q0 31 -5.5 55.5t-23.5 59t-58.5 77t-103.5 94.5q-4 3 -10 8q-40 33 -57.5 47.5t-41.5 36.5t-32 33t-18 27.5t-12.5 30.5t-2.5 32q0 20 3.5 36t15 33t21 29t34.5 33t42 34t56 42q121 91 168 166t47 147q0 49 -18.5 87t-49 59.5t-65.5 31.5t-72 10 q-50 0 -94 -15.5t-74 -37t-56.5 -56t-41 -61t-28 -64t-17.5 -52t-10 -37.5q-4 -17 -22.5 -101t-49 -232.5t-60.5 -301.5t-56.5 -314.5t-37.5 -264.5q-57 15 -108 15q-57 0 -115 -15z" />
<glyph unicode="&#xe0;" d="M48 219q0 214 227 295q48 17 144 37q185 37 239 49.5t73 20.5q13 7 22 32t12 56.5t4.5 50t1.5 30.5q0 24 -4 45t-16.5 43t-33 37.5t-55.5 25.5t-82 10q-42 0 -78.5 -8t-62 -18.5t-49 -30t-37 -32.5t-28 -36t-19 -31.5t-13.5 -28.5q-21 8 -33 9.5t-41 -0.5q27 56 35 89.5 t15 101.5q152 91 346 91q77 0 152.5 -20.5t125.5 -68.5q66 -62 66 -167q0 -40 -12 -97l-120 -520q-7 -31 -7 -54q0 -31 19 -49t45 -18q38 0 80 41q1 -25 7 -38.5t21 -30.5q-44 -28 -98.5 -49t-96.5 -21q-28 0 -51 7.5t-38 17.5t-27 26.5t-18 29t-10.5 31.5t-5.5 26.5 t-3 20.5q-30 -30 -46 -44.5t-51 -40.5t-64 -39t-71.5 -24t-88.5 -11q-82 0 -144.5 31t-96.5 88.5t-34 134.5zM241 232q0 -34 7.5 -60.5t21.5 -42.5t29 -26.5t34 -15.5t32.5 -7t27.5 -2q44 0 85.5 15.5t71.5 37.5t55 47.5t38 45t17 30.5q5 9 29.5 115t35.5 159 q-85 -12 -145.5 -24t-119 -29t-96.5 -38.5t-67.5 -50.5t-42.5 -67t-13 -87zM432 1456q0 26 20.5 48t51.5 22q42 0 74 -45l253 -323h-63l-297 234q-39 28 -39 64z" />
<glyph unicode="&#xe1;" d="M48 219q0 214 227 295q48 17 144 37q185 37 239 49.5t73 20.5q13 7 22 32t12 56.5t4.5 50t1.5 30.5q0 24 -4 45t-16.5 43t-33 37.5t-55.5 25.5t-82 10q-42 0 -78.5 -8t-62 -18.5t-49 -30t-37 -32.5t-28 -36t-19 -31.5t-13.5 -28.5q-21 8 -33 9.5t-41 -0.5q27 56 35 89.5 t15 101.5q152 91 346 91q77 0 152.5 -20.5t125.5 -68.5q66 -62 66 -167q0 -40 -12 -97l-120 -520q-7 -31 -7 -54q0 -31 19 -49t45 -18q38 0 80 41q1 -25 7 -38.5t21 -30.5q-44 -28 -98.5 -49t-96.5 -21q-28 0 -51 7.5t-38 17.5t-27 26.5t-18 29t-10.5 31.5t-5.5 26.5 t-3 20.5q-30 -30 -46 -44.5t-51 -40.5t-64 -39t-71.5 -24t-88.5 -11q-82 0 -144.5 31t-96.5 88.5t-34 134.5zM241 232q0 -34 7.5 -60.5t21.5 -42.5t29 -26.5t34 -15.5t32.5 -7t27.5 -2q44 0 85.5 15.5t71.5 37.5t55 47.5t38 45t17 30.5q5 9 29.5 115t35.5 159 q-85 -12 -145.5 -24t-119 -29t-96.5 -38.5t-67.5 -50.5t-42.5 -67t-13 -87zM562 1158l265 266q3 2 9 8q37 36 53.5 50.5t37.5 26t41 11.5q27 0 47.5 -21t20.5 -47q0 -27 -18 -45.5t-52 -36.5l-336 -212h-68z" />
<glyph unicode="&#xe2;" d="M48 219q0 214 227 295q48 17 144 37q185 37 239 49.5t73 20.5q13 7 22 32t12 56.5t4.5 50t1.5 30.5q0 24 -4 45t-16.5 43t-33 37.5t-55.5 25.5t-82 10q-42 0 -78.5 -8t-62 -18.5t-49 -30t-37 -32.5t-28 -36t-19 -31.5t-13.5 -28.5q-21 8 -33 9.5t-41 -0.5q27 56 35 89.5 t15 101.5q152 91 346 91q77 0 152.5 -20.5t125.5 -68.5q66 -62 66 -167q0 -40 -12 -97l-120 -520q-7 -31 -7 -54q0 -31 19 -49t45 -18q38 0 80 41q1 -25 7 -38.5t21 -30.5q-44 -28 -98.5 -49t-96.5 -21q-28 0 -51 7.5t-38 17.5t-27 26.5t-18 29t-10.5 31.5t-5.5 26.5 t-3 20.5q-30 -30 -46 -44.5t-51 -40.5t-64 -39t-71.5 -24t-88.5 -11q-82 0 -144.5 31t-96.5 88.5t-34 134.5zM241 232q0 -34 7.5 -60.5t21.5 -42.5t29 -26.5t34 -15.5t32.5 -7t27.5 -2q44 0 85.5 15.5t71.5 37.5t55 47.5t38 45t17 30.5q5 9 29.5 115t35.5 159 q-85 -12 -145.5 -24t-119 -29t-96.5 -38.5t-67.5 -50.5t-42.5 -67t-13 -87zM350 1158l349 364h82l192 -364h-72l-178 232l-293 -232h-80z" />
<glyph unicode="&#xe3;" d="M48 219q0 214 227 295q48 17 144 37q185 37 239 49.5t73 20.5q13 7 22 32t12 56.5t4.5 50t1.5 30.5q0 24 -4 45t-16.5 43t-33 37.5t-55.5 25.5t-82 10q-42 0 -78.5 -8t-62 -18.5t-49 -30t-37 -32.5t-28 -36t-19 -31.5t-13.5 -28.5q-21 8 -33 9.5t-41 -0.5q27 56 35 89.5 t15 101.5q152 91 346 91q77 0 152.5 -20.5t125.5 -68.5q66 -62 66 -167q0 -40 -12 -97l-120 -520q-7 -31 -7 -54q0 -31 19 -49t45 -18q38 0 80 41q1 -25 7 -38.5t21 -30.5q-44 -28 -98.5 -49t-96.5 -21q-28 0 -51 7.5t-38 17.5t-27 26.5t-18 29t-10.5 31.5t-5.5 26.5 t-3 20.5q-30 -30 -46 -44.5t-51 -40.5t-64 -39t-71.5 -24t-88.5 -11q-82 0 -144.5 31t-96.5 88.5t-34 134.5zM241 232q0 -34 7.5 -60.5t21.5 -42.5t29 -26.5t34 -15.5t32.5 -7t27.5 -2q44 0 85.5 15.5t71.5 37.5t55 47.5t38 45t17 30.5q5 9 29.5 115t35.5 159 q-85 -12 -145.5 -24t-119 -29t-96.5 -38.5t-67.5 -50.5t-42.5 -67t-13 -87zM369 1212q18 104 74 161.5t128 57.5q35 0 65.5 -9t132.5 -48q9 -3 14.5 -5t14 -5.5t16.5 -6.5q48 -21 89 -21q18 0 34 8t26.5 19.5t20 27t14 26t7.5 20.5h56q-5 -32 -16 -63t-28.5 -60t-40 -50.5 t-53.5 -34.5t-65 -13q-24 0 -48 5.5t-45 13.5t-90 35q-34 14 -53.5 21.5t-36.5 13t-28 7t-23 1.5q-33 0 -66 -27.5t-45 -73.5h-54z" />
<glyph unicode="&#xe4;" d="M48 219q0 214 227 295q48 17 144 37q185 37 239 49.5t73 20.5q13 7 22 32t12 56.5t4.5 50t1.5 30.5q0 24 -4 45t-16.5 43t-33 37.5t-55.5 25.5t-82 10q-42 0 -78.5 -8t-62 -18.5t-49 -30t-37 -32.5t-28 -36t-19 -31.5t-13.5 -28.5q-21 8 -33 9.5t-41 -0.5q27 56 35 89.5 t15 101.5q152 91 346 91q77 0 152.5 -20.5t125.5 -68.5q66 -62 66 -167q0 -40 -12 -97l-120 -520q-7 -31 -7 -54q0 -31 19 -49t45 -18q38 0 80 41q1 -25 7 -38.5t21 -30.5q-44 -28 -98.5 -49t-96.5 -21q-28 0 -51 7.5t-38 17.5t-27 26.5t-18 29t-10.5 31.5t-5.5 26.5 t-3 20.5q-30 -30 -46 -44.5t-51 -40.5t-64 -39t-71.5 -24t-88.5 -11q-82 0 -144.5 31t-96.5 88.5t-34 134.5zM241 232q0 -34 7.5 -60.5t21.5 -42.5t29 -26.5t34 -15.5t32.5 -7t27.5 -2q44 0 85.5 15.5t71.5 37.5t55 47.5t38 45t17 30.5q5 9 29.5 115t35.5 159 q-85 -12 -145.5 -24t-119 -29t-96.5 -38.5t-67.5 -50.5t-42.5 -67t-13 -87zM384 1296q0 42 29 70t69 28q41 0 69.5 -28.5t28.5 -69.5q0 -26 -13 -49t-35.5 -36t-49.5 -13q-15 0 -30 4.5t-27 13.5t-21.5 21t-14.5 27.5t-5 31.5zM820 1296.5q0 40.5 28.5 69t69.5 28.5 q39 0 68 -28.5t29 -69t-29 -69.5t-68 -29q-40 0 -69 29t-29 69.5z" />
<glyph unicode="&#xe5;" d="M48 219q0 214 227 295q48 17 144 37q185 37 239 49.5t73 20.5q13 7 22 32t12 56.5t4.5 50t1.5 30.5q0 24 -4 45t-16.5 43t-33 37.5t-55.5 25.5t-82 10q-42 0 -78.5 -8t-62 -18.5t-49 -30t-37 -32.5t-28 -36t-19 -31.5t-13.5 -28.5q-21 8 -33 9.5t-41 -0.5q27 56 35 89.5 t15 101.5q152 91 346 91q77 0 152.5 -20.5t125.5 -68.5q66 -62 66 -167q0 -40 -12 -97l-120 -520q-7 -31 -7 -54q0 -31 19 -49t45 -18q38 0 80 41q1 -25 7 -38.5t21 -30.5q-44 -28 -98.5 -49t-96.5 -21q-28 0 -51 7.5t-38 17.5t-27 26.5t-18 29t-10.5 31.5t-5.5 26.5 t-3 20.5q-30 -30 -46 -44.5t-51 -40.5t-64 -39t-71.5 -24t-88.5 -11q-82 0 -144.5 31t-96.5 88.5t-34 134.5zM241 232q0 -34 7.5 -60.5t21.5 -42.5t29 -26.5t34 -15.5t32.5 -7t27.5 -2q44 0 85.5 15.5t71.5 37.5t55 47.5t38 45t17 30.5q5 9 29.5 115t35.5 159 q-85 -12 -145.5 -24t-119 -29t-96.5 -38.5t-67.5 -50.5t-42.5 -67t-13 -87zM462 1398q0 88 61.5 149.5t149.5 61.5t149.5 -62t61.5 -149q0 -57 -28 -105.5t-76.5 -77t-106.5 -28.5q-88 0 -149.5 61.5t-61.5 149.5zM528 1398q0 -61 43 -103t102 -42q40 0 73.5 19.5t52.5 53 t19 72.5q0 61 -42 103t-103 42q-59 0 -102 -42t-43 -103z" />
<glyph unicode="&#xe6;" horiz-adv-x="1807" d="M60 230q0 42 9 78.5t22.5 64t36.5 51t43.5 39.5t50.5 30t52 22t53.5 16t48 11t43.5 7q28 5 76 14q168 29 207.5 36.5t49.5 13.5q13 7 22.5 27t13.5 44.5t5.5 42.5t1.5 33q0 100 -60 147.5t-164 47.5q-137 0 -223 -91q-34 -36 -60 -96q-26 8 -64 11q32 100 39 170 q70 44 138.5 69t115.5 32t100 7q62 0 113.5 -12.5t81.5 -28t57 -41t36 -38.5t21 -34q76 74 172.5 114t202.5 40q65 0 124 -15t110.5 -47.5t89.5 -79.5t60 -116t22 -152q0 -54 -18 -141q-94 12 -371 12q-263 0 -394 -2q-15 -72 -15 -132q0 -137 86.5 -225.5t224.5 -88.5 q29 0 63.5 5.5t85 19.5t103.5 47.5t96 81.5l29 -23q-37 -56 -49 -134q-165 -106 -378 -106q-61 0 -115 11t-91.5 26.5t-71 40.5t-53.5 45t-38.5 47.5t-25 41t-15.5 32.5q-167 -244 -419 -244q-128 0 -204.5 76.5t-76.5 192.5zM247 232q0 -44 15.5 -77t40.5 -50t52.5 -25 t56.5 -8q21 0 41.5 3t40 8t38 12.5t35 16.5t31.5 20t27 24q37 36 62 96t37.5 121.5t24.5 154.5q-85 -14 -135 -23.5t-111 -24t-94.5 -28.5t-69.5 -35t-53 -46.5t-28 -60t-11 -78.5zM940 610q93 -5 280 -5q169 0 278 8q12 61 12 116q0 66 -18.5 115.5t-50.5 76.5t-68.5 39.5 t-78.5 12.5q-43 0 -86 -12t-87 -40t-79.5 -69t-62.5 -103.5t-39 -138.5z" />
<glyph unicode="&#xe7;" d="M91 437q0 50 9 102.5t26 106t45 104t65 96.5t86.5 84.5t107.5 66.5t131.5 44t155.5 16q196 0 344 -91q-55 -105 -67 -181h-35q-17 52 -47 88.5t-66 54.5t-69 25.5t-67 7.5q-75 0 -140 -30t-113 -81.5t-82.5 -120t-51.5 -146t-17 -158.5q0 -182 89 -273q79 -85 218 -85 q173 0 299 142q14 -14 32 -22q-18 -35 -29.5 -61t-16.5 -42.5t-10 -40.5q-149 -82 -312 -82l-89 -133q42 9 66 9q76 0 120 -45.5t44 -108.5q0 -80 -72 -130t-187 -50q-49 0 -93 9t-59.5 15.5t-46.5 20.5l41 59q49 -30 127 -30q11 0 19.5 0.5t26.5 3t32 9t28.5 16.5 t22.5 27.5t8 41.5q0 39 -25.5 63t-72.5 24q-33 0 -82 -16l-15 22l130 197q-121 15 -213 76t-143.5 163t-51.5 233z" />
<glyph unicode="&#xe8;" horiz-adv-x="1206" d="M116 417q0 98 25.5 192.5t76.5 175t120.5 141.5t162.5 96t198 35q38 0 76.5 -5.5t86.5 -19.5t93.5 -45t80.5 -75q28 -36 46 -74t24.5 -78.5t8 -64.5t1.5 -63q0 -76 -11 -122q-235 12 -445 12q-80 0 -335 -6q-6 -73 -6 -97q0 -49 6.5 -92t26.5 -91.5t53 -83t90 -57.5 t133 -23q58 0 113.5 14t91.5 30.5t74 44.5t51.5 40.5t33.5 32.5l4 -4l3.5 -3.5l2.5 -2.5t3 -2.5t2.5 -1.5t3 -1t3 -1.5t3.5 -1.5t4 -1q-2 -2 -9 -15.5t-12 -23t-12.5 -26.5t-15 -38.5t-15.5 -46.5q-36 -23 -60 -35.5t-70.5 -32t-104 -29t-123.5 -9.5q-223 0 -353 120.5 t-130 337.5zM348 610q82 -5 312 -5q152 0 254 8q0 3 2 35t2 48q0 13 -0.5 21.5t-1.5 28t-4 34t-7.5 36t-13 37.5t-19.5 34.5t-27.5 32t-36.5 25t-47.5 17.5t-58.5 6q-128 0 -224.5 -95.5t-129.5 -262.5zM493 1456q0 26 20 48t51 22q42 0 74 -45l255 -323h-64l-297 234 q-39 29 -39 64z" />
<glyph unicode="&#xe9;" horiz-adv-x="1206" d="M116 417q0 98 25.5 192.5t76.5 175t120.5 141.5t162.5 96t198 35q38 0 76.5 -5.5t86.5 -19.5t93.5 -45t80.5 -75q28 -36 46 -74t24.5 -78.5t8 -64.5t1.5 -63q0 -76 -11 -122q-235 12 -445 12q-80 0 -335 -6q-6 -73 -6 -97q0 -49 6.5 -92t26.5 -91.5t53 -83t90 -57.5 t133 -23q58 0 113.5 14t91.5 30.5t74 44.5t51.5 40.5t33.5 32.5l4 -4l3.5 -3.5l2.5 -2.5t3 -2.5t2.5 -1.5t3 -1t3 -1.5t3.5 -1.5t4 -1q-2 -2 -9 -15.5t-12 -23t-12.5 -26.5t-15 -38.5t-15.5 -46.5q-36 -23 -60 -35.5t-70.5 -32t-104 -29t-123.5 -9.5q-223 0 -353 120.5 t-130 337.5zM348 610q82 -5 312 -5q152 0 254 8q0 3 2 35t2 48q0 13 -0.5 21.5t-1.5 28t-4 34t-7.5 36t-13 37.5t-19.5 34.5t-27.5 32t-36.5 25t-47.5 17.5t-58.5 6q-128 0 -224.5 -95.5t-129.5 -262.5zM613 1158l264 266q42 40 59 55.5t39.5 28t43.5 12.5q27 0 46.5 -21 t19.5 -47q0 -27 -17.5 -45.5t-52.5 -36.5l-336 -212h-66z" />
<glyph unicode="&#xea;" horiz-adv-x="1206" d="M116 417q0 98 25.5 192.5t76.5 175t120.5 141.5t162.5 96t198 35q38 0 76.5 -5.5t86.5 -19.5t93.5 -45t80.5 -75q28 -36 46 -74t24.5 -78.5t8 -64.5t1.5 -63q0 -76 -11 -122q-235 12 -445 12q-80 0 -335 -6q-6 -73 -6 -97q0 -49 6.5 -92t26.5 -91.5t53 -83t90 -57.5 t133 -23q58 0 113.5 14t91.5 30.5t74 44.5t51.5 40.5t33.5 32.5l4 -4l3.5 -3.5l2.5 -2.5t3 -2.5t2.5 -1.5t3 -1t3 -1.5t3.5 -1.5t4 -1q-2 -2 -9 -15.5t-12 -23t-12.5 -26.5t-15 -38.5t-15.5 -46.5q-36 -23 -60 -35.5t-70.5 -32t-104 -29t-123.5 -9.5q-223 0 -353 120.5 t-130 337.5zM348 610q82 -5 312 -5q152 0 254 8q0 3 2 35t2 48q0 13 -0.5 21.5t-1.5 28t-4 34t-7.5 36t-13 37.5t-19.5 34.5t-27.5 32t-36.5 25t-47.5 17.5t-58.5 6q-128 0 -224.5 -95.5t-129.5 -262.5zM400 1158l349 364h82l192 -364h-72l-178 232l-293 -232h-80z" />
<glyph unicode="&#xeb;" horiz-adv-x="1206" d="M116 417q0 98 25.5 192.5t76.5 175t120.5 141.5t162.5 96t198 35q38 0 76.5 -5.5t86.5 -19.5t93.5 -45t80.5 -75q28 -36 46 -74t24.5 -78.5t8 -64.5t1.5 -63q0 -76 -11 -122q-235 12 -445 12q-80 0 -335 -6q-6 -73 -6 -97q0 -49 6.5 -92t26.5 -91.5t53 -83t90 -57.5 t133 -23q58 0 113.5 14t91.5 30.5t74 44.5t51.5 40.5t33.5 32.5l4 -4l3.5 -3.5l2.5 -2.5t3 -2.5t2.5 -1.5t3 -1t3 -1.5t3.5 -1.5t4 -1q-2 -2 -9 -15.5t-12 -23t-12.5 -26.5t-15 -38.5t-15.5 -46.5q-36 -23 -60 -35.5t-70.5 -32t-104 -29t-123.5 -9.5q-223 0 -353 120.5 t-130 337.5zM348 610q82 -5 312 -5q152 0 254 8q0 3 2 35t2 48q0 13 -0.5 21.5t-1.5 28t-4 34t-7.5 36t-13 37.5t-19.5 34.5t-27.5 32t-36.5 25t-47.5 17.5t-58.5 6q-128 0 -224.5 -95.5t-129.5 -262.5zM445 1296q0 28 13.5 50.5t36 35t48.5 12.5q40 0 68.5 -28.5 t28.5 -69.5q0 -26 -13 -49t-35.5 -36t-48.5 -13q-40 0 -69 28.5t-29 69.5zM881 1296.5q0 40.5 29 69t69 28.5q26 0 48.5 -13t36 -35.5t13.5 -49.5q0 -40 -29 -69t-69 -29t-69 29t-29 69.5z" />
<glyph unicode="&#xec;" horiz-adv-x="603" d="M85 -13q35 126 78 291.5t94.5 411t59.5 374.5q48 -16 108 -16q28 0 116 16q-54 -168 -128 -500t-102 -577q-47 15 -114 15q-69 0 -112 -15zM170 1456q0 26 20 48t51 22q42 0 74 -45l254 -323h-63l-297 234q-39 29 -39 64z" />
<glyph unicode="&#xed;" horiz-adv-x="603" d="M85 -13q35 126 78 291.5t94.5 411t59.5 374.5q48 -16 108 -16q28 0 116 16q-54 -168 -128 -500t-102 -577q-47 15 -114 15q-69 0 -112 -15zM311 1158l265 266q34 33 45 43.5t32 27t34.5 21t29.5 4.5q27 0 46.5 -21t19.5 -47q0 -27 -17.5 -45.5t-51.5 -36.5l-337 -212h-66 z" />
<glyph unicode="&#xee;" horiz-adv-x="603" d="M85 -13q35 126 78 291.5t94.5 411t59.5 374.5q48 -16 108 -16q28 0 116 16q-54 -168 -128 -500t-102 -577q-47 15 -114 15q-69 0 -112 -15zM108 1158l350 364h83l190 -364h-71l-178 232l-293 -232h-81z" />
<glyph unicode="&#xef;" horiz-adv-x="603" d="M85 -13q35 126 78 291.5t94.5 411t59.5 374.5q48 -16 108 -16q28 0 116 16q-54 -168 -128 -500t-102 -577q-47 15 -114 15q-69 0 -112 -15zM143 1296.5q0 41.5 29 69.5t69 28q20 0 38 -7.5t31 -21t20.5 -31.5t7.5 -38q0 -40 -28.5 -69t-68.5 -29t-69 28.5t-29 70z M580 1296.5q0 40.5 28.5 69t68.5 28.5t69 -28.5t29 -69t-29 -69.5t-69 -29t-68.5 29t-28.5 69.5z" />
<glyph unicode="&#xf0;" horiz-adv-x="1326" d="M116 425q0 95 28 187.5t84 172.5t132 141t178.5 96t217.5 35q99 0 180 -28q-74 163 -248 345q-122 -39 -174 -57t-149 -56q-8 41 -33 87q45 11 74.5 19t78 23.5t145.5 48.5q-113 119 -235 216q89 8 150 43q113 -83 238 -196q67 22 104 35t85 31.5t120 49.5q7 -34 13 -48 t22 -37q-84 -22 -136.5 -39.5t-141.5 -51.5q95 -101 160.5 -186t120 -184t81 -208.5t26.5 -231.5q0 -100 -24.5 -196t-77 -182.5t-126.5 -152t-181 -104t-233 -38.5q-82 0 -150.5 16.5t-117 44.5t-86.5 66.5t-61 80t-38 88.5t-20.5 88t-5.5 82zM319 377q0 -73 17 -132.5 t51 -105t89 -71t127 -25.5q65 0 123 22.5t100.5 60t78 88t59 105t39.5 113t23.5 110.5t7.5 98q0 164 -73.5 248.5t-202.5 84.5q-75 0 -141 -29.5t-112.5 -79t-83 -111t-58.5 -129t-33 -130t-11 -117.5z" />
<glyph unicode="&#xf1;" horiz-adv-x="1326" d="M70 -13q67 196 141.5 537t86.5 533q36 -15 108 -15q77 0 104 15q-1 -6 -28.5 -93t-38.5 -139q15 19 26 33t37 41t49.5 46.5t60 43.5t73.5 39t85 25.5t98 10.5q39 0 76.5 -7t73.5 -21t66 -37.5t53 -54t35.5 -73.5t12.5 -94q0 -50 -9.5 -100.5t-59.5 -266.5 q-35 -155 -51.5 -244t-22.5 -179q-55 15 -120 15q-56 0 -108 -15q55 178 116.5 427t61.5 344q0 59 -24.5 99t-67.5 59.5t-103 19.5q-21 0 -44.5 -3t-56 -12.5t-63.5 -24.5t-65 -41.5t-63 -61.5t-56 -86.5t-45 -113.5q-25 -86 -63.5 -283t-51.5 -323q-69 15 -106 15 q-67 0 -117 -15zM491 1212q9 52 28.5 94t46 69t59 41.5t67.5 14.5q36 0 67.5 -9.5t137.5 -49.5q8 -3 13 -5l12.5 -5t13.5 -5q48 -21 89 -21q22 0 40.5 11.5t31 30t19 32.5t11.5 27h56q-7 -41 -22.5 -79t-40 -70.5t-61 -52t-80.5 -19.5q-23 0 -47 5.5t-45.5 13.5t-89.5 35 q-44 18 -68.5 27t-41 12.5t-32.5 3.5q-33 0 -65.5 -27.5t-44.5 -73.5h-54z" />
<glyph unicode="&#xf2;" horiz-adv-x="1326" d="M112 425q0 71 18.5 144t53.5 144t91 133t125 109t161 74.5t195 27.5q78 0 150 -18.5t132.5 -56t105.5 -90t70 -125t25 -157.5q0 -89 -25 -179.5t-78 -175.5t-127 -151t-181 -105.5t-231 -39.5q-107 0 -192.5 29t-139 75.5t-89 109t-50 125t-14.5 127.5zM317 373 q0 -152 72 -241t210 -89q66 0 124.5 22.5t102 60t79 88.5t59.5 106.5t40.5 115t24 113.5t7.5 102q0 47 -8.5 90.5t-29 86.5t-51 74.5t-80 51t-111.5 19.5q-74 0 -138.5 -28t-111 -76t-84 -109t-60 -128.5t-34 -133t-11.5 -125.5zM553 1456q0 26 21 48t51 22q14 0 25 -3.5 t20 -10t15 -14l14 -17.5l254 -323h-63l-297 234q-40 29 -40 64z" />
<glyph unicode="&#xf3;" horiz-adv-x="1326" d="M112 425q0 71 18.5 144t53.5 144t91 133t125 109t161 74.5t195 27.5q78 0 150 -18.5t132.5 -56t105.5 -90t70 -125t25 -157.5q0 -89 -25 -179.5t-78 -175.5t-127 -151t-181 -105.5t-231 -39.5q-107 0 -192.5 29t-139 75.5t-89 109t-50 125t-14.5 127.5zM317 373 q0 -152 72 -241t210 -89q66 0 124.5 22.5t102 60t79 88.5t59.5 106.5t40.5 115t24 113.5t7.5 102q0 47 -8.5 90.5t-29 86.5t-51 74.5t-80 51t-111.5 19.5q-74 0 -138.5 -28t-111 -76t-84 -109t-60 -128.5t-34 -133t-11.5 -125.5zM684 1158l265 266q34 33 45.5 43.5t32 27 t34 21t29.5 4.5q27 0 47.5 -21t20.5 -47q0 -27 -18 -45.5t-52 -36.5l-336 -212h-68z" />
<glyph unicode="&#xf4;" horiz-adv-x="1326" d="M112 425q0 71 18.5 144t53.5 144t91 133t125 109t161 74.5t195 27.5q78 0 150 -18.5t132.5 -56t105.5 -90t70 -125t25 -157.5q0 -89 -25 -179.5t-78 -175.5t-127 -151t-181 -105.5t-231 -39.5q-107 0 -192.5 29t-139 75.5t-89 109t-50 125t-14.5 127.5zM317 373 q0 -152 72 -241t210 -89q66 0 124.5 22.5t102 60t79 88.5t59.5 106.5t40.5 115t24 113.5t7.5 102q0 47 -8.5 90.5t-29 86.5t-51 74.5t-80 51t-111.5 19.5q-74 0 -138.5 -28t-111 -76t-84 -109t-60 -128.5t-34 -133t-11.5 -125.5zM471 1158l349 364h83l191 -364h-71l-178 232 l-294 -232h-80z" />
<glyph unicode="&#xf5;" horiz-adv-x="1326" d="M112 425q0 71 18.5 144t53.5 144t91 133t125 109t161 74.5t195 27.5q78 0 150 -18.5t132.5 -56t105.5 -90t70 -125t25 -157.5q0 -89 -25 -179.5t-78 -175.5t-127 -151t-181 -105.5t-231 -39.5q-107 0 -192.5 29t-139 75.5t-89 109t-50 125t-14.5 127.5zM317 373 q0 -152 72 -241t210 -89q66 0 124.5 22.5t102 60t79 88.5t59.5 106.5t40.5 115t24 113.5t7.5 102q0 47 -8.5 90.5t-29 86.5t-51 74.5t-80 51t-111.5 19.5q-74 0 -138.5 -28t-111 -76t-84 -109t-60 -128.5t-34 -133t-11.5 -125.5zM491 1212q9 52 28.5 94t46 69t59 41.5 t67.5 14.5q36 0 67.5 -9.5t137.5 -49.5q8 -3 13 -5l12.5 -5t13.5 -5q48 -21 89 -21q22 0 40.5 11.5t31 30t19 32.5t11.5 27h56q-7 -41 -22.5 -79t-40 -70.5t-61 -52t-80.5 -19.5q-23 0 -47 5.5t-45.5 13.5t-89.5 35q-44 18 -68.5 27t-41 12.5t-32.5 3.5q-33 0 -65.5 -27.5 t-44.5 -73.5h-54z" />
<glyph unicode="&#xf6;" horiz-adv-x="1326" d="M112 425q0 71 18.5 144t53.5 144t91 133t125 109t161 74.5t195 27.5q78 0 150 -18.5t132.5 -56t105.5 -90t70 -125t25 -157.5q0 -89 -25 -179.5t-78 -175.5t-127 -151t-181 -105.5t-231 -39.5q-107 0 -192.5 29t-139 75.5t-89 109t-50 125t-14.5 127.5zM317 373 q0 -152 72 -241t210 -89q66 0 124.5 22.5t102 60t79 88.5t59.5 106.5t40.5 115t24 113.5t7.5 102q0 47 -8.5 90.5t-29 86.5t-51 74.5t-80 51t-111.5 19.5q-74 0 -138.5 -28t-111 -76t-84 -109t-60 -128.5t-34 -133t-11.5 -125.5zM528 1296.5q0 41.5 29 69.5t68 28 q20 0 38 -7.5t31.5 -21t21 -31.5t7.5 -38q0 -40 -28.5 -69t-69.5 -29q-39 0 -68 28.5t-29 70zM964 1296.5q0 40.5 28.5 69t68.5 28.5q39 0 69 -29t30 -69t-30 -69t-69 -29q-40 0 -68.5 29t-28.5 69.5z" />
<glyph unicode="&#xf7;" horiz-adv-x="1286" d="M100 466v131h1089v-131h-1089zM530 141q0 32 15.5 58.5t42 42t56.5 15.5q47 0 81.5 -33.5t34.5 -82.5q0 -32 -16 -58.5t-42.5 -41.5t-57.5 -15q-48 0 -81 34t-33 81zM530 922q0 48 33 82t81 34t82 -34t34 -82q0 -47 -34.5 -80.5t-81.5 -33.5q-46 0 -80 33.5t-34 80.5z " />
<glyph unicode="&#xf8;" horiz-adv-x="1326" d="M48 -116l204 194q-69 68 -105.5 158t-36.5 189q0 91 28 182t83.5 172t131.5 143.5t181 99.5t224 37q162 0 286 -75l168 207q15 -27 31 -40.5t49 -25.5l-192 -185q21 -20 30.5 -30.5t33.5 -44.5t37 -65.5t24.5 -84t11.5 -110.5q0 -59 -12 -120.5t-38 -125t-63 -122 t-90.5 -109.5t-118 -88.5t-148 -59t-177.5 -21.5q-56 0 -102.5 7t-82 20.5t-55.5 24t-46 26.5l-176 -215q-9 18 -19.5 28.5t-23.5 17.5t-37 16zM315 369q0 -46 7.5 -84t14 -54.5t19.5 -43.5l605 699q-15 18 -26 28t-36 27t-61 25.5t-82 8.5q-75 0 -141 -29t-113 -78 t-84 -110.5t-59 -130.5t-33 -134t-11 -124zM387 135q69 -92 208 -92q69 0 130 24.5t104.5 64.5t79.5 93.5t58.5 110.5t38 116t22 108.5t6.5 90.5q0 40 -7.5 78.5t-13 54.5t-17.5 47z" />
<glyph unicode="&#xf9;" horiz-adv-x="1326" d="M154 267q0 43 7.5 86t43.5 199q12 52 19 82q20 89 27.5 125t19.5 97t18 106.5t9 94.5q52 -15 116 -15t112 15q-59 -191 -118.5 -434.5t-59.5 -334.5t47 -129q30 -26 72 -38.5t78 -12.5t76 9t88 34t89.5 62.5t79 101t58.5 143.5q62 232 114 599q58 -15 110 -15 q57 0 114 15q-72 -211 -143.5 -547t-84.5 -523q-41 15 -110 15q-68 0 -105 -15q51 150 70 232q-15 -19 -25.5 -31.5t-36.5 -40t-49.5 -47t-60.5 -43.5t-73.5 -39.5t-84.5 -26t-98 -10.5q-90 0 -161.5 32.5t-114.5 98.5t-43 155zM553 1456q0 26 21 48t51 22q14 0 25 -3.5 t20 -10t15 -14l14 -17.5l254 -323h-63l-297 234q-40 29 -40 64z" />
<glyph unicode="&#xfa;" horiz-adv-x="1326" d="M154 267q0 43 7.5 86t43.5 199q12 52 19 82q20 89 27.5 125t19.5 97t18 106.5t9 94.5q52 -15 116 -15t112 15q-59 -191 -118.5 -434.5t-59.5 -334.5t47 -129q30 -26 72 -38.5t78 -12.5t76 9t88 34t89.5 62.5t79 101t58.5 143.5q62 232 114 599q58 -15 110 -15 q57 0 114 15q-72 -211 -143.5 -547t-84.5 -523q-41 15 -110 15q-68 0 -105 -15q51 150 70 232q-15 -19 -25.5 -31.5t-36.5 -40t-49.5 -47t-60.5 -43.5t-73.5 -39.5t-84.5 -26t-98 -10.5q-90 0 -161.5 32.5t-114.5 98.5t-43 155zM684 1158l265 266q34 33 45.5 43.5t32 27 t34 21t29.5 4.5q27 0 47.5 -21t20.5 -47q0 -27 -18 -45.5t-52 -36.5l-336 -212h-68z" />
<glyph unicode="&#xfb;" horiz-adv-x="1326" d="M154 267q0 43 7.5 86t43.5 199q12 52 19 82q20 89 27.5 125t19.5 97t18 106.5t9 94.5q52 -15 116 -15t112 15q-59 -191 -118.5 -434.5t-59.5 -334.5t47 -129q30 -26 72 -38.5t78 -12.5t76 9t88 34t89.5 62.5t79 101t58.5 143.5q62 232 114 599q58 -15 110 -15 q57 0 114 15q-72 -211 -143.5 -547t-84.5 -523q-41 15 -110 15q-68 0 -105 -15q51 150 70 232q-15 -19 -25.5 -31.5t-36.5 -40t-49.5 -47t-60.5 -43.5t-73.5 -39.5t-84.5 -26t-98 -10.5q-90 0 -161.5 32.5t-114.5 98.5t-43 155zM482 1158l349 364h83l191 -364h-71l-179 232 l-293 -232h-80z" />
<glyph unicode="&#xfc;" horiz-adv-x="1326" d="M154 267q0 43 7.5 86t43.5 199q12 52 19 82q20 89 27.5 125t19.5 97t18 106.5t9 94.5q52 -15 116 -15t112 15q-59 -191 -118.5 -434.5t-59.5 -334.5t47 -129q30 -26 72 -38.5t78 -12.5t76 9t88 34t89.5 62.5t79 101t58.5 143.5q62 232 114 599q58 -15 110 -15 q57 0 114 15q-72 -211 -143.5 -547t-84.5 -523q-41 15 -110 15q-68 0 -105 -15q51 150 70 232q-15 -19 -25.5 -31.5t-36.5 -40t-49.5 -47t-60.5 -43.5t-73.5 -39.5t-84.5 -26t-98 -10.5q-90 0 -161.5 32.5t-114.5 98.5t-43 155zM528 1296.5q0 41.5 29 69.5t68 28 q20 0 38 -7.5t31.5 -21t21 -31.5t7.5 -38q0 -40 -28.5 -69t-69.5 -29q-39 0 -68 28.5t-29 70zM964 1296.5q0 40.5 28.5 69t68.5 28.5q39 0 69 -29t30 -69t-30 -69t-69 -29q-40 0 -68.5 29t-28.5 69.5z" />
<glyph unicode="&#xfd;" d="M46 -569q65 87 184.5 265.5t164.5 262.5l-56 252t-70 307q-92 392 -134 539q76 -15 122 -15q61 0 110 15q17 -157 67 -425.5t96 -434.5q101 167 245 444.5t200 415.5q47 -18 98 -15q38 0 95 15q-295 -462 -428 -685.5t-334 -597.5q-109 -202 -168 -343q-37 16 -86 16 q-58 0 -106 -16zM562 1158l265 266q3 2 9 8q37 36 53.5 50.5t37.5 26t41 11.5q27 0 47.5 -21t20.5 -47q0 -27 -18 -45.5t-52 -36.5l-336 -212h-68z" />
<glyph unicode="&#xfe;" horiz-adv-x="1326" d="M-52 -569q29 85 47 150t57 241q23 101 41 183.5t33 147.5t31 140t25 116t26.5 123.5t24 113.5t28 135.5t29 141t36.5 177.5t41 201q37 180 45 296q43 -14 112 -14q52 0 93 14q-11 -29 -35 -132.5t-47 -213.5t-47 -223.5t-32 -146.5q18 21 31 35t40 39.5t56 43t65.5 35.5 t82 27.5t94.5 9.5q82 0 156 -28.5t132 -81.5t92 -137.5t34 -189.5q0 -58 -11 -120t-34.5 -126t-57.5 -123.5t-82.5 -111.5t-106 -90.5t-132 -61t-157.5 -22.5q-51 0 -96 10t-76 23t-59 36.5t-43.5 40.5t-31.5 44.5t-21 38.5t-14 33l-39 -195t-61 -304.5t-30 -159.5 q-9 -57 -13 -115q-54 16 -118 16q-66 0 -108 -16zM369 384q0 -73 20 -128.5t49 -87t68.5 -51.5t72.5 -26t65 -6q49 0 92.5 14t77.5 39t63.5 59.5t51.5 73t40 82t30 85.5t20 84t11.5 76.5t3.5 63.5q0 42 -7 80.5t-25 78t-46.5 68.5t-75 47.5t-105.5 18.5q-65 0 -121.5 -22 t-97 -58.5t-73.5 -86t-53.5 -102t-35 -109t-20 -104t-5.5 -89.5z" />
<glyph unicode="&#xff;" d="M46 -569q65 87 184.5 265.5t164.5 262.5l-56 252t-70 307q-92 392 -134 539q76 -15 122 -15q61 0 110 15q17 -157 67 -425.5t96 -434.5q101 167 245 444.5t200 415.5q47 -18 98 -15q38 0 95 15q-295 -462 -428 -685.5t-334 -597.5q-109 -202 -168 -343q-37 16 -86 16 q-58 0 -106 -16zM363 1296q0 42 28.5 70t68.5 28q20 0 38 -7.5t31 -21t21 -31.5t8 -38q0 -40 -29 -69t-69 -29q-26 0 -48 12.5t-35.5 35.5t-13.5 50zM799 1296q0 27 13 49.5t35.5 35.5t49.5 13q39 0 68 -28.5t29 -69t-29 -69.5t-68 -29q-41 0 -69.5 29t-28.5 69z" />
<glyph unicode="&#x152;" horiz-adv-x="2051" d="M120 621q0 115 22 221.5t63.5 196t98.5 166t129 134.5t153.5 99.5t172.5 62.5t185 21q87 0 161 -16.5t139 -52t115 -95t80 -140.5q7 47 12 93t7 71t4 63.5t3 48.5q150 -15 389 -15q59 0 93.5 0.5t70 2t62.5 4t78 8.5q-44 -56 -39 -144q-65 9 -133 13t-140.5 5.5 t-200.5 1.5l-112 -532q199 0 482 13q-1 -2 -3.5 -9t-4.5 -11.5t-4.5 -12.5t-4 -15t-2.5 -15.5t-1 -16.5q0 -12 6 -57q-104 15 -202 19.5t-289 4.5q-57 -263 -125 -628q249 0 352 5t206 20q-27 -48 -27 -96q0 -18 10 -52q-82 10 -141.5 12.5t-230.5 2.5q-155 0 -221.5 -2 t-180.5 -13q42 108 68 208q-58 -75 -121.5 -122.5t-155.5 -76.5t-209 -29q-123 0 -224.5 32.5t-173 91.5t-121 141t-72.5 179.5t-23 209.5zM343 573q0 -52 5 -100.5t17.5 -101.5t32 -97.5t51.5 -85t73 -68.5t98.5 -45t126.5 -17q87 1 162.5 27.5t131 70.5t102.5 104.5 t78.5 126.5t56 139.5t39 139t23.5 130.5t12 109t3 79q0 99 -26 180.5t-75.5 141t-128 92.5t-178.5 33q-250 0 -409 -215q-57 -79 -98 -170t-60.5 -178t-28 -157.5t-8.5 -137.5z" />
<glyph unicode="&#x153;" horiz-adv-x="2051" d="M110 430q0 95 29.5 187.5t85 171.5t131 139t174 94.5t206.5 34.5q131 0 233 -52.5t162 -159.5q44 68 110 116t143.5 72t160.5 24q57 0 111.5 -11t111.5 -39.5t99.5 -72t69.5 -115t27 -161.5q0 -53 -17 -148q-124 8 -169 8q-398 0 -595 -2q-11 -82 -11 -116 q0 -156 87.5 -243t234.5 -87q56 0 111.5 16.5t99 43t74.5 51t54 49.5l32 -25q-31 -55 -38.5 -75t-16.5 -63q-161 -104 -373 -104q-135 0 -240 54.5t-161 166.5q-14 -18 -25 -31.5t-35.5 -38t-48.5 -43t-61.5 -40t-77 -35.5t-92.5 -23.5t-110 -9.5q-139 0 -246 55t-168.5 162 t-61.5 250zM315 375q0 -36 5 -71t16.5 -73t33 -70t50.5 -58t73.5 -40.5t99.5 -14.5q82 0 152.5 36.5t118.5 97.5t82 140.5t49.5 164.5t15.5 171q0 49 -7 91.5t-26.5 85t-50.5 72t-82 48t-118 18.5q-68 0 -128.5 -28t-104.5 -76t-79 -108.5t-56.5 -128t-32.5 -133t-11 -124.5 zM1198 610q186 -5 281 -5q53 0 153 3.5t124 4.5q13 49 13 106q0 64 -17.5 112.5t-43 74.5t-59 42t-58.5 20.5t-50 4.5q-122 0 -220 -100t-123 -263z" />
<glyph unicode="&#x178;" horiz-adv-x="1326" d="M241 1498q61 -15 126 -15q53 0 134 15q128 -426 265 -775q153 225 305 478q60 102 89.5 158.5t65.5 138.5q72 -15 104 -15q48 0 109 15q-75 -98 -298.5 -406.5t-334.5 -474.5q-100 -502 -104 -630q-72 15 -122 15q-53 0 -122 -15q20 76 38.5 147.5t30 120t25 107.5 t19 85.5t16.5 78.5t14 64q-139 391 -187.5 514t-172.5 394zM560 1719.5q0 41.5 29 69.5t69 28q41 0 69.5 -28.5t28.5 -69t-28.5 -69t-69.5 -28.5q-40 0 -69 28t-29 69.5zM996 1719.5q0 40.5 28.5 69t69.5 28.5q15 0 30 -5t27 -14t21 -21t14 -27t5 -31q0 -40 -29 -68.5 t-68 -28.5q-41 0 -69.5 28.5t-28.5 69z" />
<glyph unicode="&#x2c6;" horiz-adv-x="603" d="M108 1158l350 364h83l190 -364h-71l-178 232l-293 -232h-81z" />
<glyph unicode="&#x2dc;" horiz-adv-x="603" d="M139 1212q18 104 74 161.5t128 57.5q35 0 65.5 -9t132.5 -48q7 -2 10.5 -4t10 -4t12.5 -4.5t12 -4.5q48 -21 89 -21q22 0 41 11.5t31 30t19 32.5t11 27h56q-7 -41 -22.5 -79t-40 -70.5t-61 -52t-79.5 -19.5q-34 0 -62.5 9t-120.5 45q-65 27 -91.5 35t-49.5 8 q-33 0 -66 -27.5t-45 -73.5h-54z" />
<glyph unicode="&#x2000;" horiz-adv-x="989" />
<glyph unicode="&#x2001;" horiz-adv-x="1978" />
<glyph unicode="&#x2002;" horiz-adv-x="989" />
<glyph unicode="&#x2003;" horiz-adv-x="1978" />
<glyph unicode="&#x2004;" horiz-adv-x="659" />
<glyph unicode="&#x2005;" horiz-adv-x="494" />
<glyph unicode="&#x2006;" horiz-adv-x="329" />
<glyph unicode="&#x2007;" horiz-adv-x="329" />
<glyph unicode="&#x2008;" horiz-adv-x="247" />
<glyph unicode="&#x2009;" horiz-adv-x="395" />
<glyph unicode="&#x200a;" horiz-adv-x="109" />
<glyph unicode="&#x2010;" horiz-adv-x="721" d="M108 443q44 87 33 176q101 -16 243 -16q100 0 263 16q-43 -77 -32 -176q-90 11 -261 11q-138 0 -246 -11z" />
<glyph unicode="&#x2011;" horiz-adv-x="721" d="M108 443q44 87 33 176q101 -16 243 -16q100 0 263 16q-43 -77 -32 -176q-90 11 -261 11q-138 0 -246 -11z" />
<glyph unicode="&#x2012;" horiz-adv-x="721" d="M108 443q44 87 33 176q101 -16 243 -16q100 0 263 16q-43 -77 -32 -176q-90 11 -261 11q-138 0 -246 -11z" />
<glyph unicode="&#x2013;" d="M-13 471l26 126h1085l-25 -126h-1086z" />
<glyph unicode="&#x2014;" horiz-adv-x="2170" d="M269 471l27 126h1606l-27 -126h-1606z" />
<glyph unicode="&#x2018;" horiz-adv-x="542" d="M217 990q0 22 11 47t21.5 40t28.5 37l306 388l44 -21l-185 -422q-43 -98 -68 -127t-64 -29q-29 0 -50.5 12.5t-32.5 32t-11 42.5z" />
<glyph unicode="&#x2019;" horiz-adv-x="542" d="M217 926l183 420q45 100 69.5 128t64.5 28q42 0 68 -25.5t26 -61.5q0 -21 -11 -45.5t-21.5 -38.5t-28.5 -37l-306 -391z" />
<glyph unicode="&#x201a;" horiz-adv-x="542" d="M-13 -338l183 419q43 98 68 126.5t64 28.5q42 0 67.5 -25.5t25.5 -61.5q0 -21 -11 -45.5t-21 -38t-29 -36.5l-305 -389z" />
<glyph unicode="&#x201c;" d="M296 990q0 22 10.5 47t19.5 38.5t28 38.5l308 388l42 -21l-182 -422q-44 -98 -68.5 -127t-64.5 -29q-42 0 -67.5 25.5t-25.5 61.5zM682 990q0 22 10.5 47t21 40t28.5 37l306 388l42 -21l-183 -422q-30 -68 -49.5 -100t-37.5 -44t-45 -12q-42 0 -67.5 25.5t-25.5 61.5z " />
<glyph unicode="&#x201d;" d="M296 926l182 420q43 99 67.5 127.5t64.5 28.5q42 0 68 -25.5t26 -61.5q0 -49 -62 -121l-306 -391zM682 926l182 420q43 98 68 127t64 29q43 0 68.5 -25.5t25.5 -61.5q0 -48 -59 -121l-306 -391z" />
<glyph unicode="&#x201e;" d="M95 -338l183 419q31 69 50.5 100t37.5 43t46 12q42 0 68 -25.5t26 -61.5q0 -21 -11 -45t-21.5 -38.5t-28.5 -36.5l-306 -389zM482 -338l185 419q43 98 68 126.5t64 28.5q42 0 68 -25.5t26 -61.5q0 -20 -12.5 -46t-21.5 -38t-28 -36l-305 -389z" />
<glyph unicode="&#x2022;" d="M219 742q0 102 50 187t135.5 134t185.5 49t184.5 -49t134.5 -134.5t50 -186.5t-49 -186.5t-134 -135t-186 -49.5q-61 0 -117.5 19t-102 53t-79.5 79.5t-53 102.5t-19 117z" />
<glyph unicode="&#x2026;" horiz-adv-x="2170" d="M209 100q0 55 38.5 94.5t93.5 39.5q57 0 96 -39t39 -95q0 -55 -39 -94t-96 -39q-55 0 -93.5 39t-38.5 94zM932 100q0 55 38.5 94.5t93.5 39.5q57 0 95.5 -39t38.5 -95q0 -36 -17.5 -66.5t-48 -48.5t-68.5 -18q-36 0 -66.5 18t-48 48.5t-17.5 66.5zM1655 100 q0 55 38.5 94.5t93.5 39.5q57 0 95.5 -39t38.5 -95q0 -55 -38.5 -94t-95.5 -39q-55 0 -93.5 39t-38.5 94z" />
<glyph unicode="&#x202f;" horiz-adv-x="395" />
<glyph unicode="&#x2039;" horiz-adv-x="603" d="M132 532q192 220 239.5 276.5t110.5 138.5q11 -25 41 -52.5t63 -34.5q-117 -90 -334 -338q89 -189 191 -377q-30 5 -66 -11.5t-60 -40.5q-53 190 -185 439z" />
<glyph unicode="&#x203a;" horiz-adv-x="603" d="M43 180q135 107 334 342q-92 191 -190 373q32 -3 68 13t58 39q22 -83 62.5 -180.5t61.5 -139.5t60 -119q-75 -87 -209 -239q-88 -106 -139 -176q-13 26 -43 53t-63 34z" />
<glyph unicode="&#x205f;" horiz-adv-x="494" />
<glyph unicode="&#x2122;" horiz-adv-x="2198" d="M191 1394q6 43 6 50q0 21 -6 52q80 -11 304 -11q228 0 308 11q-6 -37 -6 -52.5t6 -51.5q-79 15 -234 15q0 -16 -0.5 -126t-0.5 -191t2.5 -184.5t7.5 -161.5q-3 0 -21.5 3t-34.5 5t-29 2q-27 0 -70 -10q6 75 9 183.5t3.5 175.5t0 184.5t-0.5 119.5q-63 0 -102.5 -1 t-66.5 -3t-39 -3.5t-36 -5.5zM838 744q17 68 58.5 329.5t58.5 422.5q32 -3 58 0q28 -62 146 -273.5t161 -278.5q263 470 302 552q26 -3 56 0q72 -593 91 -706q3 -26 11 -46q-8 1 -24 3.5t-30 4.5t-24 2q-23 0 -78 -10q0 74 -18 264t-26 249q-68 -120 -101 -179.5 t-84.5 -159.5t-81.5 -174q-20 5 -43 0q-54 124 -271 505q-40 -310 -40 -505q-38 10 -52 10q-10 0 -22 -2t-24.5 -4.5t-22.5 -3.5z" />
<glyph unicode="&#xe000;" horiz-adv-x="1052" d="M0 0v1053h1053v-1053h-1053z" />
<glyph unicode="&#xfb01;" horiz-adv-x="1326" d="M120 -13q78 273 120 455t103 492q-124 0 -202 -10q20 62 20 103q20 -1 88 -4t111 -4q21 126 60 228.5t86.5 168.5t103 110.5t108.5 63.5t105 19q39 0 103 -18q-33 -84 -42 -180l-20 -13l-2 2q-54 54 -131 54q-113 0 -151 -106q-14 -36 -20 -104t-13 -225q52 1 138 4 t116 4q-18 -56 -18 -103q-121 10 -251 10q-54 -237 -77.5 -341.5t-59 -291.5t-49.5 -314q-57 15 -114 15q-47 0 -112 -15zM808 -13q35 126 78 291.5t94.5 411t59.5 374.5q48 -16 108 -16q28 0 116 16q-54 -168 -128 -500t-102 -577q-47 15 -114 15q-69 0 -112 -15z M1090 1419.5q0 45.5 33 78.5t78 33t77.5 -33t32.5 -79q0 -29 -14.5 -54.5t-40 -40.5t-55.5 -15q-45 0 -78 32.5t-33 78z" />
<glyph unicode="&#xfb02;" horiz-adv-x="1326" d="M120 -13q78 273 120 455t103 492q-124 0 -202 -10q20 62 20 103q20 -1 88 -4t111 -4q21 126 60 228.5t86.5 168.5t103 110.5t108.5 63.5t105 19q39 0 103 -18q-33 -84 -42 -180l-20 -13l-2 2q-54 54 -131 54q-113 0 -151 -106q-14 -36 -20 -104t-13 -225q52 1 138 4 t116 4q-18 -56 -18 -103q-121 10 -251 10q-54 -237 -77.5 -341.5t-59 -291.5t-49.5 -314q-57 15 -114 15q-47 0 -112 -15zM808 -13q50 144 130 495q7 32 22 96q58 257 86.5 389.5t62 315.5t46.5 314q52 -14 128 -14q58 0 102 14q-27 -78 -41 -123.5t-29.5 -98.5t-45 -186 t-56.5 -256t-95 -439q-5 -27 -8 -40q-45 -207 -58 -291.5t-14 -175.5q-46 15 -116 15q-69 0 -114 -15z" />
</font>
</defs>
</svg>
